<svg width="16" height="17" viewBox="0 0 16 17" fill="none" xmlns="http://www.w3.org/2000/svg">
<g id="KeyboardDoubleArrowDownRounded">
<g id="Vector">
<path d="M11.5263 8.69939C11.2663 8.43939 10.8463 8.43939 10.5863 8.69939L7.99966 11.2794L5.41299 8.69272C5.15299 8.43272 4.73299 8.43272 4.47299 8.69272C4.21299 8.95272 4.21299 9.37272 4.47299 9.63272L7.53299 12.6927C7.79299 12.9527 8.213 12.9527 8.47299 12.6927L11.533 9.63272C11.7863 9.37939 11.7863 8.95939 11.5263 8.69939Z" fill="#AFC3D1"/>
<path d="M11.5265 4.30616C11.2665 4.04616 10.8465 4.04616 10.5865 4.30616L7.99982 6.88616L5.40648 4.29949C5.14648 4.03949 4.72648 4.03949 4.46648 4.29949C4.20648 4.55949 4.20648 4.97949 4.46648 5.23949L7.52648 8.29949C7.78648 8.55949 8.20648 8.55949 8.46648 8.29949L11.5265 5.23949C11.7865 4.98616 11.7865 4.56616 11.5265 4.30616Z" fill="#AFC3D1"/>
</g>
</g>
</svg>
