<svg width="20" height="20" viewBox="0 0 20 20" fill="none" xmlns="http://www.w3.org/2000/svg">
<path d="M16.667 2.50016H15.8337V1.66683C15.8337 1.2085 15.4587 0.833496 15.0003 0.833496C14.542 0.833496 14.167 1.2085 14.167 1.66683V2.50016H5.83366V1.66683C5.83366 1.2085 5.45866 0.833496 5.00033 0.833496C4.54199 0.833496 4.16699 1.2085 4.16699 1.66683V2.50016H3.33366C2.41699 2.50016 1.66699 3.25016 1.66699 4.16683V17.5002C1.66699 18.4168 2.41699 19.1668 3.33366 19.1668H16.667C17.5837 19.1668 18.3337 18.4168 18.3337 17.5002V4.16683C18.3337 3.25016 17.5837 2.50016 16.667 2.50016ZM15.8337 17.5002H4.16699C3.70866 17.5002 3.33366 17.1252 3.33366 16.6668V6.66683H16.667V16.6668C16.667 17.1252 16.292 17.5002 15.8337 17.5002Z" fill="#949DA5"/>
</svg>
