<svg width="40" height="40" viewBox="0 0 40 40" fill="none" xmlns="http://www.w3.org/2000/svg">
<g id="CalendarViewMonthRounded">
<path id="Vector" d="M33.333 6.6665H6.66634C4.83301 6.6665 3.33301 8.1665 3.33301 9.99984V29.9998C3.33301 31.8332 4.83301 33.3332 6.66634 33.3332H33.333C35.1663 33.3332 36.6663 31.8332 36.6663 29.9998V9.99984C36.6663 8.1665 35.1663 6.6665 33.333 6.6665ZM13.333 18.3332H6.66634V9.99984H13.333V18.3332ZM23.333 18.3332H16.6663V9.99984H23.333V18.3332ZM33.333 18.3332H26.6663V9.99984H33.333V18.3332ZM13.333 29.9998H6.66634V21.6665H13.333V29.9998ZM23.333 29.9998H16.6663V21.6665H23.333V29.9998ZM33.333 29.9998H26.6663V21.6665H33.333V29.9998Z" stroke="white"/>
</g>
</svg>
