<svg width="40" height="40" viewBox="0 0 40 40" fill="none" xmlns="http://www.w3.org/2000/svg">
<g id="CalendarTodayRounded">
<path id="Vector" d="M33.333 4.99984H31.6663V3.33317C31.6663 2.4165 30.9163 1.6665 29.9997 1.6665C29.083 1.6665 28.333 2.4165 28.333 3.33317V4.99984H11.6663V3.33317C11.6663 2.4165 10.9163 1.6665 9.99967 1.6665C9.08301 1.6665 8.33301 2.4165 8.33301 3.33317V4.99984H6.66634C4.83301 4.99984 3.33301 6.49984 3.33301 8.33317V34.9998C3.33301 36.8332 4.83301 38.3332 6.66634 38.3332H33.333C35.1663 38.3332 36.6663 36.8332 36.6663 34.9998V8.33317C36.6663 6.49984 35.1663 4.99984 33.333 4.99984ZM31.6663 34.9998H8.33301C7.41634 34.9998 6.66634 34.2498 6.66634 33.3332V13.3332H33.333V33.3332C33.333 34.2498 32.583 34.9998 31.6663 34.9998Z" stroke="white"/>
</g>
</svg>
