<svg width="16" height="16" viewBox="0 0 16 16" fill="none" xmlns="http://www.w3.org/2000/svg">
<path d="M12.82 10.1725L11.1267 9.97919C10.72 9.93253 10.32 10.0725 10.0334 10.3592L8.80669 11.5859C6.92003 10.6259 5.37336 9.08586 4.41336 7.19253L5.64669 5.95919C5.93336 5.67253 6.07336 5.27253 6.02669 4.86586L5.83336 3.18586C5.75336 2.51253 5.18669 2.00586 4.50669 2.00586H3.35336C2.60003 2.00586 1.97336 2.63253 2.02003 3.38586C2.37336 9.07919 6.92669 13.6259 12.6134 13.9792C13.3667 14.0259 13.9934 13.3992 13.9934 12.6459V11.4925C14 10.8192 13.4934 10.2525 12.82 10.1725Z" fill="#139BE8"/>
</svg>
