<svg width="40" height="40" viewBox="0 0 40 40" fill="none" xmlns="http://www.w3.org/2000/svg">
<g id="CasesRounded">
<path id="Vector" d="M30.0003 8.33317V4.99984C30.0003 3.1665 28.5003 1.6665 26.667 1.6665H20.0003C18.167 1.6665 16.667 3.1665 16.667 4.99984V8.33317H11.667C9.83366 8.33317 8.33366 9.83317 8.33366 11.6665V26.6665C8.33366 28.4998 9.83366 29.9998 11.667 29.9998H35.0003C36.8337 29.9998 38.3337 28.4998 38.3337 26.6665V11.6665C38.3337 9.83317 36.8337 8.33317 35.0003 8.33317H30.0003ZM26.667 8.33317H20.0003V4.99984H26.667V8.33317ZM3.33366 14.9998C2.41699 14.9998 1.66699 15.7498 1.66699 16.6665V33.3332C1.66699 35.1665 3.16699 36.6665 5.00033 36.6665H30.0003C30.917 36.6665 31.667 35.9165 31.667 34.9998C31.667 34.0832 30.917 33.3332 30.0003 33.3332H5.00033V16.6665C5.00033 15.7498 4.25033 14.9998 3.33366 14.9998Z" stroke="white"/>
</g>
</svg>
