<svg width="40" height="40" viewBox="0 0 40 40" fill="none" xmlns="http://www.w3.org/2000/svg">
<g id="CastleRounded">
<path id="Vector" d="M36.667 15C35.7503 15 35.0003 15.75 35.0003 16.6667V18.3333H31.667V6.66667C31.667 5.75 30.917 5 30.0003 5C29.0837 5 28.3337 5.75 28.3337 6.66667V8.33333H25.0003V6.66667C25.0003 5.75 24.2503 5 23.3337 5C22.417 5 21.667 5.75 21.667 6.66667V8.33333H18.3337V6.66667C18.3337 5.75 17.5837 5 16.667 5C15.7503 5 15.0003 5.75 15.0003 6.66667V8.33333H11.667V6.66667C11.667 5.75 10.917 5 10.0003 5C9.08366 5 8.33366 5.75 8.33366 6.66667V18.3333H5.00033V16.6667C5.00033 15.75 4.25033 15 3.33366 15C2.41699 15 1.66699 15.75 1.66699 16.6667V31.6667C1.66699 33.5 3.16699 35 5.00033 35H16.667V30C16.667 28.1667 18.167 26.6667 20.0003 26.6667C21.8337 26.6667 23.3337 28.1667 23.3337 30V35H35.0003C36.8337 35 38.3337 33.5 38.3337 31.6667V16.6667C38.3337 15.75 37.5837 15 36.667 15ZM18.3337 20H15.0003V15H18.3337V20ZM25.0003 20H21.667V15H25.0003V20Z" stroke="white"/>
</g>
</svg>
