<svg width="40" height="40" viewBox="0 0 40 40" fill="none" xmlns="http://www.w3.org/2000/svg">
<g id="CompareArrowsRounded">
<path id="Vector" d="M15.0163 23.3324H4.99967C4.08301 23.3324 3.33301 24.0824 3.33301 24.9991C3.33301 25.9157 4.08301 26.6657 4.99967 26.6657H15.0163V29.6491C15.0163 30.3991 15.9163 30.7657 16.433 30.2324L21.0663 25.5824C21.383 25.2491 21.383 24.7324 21.0663 24.3991L16.433 19.7491C15.9163 19.2157 15.0163 19.5991 15.0163 20.3324V23.3324ZM24.983 19.6491V16.6657H34.9997C35.9163 16.6657 36.6663 15.9157 36.6663 14.9991C36.6663 14.0824 35.9163 13.3324 34.9997 13.3324H24.983V10.3491C24.983 9.59907 24.083 9.23241 23.5663 9.76574L18.933 14.4157C18.6163 14.7491 18.6163 15.2657 18.933 15.5991L23.5663 20.2491C24.083 20.7657 24.983 20.3991 24.983 19.6491Z" stroke="white"/>
</g>
</svg>
