<svg width="40" height="40" viewBox="0 0 40 40" fill="none" xmlns="http://www.w3.org/2000/svg">
<g id="ContactPageRounded">
<path id="Vector" d="M21.9503 3.3335H10.0003C8.16699 3.3335 6.66699 4.8335 6.66699 6.66683V33.3335C6.66699 35.1668 8.16699 36.6668 10.0003 36.6668H30.0003C31.8337 36.6668 33.3337 35.1668 33.3337 33.3335V14.7168C33.3337 13.8335 32.9837 12.9835 32.3503 12.3668L24.3003 4.31683C23.6837 3.6835 22.8337 3.3335 21.9503 3.3335ZM20.0003 16.6668C21.8337 16.6668 23.3337 18.1668 23.3337 20.0002C23.3337 21.8335 21.8337 23.3335 20.0003 23.3335C18.167 23.3335 16.667 21.8335 16.667 20.0002C16.667 18.1668 18.167 16.6668 20.0003 16.6668ZM26.667 30.0002H13.3337V29.0502C13.3337 27.7002 14.1337 26.5002 15.367 25.9668C16.7837 25.3502 18.3503 25.0002 20.0003 25.0002C21.6503 25.0002 23.217 25.3502 24.6337 25.9668C25.867 26.5002 26.667 27.7002 26.667 29.0502V30.0002Z" stroke="white"/>
</g>
</svg>
