<svg width="20" height="20" viewBox="0 0 20 20" fill="none" xmlns="http://www.w3.org/2000/svg">
<path d="M10.0007 14.1673C9.54232 14.1673 9.16732 13.7923 9.16732 13.334L9.16732 10.0006C9.16732 9.54232 9.54232 9.16732 10.0007 9.16732C10.459 9.16732 10.834 9.54232 10.834 10.0006L10.834 13.334C10.834 13.7923 10.459 14.1673 10.0007 14.1673ZM10.009 18.334C14.609 18.334 18.334 14.6007 18.334 10.0007C18.334 5.40065 14.609 1.66732 10.009 1.66732C5.40065 1.66732 1.66732 5.40065 1.66732 10.0006C1.66732 14.6006 5.40065 18.334 10.009 18.334ZM10.0007 3.33398C13.684 3.33398 16.6673 6.31732 16.6673 10.0007C16.6673 13.684 13.684 16.6673 10.0007 16.6673C6.31732 16.6673 3.33398 13.684 3.33398 10.0006C3.33398 6.31732 6.31732 3.33398 10.0007 3.33398ZM9.16732 5.83398L10.834 5.83398L10.834 7.50065L9.16732 7.50065L9.16732 5.83398Z" fill="#139BE8"/>
</svg>
