<svg width="46" height="48" viewBox="0 0 46 48" fill="none" xmlns="http://www.w3.org/2000/svg">
<path opacity="0.7" d="M0.802817 15.8478C1.73038 13.3632 3.06589 11.0801 4.73167 9.07642C9.71099 12.1828 13.0254 17.7032 13.0254 24.0019C13.0254 30.3006 9.71099 35.821 4.73167 38.9274C3.06588 36.9237 1.73038 34.6406 0.802817 32.1561C3.45287 30.4115 5.20971 27.4158 5.20971 24.0019C5.20971 20.588 3.45287 17.5923 0.802817 15.8478Z" fill="#139BE8" stroke="#139BE8" stroke-width="1.3"/>
<path opacity="0.7" d="M22.683 0.65C24.0083 0.65 25.309 0.76632 26.5769 0.979639C26.2286 10.3793 18.4978 17.8982 9.0116 17.8982C6.04284 17.8982 3.25178 17.1577 0.799179 15.8593C1.72266 13.3791 3.05662 11.0947 4.71451 9.09595C6.01438 9.7352 7.47308 10.0998 9.02028 10.0998C14.1943 10.0998 18.426 6.07299 18.7609 0.983935C20.0369 0.765163 21.3451 0.65 22.683 0.65Z" fill="#139BE8" stroke="#139BE8" stroke-width="1.3"/>
<path opacity="0.7" d="M26.6231 0.985577C25.3403 0.76848 24.024 0.65 22.6826 0.65C21.3523 0.65 20.0544 0.76322 18.7888 0.978376C19.1363 10.3826 26.8672 17.8982 36.3541 17.8982C39.3229 17.8982 42.1141 17.1576 44.5667 15.8592C43.643 13.3748 42.3082 11.0894 40.643 9.08692C39.351 9.72149 37.8984 10.0818 36.3584 10.0825L26.6231 0.985577ZM26.6231 0.985577C26.9664 6.06331 31.1867 10.0802 36.3541 10.0825L26.6231 0.985577Z" fill="#139BE8" stroke="#139BE8" stroke-width="1.3"/>
<path opacity="0.7" d="M44.5519 15.8103C43.6203 13.3299 42.2811 11.048 40.6119 9.04856C35.607 12.1476 32.275 17.6852 32.275 23.9977C32.275 30.3102 35.607 35.8479 40.6119 38.9469C42.2814 36.9475 43.6206 34.6686 44.5521 32.1853C41.8744 30.4478 40.0981 27.4377 40.0951 24.0021C40.0951 23.9992 40.0951 23.9963 40.0951 23.9934M44.5519 15.8103L45.3442 16.0882C42.6001 17.6575 40.7482 20.6084 40.7451 23.9934H40.0951M44.5519 15.8103C41.8742 17.5483 40.0981 20.5621 40.0951 23.9934M44.5519 15.8103L40.0951 23.9934M45.3442 31.9073C42.6001 30.338 40.7482 27.3913 40.7451 24.0021L40.7494 39.7865C42.7496 37.4999 44.3202 34.8359 45.3442 31.9073Z" fill="#139BE8" stroke="#139BE8" stroke-width="1.3"/>
<path opacity="0.7" d="M36.3541 37.9174C31.1891 37.9174 26.9625 41.9349 26.6188 47.0143C25.336 47.2314 24.0201 47.3499 22.6826 47.3499C21.3574 47.3499 20.0567 47.2335 18.7888 47.0202C19.1371 37.6206 26.8679 30.1017 36.3541 30.1017C39.3229 30.1017 42.1141 30.8422 44.5667 32.1407C43.643 34.625 42.3082 36.9105 40.643 38.913C39.3489 38.2777 37.8917 37.9174 36.3541 37.9174Z" fill="#139BE8" stroke="#139BE8" stroke-width="1.3"/>
<path opacity="0.7" d="M4.72265 38.9129C3.05748 36.9104 1.72267 34.625 0.798948 32.1407C3.25161 30.8422 6.04275 30.1017 9.0116 30.1017C18.4984 30.1017 26.2294 37.6173 26.5769 47.0215C25.3112 47.2366 24.0134 47.3499 22.683 47.3499C21.3404 47.3499 20.0276 47.2345 18.747 47.0155C18.4042 41.9358 14.1814 37.9174 9.0116 37.9174C7.47001 37.9174 6.01587 38.2778 4.72265 38.9129Z" fill="#139BE8" stroke="#139BE8" stroke-width="1.3"/>
</svg>
