<?xml version="1.0" encoding="utf-8"?>
<!-- Generator: Adobe Illustrator 27.9.0, SVG Export Plug-In . SVG Version: 6.00 Build 0)  -->
<svg version="1.1" id="Слой_1" xmlns="http://www.w3.org/2000/svg" xmlns:xlink="http://www.w3.org/1999/xlink" x="0px" y="0px"
	 viewBox="0 0 46 48" style="enable-background:new 0 0 46 48;" xml:space="preserve">
<style type="text/css">
	.st0{opacity:0.7;fill:#139BE8;enable-background:new    ;}
</style>
<path class="st0" d="M45.2,31.6C45.2,31.6,45.1,31.6,45.2,31.6c-2.6-1.7-4.1-4.5-4.1-7.6c0-3,1.5-5.8,4-7.5c0,0,0,0,0,0l0.5-0.3
	l0-0.1l0,0l-0.2-0.5c-0.9-2.5-2.3-4.9-4-7l-0.4-0.4l-0.5,0.3c0,0,0,0,0,0c-1.2,0.6-2.5,0.9-3.9,0.9c-4.8,0-8.8-3.7-9.1-8.5l0-0.4
	l0-0.1l0,0v0L27,0.3C25.8,0.1,24.5,0,23.3,0c-0.1,0-0.2,0-0.3,0v0c-0.1,0-0.1,0-0.2,0c-0.4,0-0.9,0-1.3,0.1c-0.2,0-0.4,0-0.6,0
	c-0.6,0.1-1.3,0.1-1.9,0.2l-0.6,0.1l0,0.3l0,0.2c-0.3,4.8-4.3,8.5-9.1,8.5C8,9.4,6.7,9.1,5.5,8.6c0,0-0.1,0-0.1-0.1L4.9,8.2L4.9,8.3
	l0,0L4.6,8.7c-0.4,0.5-0.8,1-1.1,1.5c0,0-0.1,0.1-0.1,0.1c-0.3,0.5-0.6,1-0.9,1.5c0,0.1-0.1,0.2-0.2,0.2c-0.2,0.4-0.4,0.8-0.7,1.3
	c-0.1,0.2-0.2,0.4-0.3,0.5C1.2,14,1.1,14.3,1,14.5c-0.2,0.4-0.3,0.7-0.5,1.1l-0.2,0.5l0,0l0,0.1l0.5,0.3c0,0,0,0,0,0
	c2.5,1.7,4,4.5,4,7.6c0,3-1.5,5.8-4,7.5c0,0,0,0,0,0l-0.5,0.3l0,0.1l0,0l0.2,0.5c0.9,2.5,2.3,4.9,4,7l0.4,0.4l0.5-0.3c0,0,0,0,0,0
	c1.2-0.6,2.5-0.9,3.9-0.9c4.8,0,8.8,3.7,9.1,8.5l0,0.4l0,0.1l0,0v0l0.5,0.1c1.2,0.2,2.5,0.3,3.8,0.3c0.1,0,0.2,0,0.3,0v0
	c0.1,0,0.1,0,0.2,0c0.4,0,0.9,0,1.3-0.1c0.2,0,0.4,0,0.6,0c0.6-0.1,1.3-0.1,1.9-0.2l0.6-0.1l0-0.3l0-0.2c0.3-4.8,4.3-8.5,9.1-8.5
	c1.3,0,2.6,0.3,3.9,0.9c0,0,0.1,0,0.1,0.1l0.5,0.3l0.1-0.1l0,0l0.3-0.4c0.4-0.5,0.8-1,1.1-1.5c0,0,0.1-0.1,0.1-0.1
	c0.3-0.5,0.6-1,0.9-1.5c0-0.1,0.1-0.2,0.2-0.2c0.2-0.4,0.4-0.8,0.7-1.3c0.1-0.2,0.2-0.4,0.3-0.5c0.1-0.2,0.2-0.5,0.3-0.8
	c0.2-0.4,0.3-0.7,0.5-1.1l0.2-0.5l0,0l0-0.1L45.2,31.6z M39.8,24c0,2.3,0.8,4.5,2.1,6.2c-1.7-0.5-3.4-0.8-5.2-0.8
	c-0.8,0-1.6,0.1-2.4,0.2c-0.6-1.8-1-3.7-1-5.6c0-2,0.3-3.8,1-5.6c0.8,0.1,1.6,0.2,2.4,0.2c1.8,0,3.5-0.3,5.2-0.8
	C40.6,19.5,39.8,21.7,39.8,24z M40.8,9.9c0.2,0.3,0.4,0.6,0.7,0.9c0.1,0.1,0.2,0.3,0.3,0.4c0.2,0.3,0.3,0.5,0.5,0.8
	c0.1,0.2,0.3,0.4,0.4,0.6c0.2,0.3,0.3,0.5,0.4,0.8c0.1,0.2,0.2,0.4,0.3,0.6c0.2,0.4,0.3,0.7,0.5,1.1c0.1,0.1,0.1,0.3,0.2,0.4
	c-2.3,1.1-4.8,1.7-7.4,1.7c-0.6,0-1.3,0-1.9-0.1C36,14.3,38.1,11.8,40.8,9.9z M27.1,4.4c1.6,3.7,5.3,6.3,9.6,6.3
	c0.4,0,0.8,0,1.1-0.1c-1.9,1.8-3.4,3.9-4.4,6.3c-3.8-0.7-7.2-2.7-9.6-5.6C25.3,9.3,26.5,7,27.1,4.4z M13.1,29.8c0.6-1.8,1-3.8,1-5.8
	c0-2-0.3-4-1-5.8c3.9-0.8,7.4-2.9,9.9-5.7v0c2.6,2.9,6,4.9,9.9,5.7C32.3,20,32,22,32,24c0,2,0.3,4,1,5.8c-3.9,0.8-7.4,2.9-9.9,5.7v0
	C20.4,32.7,17,30.6,13.1,29.8z M20.7,1.4c0.2,0,0.4-0.1,0.6-0.1c0.3,0,0.7,0,1,0c0.2,0,0.4,0,0.6,0c0,0,0,0,0,0v0c0.2,0,0.4,0,0.7,0
	c0.3,0,0.6,0,1,0c0.4,0,0.7,0.1,1.1,0.1c0.2,0,0.3,0,0.5,0.1C26,4.8,24.8,7.8,23,10.3v0c-1.8-2.5-3-5.5-3.2-8.8
	C20.1,1.5,20.4,1.5,20.7,1.4z M9.4,10.7c4.3,0,8-2.6,9.6-6.3c0.6,2.6,1.7,4.9,3.3,7c-2.4,2.8-5.8,4.8-9.6,5.6
	c-1-2.4-2.5-4.5-4.4-6.3C8.6,10.7,9,10.7,9.4,10.7z M2,15.5c0.1-0.2,0.2-0.4,0.3-0.7c0.1-0.3,0.2-0.6,0.4-0.8
	c0.1-0.3,0.3-0.5,0.4-0.8c0.1-0.2,0.2-0.4,0.3-0.6c0.2-0.3,0.3-0.6,0.5-0.8c0.1-0.2,0.2-0.4,0.4-0.6c0.2-0.3,0.4-0.6,0.6-0.8
	c0.1-0.2,0.2-0.3,0.3-0.5c2.7,1.8,4.8,4.3,6.1,7.2c-0.6,0.1-1.3,0.1-1.9,0.1C6.8,17.2,4.3,16.7,2,15.5z M6.2,24
	c0-2.3-0.8-4.5-2.1-6.2c1.7,0.5,3.4,0.8,5.2,0.8c0.8,0,1.6-0.1,2.4-0.2c0.6,1.8,1,3.7,1,5.6c0,2-0.3,3.8-1,5.6
	c-0.8-0.1-1.6-0.2-2.4-0.2c-1.8,0-3.5,0.3-5.2,0.8C5.4,28.5,6.2,26.3,6.2,24z M5.2,38.1c-0.2-0.3-0.4-0.6-0.7-0.9
	c-0.1-0.1-0.2-0.3-0.3-0.4c-0.2-0.3-0.3-0.5-0.5-0.8c-0.1-0.2-0.3-0.4-0.4-0.6c-0.2-0.3-0.3-0.5-0.4-0.8c-0.1-0.2-0.2-0.4-0.3-0.6
	c-0.2-0.4-0.3-0.7-0.5-1.1C2.1,32.7,2,32.6,2,32.5c2.3-1.1,4.8-1.7,7.4-1.7c0.6,0,1.3,0,1.9,0.1C10,33.7,7.9,36.2,5.2,38.1z
	 M18.9,43.6c-1.6-3.7-5.3-6.3-9.6-6.3c-0.4,0-0.8,0-1.1,0.1c1.9-1.8,3.4-3.9,4.4-6.3c3.8,0.7,7.2,2.7,9.6,5.6
	C20.7,38.7,19.5,41,18.9,43.6z M25.3,46.6c-0.2,0-0.4,0.1-0.6,0.1c-0.3,0-0.7,0-1,0c-0.2,0-0.4,0-0.6,0c0,0,0,0,0,0v0
	c-0.2,0-0.4,0-0.7,0c-0.3,0-0.6,0-1,0c-0.4,0-0.7-0.1-1.1-0.1c-0.2,0-0.3,0-0.5-0.1c0.2-3.3,1.4-6.3,3.2-8.8v0
	c1.8,2.5,3,5.5,3.2,8.8C25.9,46.5,25.6,46.5,25.3,46.6z M36.6,37.3c-4.3,0-8,2.6-9.6,6.3c-0.6-2.6-1.7-4.9-3.3-7
	c2.4-2.8,5.8-4.8,9.6-5.6c1,2.4,2.5,4.5,4.4,6.3C37.4,37.3,37,37.3,36.6,37.3z M43.7,33.1c-0.1,0.3-0.2,0.6-0.4,0.8
	c-0.1,0.3-0.3,0.5-0.4,0.8c-0.1,0.2-0.2,0.4-0.3,0.6c-0.2,0.3-0.3,0.6-0.5,0.8c-0.1,0.2-0.2,0.4-0.4,0.6c-0.2,0.3-0.4,0.6-0.6,0.8
	c-0.1,0.2-0.2,0.3-0.3,0.5c-2.7-1.8-4.8-4.3-6.1-7.2c0.6-0.1,1.3-0.1,1.9-0.1c2.6,0,5.1,0.6,7.4,1.7C43.9,32.7,43.8,32.9,43.7,33.1z
	"/>
</svg>
