<svg width="16" height="16" viewBox="0 0 16 16" fill="none" xmlns="http://www.w3.org/2000/svg">
    <path d="M5.53243 2.10979L3.44631 4.25939C3.20704 4.49823 3.37154 4.91429 3.70801 4.91429H5.04641V9.54478C5.04641 9.96854 5.38288 10.3153 5.79413 10.3153C6.20537 10.3153 6.54184 9.96854 6.54184 9.54478V4.91429H7.88024C8.21671 4.91429 8.38121 4.49823 8.14194 4.25939L6.05582 2.10979C5.91376 1.9634 5.67449 1.9634 5.53243 2.10979ZM10.9471 11.0934V6.46292C10.9471 6.03917 10.6106 5.69246 10.1993 5.69246C9.78811 5.69246 9.45164 6.03917 9.45164 6.46292V11.0934H8.11323C7.77676 11.0934 7.61227 11.5095 7.85153 11.7483L9.93765 13.8902C10.0872 14.0366 10.319 14.0366 10.4685 13.8902L12.5546 11.7483C12.7939 11.5095 12.6219 11.0934 12.2929 11.0934H10.9471Z" fill="#949DA5"/>
</svg>