<svg width="20" height="20" viewBox="0 0 20 20" fill="none" xmlns="http://www.w3.org/2000/svg">
<g id="InfoRounded">
<path id="Vector" d="M10.0003 1.66663C5.40033 1.66663 1.66699 5.39996 1.66699 9.99996C1.66699 14.6 5.40033 18.3333 10.0003 18.3333C14.6003 18.3333 18.3337 14.6 18.3337 9.99996C18.3337 5.39996 14.6003 1.66663 10.0003 1.66663ZM10.0003 14.1666C9.54199 14.1666 9.16699 13.7916 9.16699 13.3333V9.99996C9.16699 9.54163 9.54199 9.16663 10.0003 9.16663C10.4587 9.16663 10.8337 9.54163 10.8337 9.99996V13.3333C10.8337 13.7916 10.4587 14.1666 10.0003 14.1666ZM10.8337 7.49996H9.16699V5.83329H10.8337V7.49996Z" fill="#AFC3D1"/>
</g>
</svg>
