<svg width="16" height="16" viewBox="0 0 16 16" fill="none" xmlns="http://www.w3.org/2000/svg">
<path d="M3.52334 11.8382C2.90803 10.9333 3.09934 9.69755 3.87495 8.92195L5.38996 7.40693C5.65884 7.13806 5.65884 6.69338 5.38996 6.4245C5.12109 6.15562 4.67641 6.15562 4.40753 6.4245L2.94422 7.88781C1.59467 9.23736 1.3775 11.4297 2.59262 12.9034C3.98353 14.5942 6.49132 14.6821 8.00116 13.1723L9.57823 11.5952C9.8471 11.3263 9.8471 10.8816 9.57823 10.6128C9.30935 10.3439 8.86467 10.3439 8.5958 10.6128L7.01873 12.1898C6.03113 13.1774 4.35065 13.0585 3.52334 11.8382ZM6.96703 10.0698L10.0694 6.96742C10.3538 6.68304 10.3538 6.21767 10.0694 5.93328C9.78506 5.6489 9.31969 5.6489 9.0353 5.93328L5.93289 9.0357C5.6485 9.32009 5.6485 9.78545 5.93289 10.0698C6.21727 10.3542 6.68264 10.3542 6.96703 10.0698ZM7.88741 2.94462L6.4241 4.40793C6.15523 4.67681 6.15523 5.12149 6.4241 5.39036C6.69298 5.65924 7.13766 5.65924 7.40653 5.39036L8.92155 3.87535C9.69715 3.09974 10.933 2.90843 11.8378 3.52374C13.0581 4.35105 13.177 6.03153 12.1894 7.01913L10.6124 8.59619C10.3435 8.86507 10.3435 9.30975 10.6124 9.57863C10.8812 9.8475 11.3259 9.8475 11.5948 9.57863L13.1719 8.00156C14.6817 6.49172 14.5938 3.98393 12.9082 2.58784C11.4345 1.37273 9.23696 1.59507 7.88741 2.94462Z" fill="#139BE8"/>
</svg>
