<svg width="20" height="20" viewBox="0 0 20 20" fill="none" xmlns="http://www.w3.org/2000/svg">
<path d="M9.99967 1.6665C6.49967 1.6665 3.33301 4.34984 3.33301 8.49984C3.33301 11.1498 5.37467 14.2665 9.44967 17.8582C9.76634 18.1332 10.2413 18.1332 10.558 17.8582C14.6247 14.2665 16.6663 11.1498 16.6663 8.49984C16.6663 4.34984 13.4997 1.6665 9.99967 1.6665ZM9.99967 9.99984C9.08301 9.99984 8.33301 9.24984 8.33301 8.33317C8.33301 7.4165 9.08301 6.6665 9.99967 6.6665C10.9163 6.6665 11.6663 7.4165 11.6663 8.33317C11.6663 9.24984 10.9163 9.99984 9.99967 9.99984Z" fill="#949DA5"/>
</svg>
