<svg width="16" height="16" viewBox="0 0 16 16" fill="none" xmlns="http://www.w3.org/2000/svg">
<path d="M7.99935 1.33301C5.19935 1.33301 2.66602 3.47967 2.66602 6.79967C2.66602 8.91967 4.29935 11.413 7.55935 14.2863C7.81268 14.5063 8.19268 14.5063 8.44602 14.2863C11.6993 11.413 13.3327 8.91967 13.3327 6.79967C13.3327 3.47967 10.7993 1.33301 7.99935 1.33301ZM7.99935 7.99967C7.26602 7.99967 6.66602 7.39967 6.66602 6.66634C6.66602 5.93301 7.26602 5.33301 7.99935 5.33301C8.73268 5.33301 9.33268 5.93301 9.33268 6.66634C9.33268 7.39967 8.73268 7.99967 7.99935 7.99967Z" fill="currentColor"/>
</svg>
