<svg width="16" height="16" viewBox="0 0 16 16" fill="none" xmlns="http://www.w3.org/2000/svg">
    <path d="M6.86666 5.13333C6.60666 5.39333 6.60666 5.80667 6.86666 6.06667L8.13333 7.33333H1.99999C1.63333 7.33333 1.33333 7.63333 1.33333 8C1.33333 8.36667 1.63333 8.66667 1.99999 8.66667H8.13333L6.86666 9.93333C6.60666 10.1933 6.60666 10.6067 6.86666 10.8667C7.12666 11.1267 7.53999 11.1267 7.79999 10.8667L10.1933 8.47333C10.4533 8.21333 10.4533 7.79333 10.1933 7.53333L7.79999 5.13333C7.53999 4.87333 7.12666 4.87333 6.86666 5.13333ZM13.3333 12.6667H8.66666C8.29999 12.6667 8 12.9667 8 13.3333C8 13.7 8.29999 14 8.66666 14H13.3333C14.0667 14 14.6667 13.4 14.6667 12.6667V3.33333C14.6667 2.6 14.0667 2 13.3333 2H8.66666C8.29999 2 8 2.3 8 2.66667C8 3.03333 8.29999 3.33333 8.66666 3.33333H13.3333V12.6667Z" fill="white"/>
</svg>