<svg width="20" height="20" viewBox="0 0 20 20" fill="none" xmlns="http://www.w3.org/2000/svg">
<path d="M16.667 3.33325H3.33366C2.41699 3.33325 1.67533 4.08325 1.67533 4.99992L1.66699 14.9999C1.66699 15.9166 2.41699 16.6666 3.33366 16.6666H16.667C17.5837 16.6666 18.3337 15.9166 18.3337 14.9999V4.99992C18.3337 4.08325 17.5837 3.33325 16.667 3.33325ZM15.8337 14.9999H4.16699C3.70866 14.9999 3.33366 14.6249 3.33366 14.1666V6.66659L9.11699 10.2833C9.65866 10.6249 10.342 10.6249 10.8837 10.2833L16.667 6.66659V14.1666C16.667 14.6249 16.292 14.9999 15.8337 14.9999ZM10.0003 9.16659L3.33366 4.99992H16.667L10.0003 9.16659Z" fill="black" fill-opacity="0.54"/>
</svg>
