<svg width="16" height="16" viewBox="0 0 16 16" fill="none" xmlns="http://www.w3.org/2000/svg">
<path d="M12.2005 3.80616C11.9405 3.54616 11.5205 3.54616 11.2605 3.80616L8.00047 7.05949L4.74047 3.79949C4.48047 3.53949 4.06047 3.53949 3.80047 3.79949C3.54047 4.05949 3.54047 4.47949 3.80047 4.73949L7.06047 7.99949L3.80047 11.2595C3.54047 11.5195 3.54047 11.9395 3.80047 12.1995C4.06047 12.4595 4.48047 12.4595 4.74047 12.1995L8.00047 8.93949L11.2605 12.1995C11.5205 12.4595 11.9405 12.4595 12.2005 12.1995C12.4605 11.9395 12.4605 11.5195 12.2005 11.2595L8.94047 7.99949L12.2005 4.73949C12.4538 4.48616 12.4538 4.05949 12.2005 3.80616Z" fill="#FF735D"/>
</svg>
