<svg width="32" height="32" viewBox="0 0 32 32" fill="none" xmlns="http://www.w3.org/2000/svg">
<path d="M20.2005 11.8066C19.9405 11.5466 19.5205 11.5466 19.2605 11.8066L16.0005 15.06L12.7405 11.8C12.4805 11.54 12.0605 11.54 11.8005 11.8C11.5405 12.06 11.5405 12.48 11.8005 12.74L15.0605 16L11.8005 19.26C11.5405 19.52 11.5405 19.94 11.8005 20.2C12.0605 20.46 12.4805 20.46 12.7405 20.2L16.0005 16.94L19.2605 20.2C19.5205 20.46 19.9405 20.46 20.2005 20.2C20.4605 19.94 20.4605 19.52 20.2005 19.26L16.9405 16L20.2005 12.74C20.4538 12.4866 20.4538 12.06 20.2005 11.8066Z" fill="#FF735D"/>
</svg>
