<svg width="40" height="40" viewBox="0 0 40 40" fill="none" xmlns="http://www.w3.org/2000/svg">
<g id="QuestionMarkRounded">
<path id="Vector" d="M13.1994 12.5667C11.866 12 11.2994 10.35 12.0994 9.15C13.716 6.75 16.416 5 19.9827 5C23.8994 5 26.5827 6.78333 27.9494 9.01667C29.116 10.9333 29.7994 14.5167 27.9994 17.1833C25.9994 20.1333 24.0827 21.0333 23.0494 22.9333C22.7994 23.3833 22.6494 23.75 22.5494 24.5C22.3994 25.7167 21.3994 26.6667 20.166 26.6667C18.716 26.6667 17.5327 25.4167 17.6994 23.9667C17.7994 23.1167 17.9994 22.2333 18.466 21.4C19.7494 19.0833 22.216 17.7167 23.6494 15.6667C25.166 13.5167 24.316 9.5 20.016 9.5C18.066 9.5 16.7994 10.5167 16.016 11.7333C15.4327 12.6833 14.216 12.9833 13.1994 12.5667ZM23.3327 33.3333C23.3327 35.1667 21.8327 36.6667 19.9994 36.6667C18.166 36.6667 16.666 35.1667 16.666 33.3333C16.666 31.5 18.166 30 19.9994 30C21.8327 30 23.3327 31.5 23.3327 33.3333Z" stroke="white"/>
</g>
</svg>
