<svg width="20" height="20" viewBox="0 0 20 20" fill="none" xmlns="http://www.w3.org/2000/svg">
    <path d="M10 3.33337C5.83334 3.33337 2.27501 5.92504 0.833344 9.58337C2.27501 13.2417 5.83334 15.8334 10 15.8334C14.1667 15.8334 17.725 13.2417 19.1667 9.58337C17.725 5.92504 14.1667 3.33337 10 3.33337ZM10 13.75C7.70001 13.75 5.83334 11.8834 5.83334 9.58337C5.83334 7.28337 7.70001 5.41671 10 5.41671C12.3 5.41671 14.1667 7.28337 14.1667 9.58337C14.1667 11.8834 12.3 13.75 10 13.75ZM10 7.08337C8.61668 7.08337 7.50001 8.20004 7.50001 9.58337C7.50001 10.9667 8.61668 12.0834 10 12.0834C11.3833 12.0834 12.5 10.9667 12.5 9.58337C12.5 8.20004 11.3833 7.08337 10 7.08337Z" fill="#949DA5"/>
</svg>
