<svg width="20" height="20" viewBox="0 0 20 20" fill="none" xmlns="http://www.w3.org/2000/svg">
    <path d="M10 5.41637C12.3 5.41637 14.1667 7.28303 14.1667 9.58303C14.1667 10.008 14.0833 10.4164 13.9667 10.7997L16.5167 13.3497C17.675 12.3247 18.5917 11.0414 19.1667 9.5747C17.725 5.9247 14.1667 3.33303 10 3.33303C8.94168 3.33303 7.92501 3.4997 6.96668 3.80803L8.77501 5.61637C9.16668 5.4997 9.57501 5.41637 10 5.41637ZM2.25834 2.63303C1.93334 2.95803 1.93334 3.48303 2.25834 3.80803L3.90001 5.4497C2.55001 6.5247 1.47501 7.94137 0.833344 9.58303C2.27501 13.2414 5.83334 15.833 10 15.833C11.2667 15.833 12.475 15.583 13.5917 15.1497L15.8583 17.4164C16.1833 17.7414 16.7083 17.7414 17.0333 17.4164C17.3583 17.0914 17.3583 16.5664 17.0333 16.2414L3.44168 2.63303C3.11668 2.30803 2.58334 2.30803 2.25834 2.63303ZM10 13.7497C7.70001 13.7497 5.83334 11.883 5.83334 9.58303C5.83334 8.94137 5.98334 8.33303 6.24168 7.7997L7.55001 9.10803C7.52501 9.25803 7.50001 9.41637 7.50001 9.58303C7.50001 10.9664 8.61668 12.083 10 12.083C10.1667 12.083 10.3167 12.058 10.475 12.0247L11.7833 13.333C11.2417 13.5997 10.6417 13.7497 10 13.7497ZM12.475 9.30803C12.35 8.14137 11.4333 7.23303 10.275 7.10803L12.475 9.30803Z" fill="#949DA5"/>
</svg>
