<svg width="20" height="20" viewBox="0 0 20 20" fill="none" xmlns="http://www.w3.org/2000/svg">
<path d="M9.99986 4.16726V1.84226C9.99986 1.46726 9.54986 1.28393 9.29153 1.5506L6.12486 4.70893C5.95819 4.87559 5.95819 5.13393 6.12486 5.3006L9.28319 8.45893C9.54986 8.71726 9.99986 8.53393 9.99986 8.15893V5.83393C13.1082 5.83393 15.5665 8.68393 14.8832 11.9089C14.4915 13.8006 12.9582 15.3256 11.0749 15.7173C8.09986 16.3423 5.44986 14.3006 5.04986 11.5423C4.99153 11.1423 4.64153 10.8339 4.23319 10.8339C3.73319 10.8339 3.33319 11.2756 3.39986 11.7756C3.91653 15.4339 7.39986 18.1423 11.3415 17.3756C13.9415 16.8673 16.0332 14.7756 16.5415 12.1756C17.3665 7.90059 14.1165 4.16726 9.99986 4.16726Z" fill="#139BE8"/>
</svg>
