<svg width="17" height="16" viewBox="0 0 17 16" fill="none" xmlns="http://www.w3.org/2000/svg">
<path d="M11.1804 9.33375H10.6538L10.4671 9.15375C11.2671 8.22042 11.6804 6.94708 11.4538 5.59375C11.1404 3.74042 9.59376 2.26042 7.7271 2.03375C4.9071 1.68708 2.53376 4.06042 2.88043 6.88042C3.1071 8.74708 4.5871 10.2938 6.44043 10.6071C7.79376 10.8338 9.0671 10.4204 10.0004 9.62042L10.1804 9.80708V10.3338L13.0138 13.1671C13.2871 13.4404 13.7338 13.4404 14.0071 13.1671C14.2804 12.8938 14.2804 12.4471 14.0071 12.1738L11.1804 9.33375ZM7.18043 9.33375C5.52043 9.33375 4.18043 7.99375 4.18043 6.33375C4.18043 4.67375 5.52043 3.33375 7.18043 3.33375C8.84043 3.33375 10.1804 4.67375 10.1804 6.33375C10.1804 7.99375 8.84043 9.33375 7.18043 9.33375Z" fill="#949EA5"/>
</svg>
