<svg width="40" height="40" viewBox="0 0 40 40" fill="none" xmlns="http://www.w3.org/2000/svg">
<g id="SearchRounded">
<path id="Vector" d="M25.8334 23.3344H24.5167L24.0501 22.8844C26.0501 20.551 27.0834 17.3677 26.5167 13.9844C25.7334 9.35104 21.8667 5.65104 17.2001 5.08438C10.1501 4.21771 4.21673 10.151 5.0834 17.201C5.65007 21.8677 9.35007 25.7344 13.9834 26.5177C17.3667 27.0844 20.5501 26.051 22.8834 24.051L23.3334 24.5177V25.8344L30.4167 32.9177C31.1001 33.601 32.2167 33.601 32.9001 32.9177C33.5834 32.2344 33.5834 31.1177 32.9001 30.4344L25.8334 23.3344ZM15.8334 23.3344C11.6834 23.3344 8.3334 19.9844 8.3334 15.8344C8.3334 11.6844 11.6834 8.33438 15.8334 8.33438C19.9834 8.33438 23.3334 11.6844 23.3334 15.8344C23.3334 19.9844 19.9834 23.3344 15.8334 23.3344Z" stroke="white"/>
</g>
</svg>
