<svg width="102" height="26" viewBox="0 0 102 26" fill="none" xmlns="http://www.w3.org/2000/svg">
<g id="&#208;&#155;&#208;&#190;&#208;&#179;&#208;&#190;">
<g id="Group">
<path id="Vector" d="M6.03417 5.85742C6.80258 5.85742 7.571 5.93657 8.25403 6.09486C8.93707 6.25316 9.66279 6.53018 10.4312 6.88634V9.65651C9.70548 9.2212 8.93707 8.90461 8.12596 8.62759C7.31486 8.35057 6.58913 8.23185 5.94879 8.23185C5.39382 8.23185 4.96693 8.311 4.6681 8.50887C4.36927 8.70674 4.19851 8.98375 4.19851 9.30034C4.19851 9.49821 4.32658 9.69608 4.58272 9.89395C4.83886 10.0918 5.52189 10.448 6.67451 11.002C8.29672 11.7539 9.44934 12.4663 10.0897 13.0994C10.73 13.7326 11.0715 14.5241 11.0715 15.4343C11.0715 16.7007 10.602 17.69 9.6201 18.4419C8.68093 19.1542 7.35755 19.55 5.73534 19.55C4.71079 19.55 3.77162 19.4312 2.87514 19.2334C1.97865 19.0355 1.25293 18.7585 0.697963 18.4815V15.5926C2.619 16.5819 4.15582 17.0172 5.39382 17.0172C6.03417 17.0172 6.54644 16.8985 6.93065 16.7007C7.31486 16.5028 7.52831 16.2258 7.52831 15.8696C7.52831 15.6717 7.44293 15.4739 7.31486 15.3156C7.18679 15.1573 6.97334 14.9594 6.67451 14.8011C6.37569 14.6032 5.4792 14.2075 3.98507 13.4952C2.83245 12.9807 1.97865 12.4267 1.42369 11.8331C0.911411 11.2395 0.655273 10.5271 0.655273 9.69608C0.655273 8.50887 1.16755 7.59867 2.14941 6.88634C3.13127 6.21359 4.41196 5.85742 6.03417 5.85742Z" fill="black"/>
<path id="Vector_2" d="M19.9085 5.85742C22.0003 5.85742 23.6652 6.4906 24.9032 7.71739C26.1412 8.94418 26.7388 10.6854 26.7388 12.862V13.3764H16.6214C16.7921 14.5637 17.2617 15.4739 18.0301 16.107C18.8412 16.7402 19.9085 17.0568 21.3172 17.0568C22.2137 17.0568 23.0675 16.8985 23.9213 16.6215C24.7324 16.3445 25.6289 15.9092 26.4827 15.3156V17.8879C24.8178 18.9959 22.7687 19.5104 20.4207 19.5104C18.1582 19.5104 16.3225 18.8772 14.9138 17.6108C13.505 16.3445 12.7793 14.6824 12.7793 12.585C12.7793 10.5667 13.4196 8.94418 14.743 7.67782C16.0664 6.41146 17.8167 5.85742 19.9085 5.85742ZM23.1956 11.3186C23.1102 10.3688 22.7687 9.61694 22.2564 9.0629C21.7441 8.50887 21.0184 8.23185 20.0792 8.23185C19.1401 8.23185 18.3716 8.50887 17.8167 9.02333C17.2617 9.53779 16.8775 10.2897 16.7067 11.3186H23.1956Z" fill="black"/>
<path id="Vector_3" d="M39.3321 6.53018C39.076 6.37188 38.8626 6.25316 38.6491 6.17401C38.1795 5.97614 37.6673 5.85742 37.155 5.85742C36.3439 5.85742 35.5755 6.13444 34.8924 6.72805C34.2094 7.28208 33.5264 8.23185 32.8433 9.49821H32.8006V6.13444H29.0439V19.3521H32.8006V13.2973C32.8006 12.6245 32.9714 11.9914 33.3129 11.3186C33.6544 10.6459 34.124 10.1314 34.679 9.73566C35.2339 9.33992 35.8316 9.14205 36.3866 9.14205C36.8561 9.14205 37.4538 9.33992 38.1368 9.73566L39.3321 6.53018Z" fill="black"/>
<path id="Vector_4" d="M63.6649 5.85742C65.2017 5.85742 66.397 6.33231 67.3362 7.24251C68.2327 8.1527 68.7023 9.37949 68.7023 10.9229V19.3125H64.9456V11.279C64.9456 10.4084 64.7321 9.73566 64.2625 9.26077C63.8356 8.74631 63.238 8.50887 62.4696 8.50887C61.8719 8.50887 61.3596 8.66716 60.8474 8.98375C60.3351 9.30034 59.7801 9.8148 59.1825 10.5667V19.3521H55.4258V6.09486H59.1825V7.95483C59.8655 7.20293 60.5912 6.6489 61.317 6.33231C62.0427 6.01572 62.8111 5.85742 63.6649 5.85742Z" fill="black"/>
<path id="Vector_5" d="M82.3626 2.6123H82.6614V6.13437H89.7479V8.78582H82.6614V14.8802C82.6614 15.4738 82.8748 15.9487 83.2591 16.3048C83.6433 16.661 84.1555 16.8589 84.8386 16.8589C85.6924 16.8589 86.7169 16.5819 87.8695 15.9883V18.7584C86.5035 19.3125 85.2655 19.5895 84.0702 19.5895C82.4479 19.5895 81.21 19.1937 80.3135 18.3627C79.417 17.5316 78.9474 16.4631 78.9474 15.0781V8.74625H76.7275V8.19221L82.3626 2.6123Z" fill="black"/>
<path id="Vector_6" d="M91.1571 6.09473L94.5296 13.218L97.9447 6.09473H102L92.1389 26.0004H88.1261L92.6512 16.8984L87.1016 6.09473H91.1571Z" fill="black"/>
<path id="Vector_7" d="M46.7173 5.85742C48.8091 5.85742 50.474 6.4906 51.712 7.71739C52.95 8.94418 53.5477 10.6854 53.5477 12.862V13.3764H43.4729C43.6437 14.5637 44.1133 15.4739 44.8817 16.107C45.6928 16.7402 46.76 17.0568 48.1688 17.0568C49.0653 17.0568 49.9191 16.8985 50.7729 16.6215C51.584 16.3445 52.4804 15.9092 53.3342 15.3156V17.8879C51.6693 18.9959 49.6202 19.5104 47.2723 19.5104C45.0098 19.5104 43.1741 18.8772 41.7653 17.6108C40.3566 16.3445 39.6309 14.6824 39.6309 12.585C39.6309 10.5667 40.2712 8.94418 41.5946 7.67782C42.918 6.41146 44.6255 5.85742 46.7173 5.85742ZM50.0044 11.3186C49.9191 10.3688 49.5775 9.61694 49.0653 9.0629C48.553 8.50887 47.8273 8.23185 46.8881 8.23185C45.9489 8.23185 45.1805 8.50887 44.6255 9.02333C44.0706 9.53779 43.6864 10.2897 43.5156 11.3186H50.0044Z" fill="black"/>
<path id="Vector_8" d="M73.0146 0C73.6123 0 74.0819 0.197869 74.5088 0.593607C74.9357 0.989346 75.1491 1.42466 75.1491 1.97869C75.1491 2.49315 74.9357 2.96804 74.5515 3.36377C74.1246 3.75951 73.655 3.95738 73.0573 3.95738C72.5024 3.95738 71.9901 3.75951 71.5632 3.36377C71.1363 2.96804 70.9229 2.49315 70.9229 1.97869C70.9229 1.42466 71.1363 0.949772 71.5632 0.593607C71.9901 0.197869 72.4597 0 73.0146 0ZM74.893 19.312H71.1363V6.09437H74.893V19.312Z" fill="black"/>
</g>
</g>
</svg>
