<svg width="17" height="16" viewBox="0 0 17 16" fill="none" xmlns="http://www.w3.org/2000/svg">
<path d="M5.16699 12.0007C4.43366 12.0007 3.84033 12.6007 3.84033 13.334C3.84033 14.0673 4.43366 14.6673 5.16699 14.6673C5.90033 14.6673 6.50033 14.0673 6.50033 13.334C6.50033 12.6007 5.90033 12.0007 5.16699 12.0007ZM1.16699 2.00065C1.16699 2.36732 1.46699 2.66732 1.83366 2.66732H2.50033L4.90033 7.72732L4.00033 9.35398C3.51366 10.2473 4.15366 11.334 5.16699 11.334H12.5003C12.867 11.334 13.167 11.034 13.167 10.6673C13.167 10.3007 12.867 10.0007 12.5003 10.0007H5.16699L5.90033 8.66732H10.867C11.367 8.66732 11.807 8.39398 12.0337 7.98065L14.4203 3.65398C14.667 3.21398 14.347 2.66732 13.8403 2.66732H3.97366L3.52699 1.71398C3.42033 1.48065 3.18033 1.33398 2.92699 1.33398H1.83366C1.46699 1.33398 1.16699 1.63398 1.16699 2.00065ZM11.8337 12.0007C11.1003 12.0007 10.507 12.6007 10.507 13.334C10.507 14.0673 11.1003 14.6673 11.8337 14.6673C12.567 14.6673 13.167 14.0673 13.167 13.334C13.167 12.6007 12.567 12.0007 11.8337 12.0007Z" fill="currentColor"/>
</svg>
