<svg width="17" height="16" viewBox="0 0 17 16" fill="none" xmlns="http://www.w3.org/2000/svg">
<g id="ShoppingCartRounded">
<path id="Vector" d="M5.16699 12C4.43366 12 3.84033 12.6 3.84033 13.3334C3.84033 14.0667 4.43366 14.6667 5.16699 14.6667C5.90033 14.6667 6.50033 14.0667 6.50033 13.3334C6.50033 12.6 5.90033 12 5.16699 12ZM1.16699 2.00004C1.16699 2.36671 1.46699 2.66671 1.83366 2.66671H2.50033L4.90033 7.72671L4.00033 9.35337C3.51366 10.2467 4.15366 11.3334 5.16699 11.3334H12.5003C12.867 11.3334 13.167 11.0334 13.167 10.6667C13.167 10.3 12.867 10 12.5003 10H5.16699L5.90033 8.66671H10.867C11.367 8.66671 11.807 8.39337 12.0337 7.98004L14.4203 3.65337C14.667 3.21337 14.347 2.66671 13.8403 2.66671H3.97366L3.52699 1.71337C3.42033 1.48004 3.18033 1.33337 2.92699 1.33337H1.83366C1.46699 1.33337 1.16699 1.63337 1.16699 2.00004ZM11.8337 12C11.1003 12 10.507 12.6 10.507 13.3334C10.507 14.0667 11.1003 14.6667 11.8337 14.6667C12.567 14.6667 13.167 14.0667 13.167 13.3334C13.167 12.6 12.567 12 11.8337 12Z" fill="#139BE8"/>
</g>
</svg>
