<svg width="44" height="44" viewBox="0 0 44 44" fill="none" xmlns="http://www.w3.org/2000/svg">
    <path d="M40.334 22.3434C40.334 20.8398 40.2091 19.7425 39.9388 18.6046H22.3662V25.3913H32.6809C32.4731 27.0779 31.3501 29.6179 28.8545 31.3247L28.8195 31.5519L34.3757 35.7576L34.7606 35.7951C38.2959 32.6049 40.334 27.911 40.334 22.3434Z" fill="#4285F4"/>
    <path d="M22.3655 40.2241C27.4189 40.2241 31.6612 38.5984 34.7599 35.7944L28.8538 31.3239C27.2734 32.4009 25.1521 33.1527 22.3655 33.1527C17.4161 33.1527 13.2154 29.9626 11.7179 25.5532L11.4984 25.5714L5.72106 29.9402L5.64551 30.1454C8.72328 36.1194 15.0453 40.2241 22.3655 40.2241Z" fill="#34A853"/>
    <path d="M11.7182 25.5539C11.3231 24.416 11.0944 23.1968 11.0944 21.937C11.0944 20.6771 11.3231 19.458 11.6974 18.3201L11.6869 18.0777L5.83718 13.6388L5.64578 13.7277C4.37728 16.2068 3.64941 18.9906 3.64941 21.937C3.64941 24.8834 4.37728 27.6671 5.64578 30.1461L11.7182 25.5539Z" fill="#FBBC05"/>
    <path d="M22.3655 10.72C25.88 10.72 28.2507 12.2034 29.6025 13.443L34.8847 8.40363C31.6406 5.45727 27.4189 3.6488 22.3655 3.6488C15.0453 3.6488 8.72328 7.75336 5.64551 13.7273L11.6971 18.3197C13.2154 13.9103 17.4161 10.72 22.3655 10.72Z" fill="#EB4335"/>
</svg>