<svg width="44" height="44" viewBox="0 0 44 44" fill="none" xmlns="http://www.w3.org/2000/svg">
<rect x="9.16699" y="11" width="25.6667" height="22" fill="white"/>
<path d="M18.1641 3.67121L19.2778 3.66663H24.7228L25.8381 3.67121L27.2345 3.68649L27.896 3.69718L28.5346 3.71399L29.1503 3.73538L29.7431 3.75982L30.3145 3.79191L30.8645 3.83011L31.3916 3.87594L31.9003 3.92636C34.5587 4.22582 36.3813 4.86751 37.7563 6.24257C39.1313 7.61762 39.773 9.43881 40.0724 12.0988L40.1244 12.6076L40.1687 13.1362L40.2069 13.6862L40.2374 14.2561L40.2756 15.1545L40.2939 15.7809L40.3138 16.7648L40.3275 18.1628L40.3337 19.6601L40.3321 24.7218L40.3275 25.8371L40.3123 27.2336L40.3016 27.8951L40.2848 28.5338L40.2634 29.1495L40.2389 29.7423L40.2069 30.3137L40.1687 30.8637L40.1228 31.3908L40.0724 31.8996C39.773 34.5581 39.1313 36.3808 37.7563 37.7558C36.3813 39.1309 34.5602 39.7726 31.9003 40.072L31.3916 40.124L30.863 40.1683L30.313 40.2065L29.7431 40.237L28.8448 40.2752L28.2184 40.2936L27.2345 40.3134L25.8366 40.3272L24.3394 40.3333L19.2778 40.3318L18.1625 40.3272L16.7662 40.3119L16.1046 40.3012L15.466 40.2844L14.8503 40.263L14.2575 40.2386L13.6862 40.2065L13.1362 40.1683L12.6091 40.1225L12.1003 40.072C9.44199 39.7726 7.61935 39.1309 6.24435 37.7558C4.86935 36.3808 4.22769 34.5596 3.92824 31.8996L3.8763 31.3908L3.83199 30.8622L3.7938 30.3122L3.76324 29.7423L3.72505 28.8439L3.70671 28.2175L3.68685 27.2336L3.6731 25.8356L3.66699 24.3383L3.66852 19.2766L3.6731 18.1613L3.68838 16.7648L3.69908 16.1033L3.71588 15.4646L3.73727 14.8489L3.76171 14.2561L3.7938 13.6847L3.83199 13.1347L3.87783 12.6076L3.92824 12.0988C4.22769 9.44034 4.86935 7.61762 6.24435 6.24257C7.61935 4.86751 9.44046 4.22582 12.1003 3.92636L12.6091 3.87441L13.1377 3.83011L13.6877 3.79191L14.2575 3.76135L15.1559 3.72316L15.7823 3.70482L16.7662 3.68496L18.1641 3.67121ZM14.0406 14.8183H9.85449C10.0531 24.3521 14.8198 30.0815 23.1767 30.0815H23.6503V24.6271C26.7212 24.9327 29.0434 27.1786 29.9753 30.0815H34.3142C33.1225 25.7424 29.9906 23.3437 28.035 22.427C29.9906 21.2964 32.7406 18.5463 33.3975 14.8183H29.4559C28.6003 17.8435 26.0642 20.5936 23.6503 20.8533V14.8183H19.7087V25.391C17.2642 24.7799 14.1781 21.8159 14.0406 14.8183Z" fill="#0077FF"/>
</svg>
