<svg width="20" height="20" viewBox="0 0 20 20" fill="none" xmlns="http://www.w3.org/2000/svg">
<path d="M5.84102 7.49935H14.1743V11.666H5.84102V7.49935ZM14.8327 2.33268C13.3327 1.74102 11.5493 1.66602 9.99935 1.66602C8.44935 1.66602 6.66602 1.74102 5.16602 2.33268C2.94102 3.19935 1.66602 5.04102 1.66602 7.38268V18.3327H18.3327V7.38268C18.3327 5.04102 17.0577 3.19935 14.8327 2.33268ZM14.9993 12.916C14.9993 14.1993 14.0327 15.241 12.791 15.3827L13.7493 16.3494V16.666H12.3577L11.1077 15.416H8.89102L7.64102 16.666H6.24935V16.3494L7.20768 15.3827C5.96602 15.241 4.99935 14.1993 4.99935 12.916V7.49935C4.99935 5.30768 7.49935 4.99935 9.99935 4.99935C12.4993 4.99935 14.9993 5.30768 14.9993 7.49935V12.916Z" fill="#949DA5"/>
<path d="M12.916 14.166C13.3763 14.166 13.7493 13.7929 13.7493 13.3327C13.7493 12.8724 13.3763 12.4993 12.916 12.4993C12.4558 12.4993 12.0827 12.8724 12.0827 13.3327C12.0827 13.7929 12.4558 14.166 12.916 14.166Z" fill="#949DA5"/>
<path d="M7.08268 14.166C7.54292 14.166 7.91602 13.7929 7.91602 13.3327C7.91602 12.8724 7.54292 12.4993 7.08268 12.4993C6.62245 12.4993 6.24935 12.8724 6.24935 13.3327C6.24935 13.7929 6.62245 14.166 7.08268 14.166Z" fill="#949DA5"/>
</svg>
