<svg width="20" height="21" viewBox="0 0 20 21" fill="none" xmlns="http://www.w3.org/2000/svg">
<path d="M19.1673 10.5L17.134 8.175L17.4173 5.1L14.409 4.41667L12.834 1.75L10.0007 2.96667L7.16732 1.75L5.59232 4.40833L2.58398 5.08333L2.86732 8.16667L0.833984 10.5L2.86732 12.825L2.58398 15.9083L5.59232 16.5917L7.16732 19.25L10.0007 18.025L12.834 19.2417L14.409 16.5833L17.4173 15.9L17.134 12.825L19.1673 10.5ZM7.81732 13.8417L5.83398 11.8417C5.50898 11.5167 5.50898 10.9917 5.83398 10.6667L5.89232 10.6083C6.21732 10.2833 6.75065 10.2833 7.07565 10.6083L8.41732 11.9583L12.709 7.65833C13.034 7.33333 13.5673 7.33333 13.8923 7.65833L13.9506 7.71667C14.2756 8.04167 14.2756 8.56667 13.9506 8.89167L9.01732 13.8417C8.67565 14.1667 8.15065 14.1667 7.81732 13.8417Z" fill="#139BE8"/>
</svg>
