<svg width="419" height="262" viewBox="0 0 419 262" fill="none" xmlns="http://www.w3.org/2000/svg">
<path d="M622.441 116.174H37.6348V201.984H622.441V116.174Z" fill="#8969D3" stroke="black" stroke-width="1.25698" stroke-miterlimit="10"/>
<g opacity="0.5">
<path d="M622.441 116.174H37.6348V201.984H622.441V116.174Z" fill="black" stroke="black" stroke-width="1.25698" stroke-miterlimit="10"/>
</g>
<path d="M120 257.664C151.074 255.573 174.569 228.688 172.478 197.614C170.387 166.54 143.501 143.045 112.427 145.136C81.3534 147.227 57.8583 174.113 59.9495 205.187C62.0406 236.26 88.9262 259.756 120 257.664Z" fill="#263238" stroke="black" stroke-width="1.25698" stroke-miterlimit="10"/>
<path d="M59.844 200.446C59.844 200.446 59.844 200.541 59.844 200.593C59.3907 231.73 84.2768 257.343 115.413 257.786C146.55 258.239 172.163 233.353 172.616 202.217C172.616 202.164 172.616 202.122 172.616 202.069L59.8651 200.446H59.844Z" fill="#263238" stroke="black" stroke-width="1.25698" stroke-miterlimit="10"/>
<path d="M76.6341 200.836C76.3179 222.697 93.7834 240.679 115.644 240.995C137.505 241.311 155.487 223.846 155.804 201.985C156.12 180.124 138.654 162.142 116.793 161.826C94.9324 161.509 76.9503 178.975 76.6341 200.836Z" fill="#FAFAFA" stroke="black" stroke-width="1.25698" stroke-miterlimit="10"/>
<path d="M116.783 161.825C94.9223 161.509 76.9402 178.975 76.624 200.836L155.793 201.974C156.11 180.113 138.644 162.131 116.783 161.815V161.825Z" fill="#E0E0E0" stroke="black" stroke-width="1.25698" stroke-miterlimit="10"/>
<path d="M92.108 201.057C91.9182 214.37 102.554 225.322 115.877 225.522C129.189 225.712 140.151 215.076 140.341 201.753C140.531 188.44 129.896 177.478 116.572 177.289C103.26 177.099 92.3082 187.734 92.108 201.057Z" fill="#263238" stroke="black" stroke-width="1.25698" stroke-miterlimit="10"/>
<path d="M190.135 67.8992C190.135 67.8992 107.098 74.0232 76.3193 80.9272C54.6271 85.7969 12.8025 94.1871 13.3084 120.507L16.6287 139.364C16.6287 139.364 1.1131 146.447 1.1131 164.534C1.1131 182.622 -2.67092 210.67 33.5356 211.787C39.5015 211.977 50.843 211.787 50.843 211.787C50.843 211.787 43.8863 134.662 114.75 132.396C186.836 130.098 182.051 211.081 182.051 211.081H482.897C482.897 211.081 470.554 132.185 548.153 132.08C625.752 131.964 613.946 211.597 613.946 211.597C613.946 211.597 642.49 214.064 655.771 190.074C669.052 166.084 665.595 149.008 665.595 149.008L665.152 133.84C665.004 128.676 660.873 124.512 655.718 124.312C655.718 124.312 660.904 86.1236 652.946 79.5148C644.988 72.9059 601.382 33.0419 601.382 33.0419L603.459 31.7348C606.937 29.553 606.336 24.3038 602.447 22.9652C585.888 17.2733 553.149 6.00555 545.454 3.31774C544.295 2.9172 543.104 2.66422 541.881 2.56936C537.286 2.22152 524.289 1.38883 500.415 1.13585C471.334 0.830181 355.874 1.13585 355.874 1.13585C355.874 1.13585 316.136 4.4034 294.001 14.1533C270.728 24.3987 190.146 67.8992 190.146 67.8992H190.135Z" fill="#8969D3" stroke="black" stroke-width="1.25698" stroke-miterlimit="10"/>
<g opacity="0.4">
<path d="M22.1614 162.437C19.1468 161.825 14.5301 161.762 12.2323 163.807C10.5247 165.325 10.0715 167.77 9.8185 170.047C9.46012 173.156 9.28094 176.35 10.0293 179.396C10.7671 182.442 12.5485 185.352 15.2995 186.848C18.0506 188.345 21.8346 188.103 23.9743 185.815C25.9349 183.728 26.1562 180.587 26.1035 177.72C26.0297 173.652 26.3565 170.205 25.6081 166.21C25.4606 165.451 25.06 164.481 24.5752 163.891C23.7741 162.921 23.1627 162.51 22.1719 162.447" fill="black"/>
<path d="M22.1614 162.437C19.1468 161.825 14.5301 161.762 12.2323 163.807C10.5247 165.325 10.0715 167.77 9.8185 170.047C9.46012 173.156 9.28094 176.35 10.0293 179.396C10.7671 182.442 12.5485 185.352 15.2995 186.848C18.0506 188.345 21.8346 188.103 23.9743 185.815C25.9349 183.728 26.1562 180.587 26.1035 177.72C26.0297 173.652 26.3565 170.205 25.6081 166.21C25.4606 165.451 25.06 164.481 24.5752 163.891C23.7741 162.921 23.1627 162.51 22.1719 162.447" stroke="black" stroke-width="1.25698" stroke-miterlimit="10"/>
</g>
<path d="M16.6288 139.364C25.4407 139.385 33.9995 138.879 42.7903 138.289C43.7389 138.225 44.7719 138.12 45.4676 137.477C46.3108 136.697 46.374 135.411 46.3846 134.262C46.4267 129.54 46.1948 124.164 42.6111 121.086C40.4187 119.21 37.4146 118.62 34.5476 118.346C27.475 117.682 20.0545 118.23 13.3086 120.486L16.6288 139.343V139.364Z" fill="#FAFAFA" stroke="black" stroke-width="1.25698" stroke-miterlimit="10"/>
<path d="M199.664 208.667C199.664 208.667 199.632 208.414 199.59 207.919C199.558 207.402 199.505 206.665 199.442 205.705C199.337 203.745 199.179 200.878 198.978 197.199C198.768 193.51 198.525 188.988 197.998 183.76C197.45 178.543 196.649 172.598 194.889 166.231C193.118 159.875 190.409 153.109 186.404 146.457C182.377 139.859 177.086 133.261 170.003 128.159C155.773 118.04 136.558 112.317 116.468 112.074C96.3143 111.832 77.1728 118.198 63.3121 128.813C56.3132 134.009 50.516 140.08 46.0574 146.426C41.5566 152.75 38.2679 159.254 35.9596 165.43C33.6196 171.607 32.3864 177.499 31.6907 182.685C30.9318 187.882 31.0477 192.424 31.1742 196.114C31.4588 199.792 31.7856 202.649 32.2072 204.546C32.3758 205.495 32.5129 206.222 32.5972 206.728C32.6815 207.223 32.7131 207.476 32.7131 207.476C32.7131 207.476 32.6499 207.234 32.5445 206.738C32.4391 206.232 32.2915 205.505 32.0912 204.567C31.638 202.67 31.2796 199.813 30.9529 196.124C30.7948 192.435 30.6472 187.871 31.3745 182.653C32.0491 177.436 33.2507 171.523 35.5801 165.304C37.8885 159.095 41.1666 152.539 45.6779 146.173C50.1471 139.785 55.9654 133.661 63.0064 128.423C76.9409 117.724 96.2089 111.294 116.478 111.537C136.684 111.79 155.984 117.545 170.308 127.759C177.455 132.924 182.767 139.585 186.804 146.226C190.82 152.919 193.529 159.738 195.279 166.126C197.028 172.535 197.798 178.5 198.314 183.729C198.82 188.967 199.031 193.489 199.2 197.189C199.358 200.878 199.474 203.734 199.558 205.705C199.6 206.665 199.632 207.402 199.653 207.919C199.674 208.414 199.664 208.678 199.664 208.678V208.667Z" fill="white" stroke="black" stroke-width="1.25698" stroke-miterlimit="10"/>
<path d="M202.858 209.974C202.858 209.974 202.837 209.763 202.826 209.341L202.763 207.476C202.71 205.821 202.636 203.376 202.542 200.192C202.362 193.805 202.088 184.445 201.751 172.555C201.424 160.655 201.034 146.204 200.581 129.655C200.465 125.513 200.349 121.244 200.233 116.849C200.086 114.656 200.318 112.411 200.518 110.156C200.676 109.028 200.834 107.9 201.003 106.762C201.235 105.634 201.466 104.506 201.698 103.357C202.763 98.8246 204.312 94.2817 206.389 89.8547C208.476 85.4382 210.953 81.0745 214.115 77.0269L214.136 76.9953L214.168 76.9742C230.263 66.8343 247.76 55.809 266.269 44.1512C270.896 41.2315 275.587 38.2802 280.341 35.2867C285 32.1245 290.038 29.4262 295.234 26.9702C300.441 24.5249 305.849 22.3851 311.404 20.5089C314.176 19.5392 317.011 18.7381 319.846 17.8949C322.713 17.1676 325.57 16.356 328.5 15.7657C339.715 13.2782 351.015 12.045 362.082 11.5285C373.16 11.012 384.027 11.0436 394.589 11.6339L394.895 11.655L394.831 11.9606C389.846 34.2643 385.145 55.303 380.834 74.5815V74.6237L380.802 74.6659C378.177 78.9875 376.08 83.5304 374.52 88.1155C373.023 92.7112 372.053 97.4333 372.391 102.039C372.749 106.667 372.876 111.199 372.991 115.584C373.076 119.979 373.16 124.248 373.244 128.38C373.487 144.929 373.55 159.359 373.592 171.259C373.603 183.148 373.613 192.487 373.624 198.875C373.613 202.058 373.603 204.493 373.592 206.158C373.592 206.98 373.582 207.592 373.571 208.024C373.571 208.445 373.55 208.656 373.55 208.656C373.55 208.656 373.54 208.445 373.529 208.024C373.529 207.592 373.518 206.97 373.508 206.158C373.508 204.503 373.487 202.058 373.466 198.875C373.424 192.487 373.371 183.138 373.308 171.259C373.223 159.369 373.118 144.929 372.844 128.391C372.76 124.259 372.665 119.99 372.57 115.595C372.443 111.199 372.306 106.688 371.948 102.071C371.6 97.3806 372.57 92.6058 374.077 87.9679C375.648 83.3407 377.735 78.7766 380.391 74.4024L380.359 74.4761C384.649 55.1871 389.34 34.1483 394.304 11.8447L394.547 12.1714C384.017 11.5812 373.15 11.5601 362.103 12.0766C351.057 12.5931 339.8 13.8263 328.616 16.3033C325.696 16.883 322.85 17.7052 319.994 18.4219C317.169 19.2652 314.344 20.0557 311.583 21.0254C306.049 22.8911 300.652 25.0203 295.466 27.4551C290.291 29.9005 285.274 32.5883 280.646 35.7188C275.893 38.7123 271.202 41.6637 266.575 44.5728C248.045 56.2201 230.537 67.2348 214.431 77.3537L214.484 77.301C211.364 81.2853 208.887 85.6385 206.81 90.0233C204.734 94.4187 203.195 98.93 202.13 103.431C199.759 112.464 200.95 121.381 200.971 129.634C201.382 146.183 201.74 160.634 202.036 172.534C202.32 184.424 202.542 193.784 202.689 200.171C202.752 203.354 202.805 205.8 202.847 207.455C202.858 208.277 202.868 208.899 202.879 209.32C202.879 209.742 202.879 209.953 202.879 209.953L202.858 209.974Z" fill="#263238" stroke="black" stroke-width="1.25698" stroke-miterlimit="10"/>
<path d="M394.22 13.426C394.22 13.426 394.389 13.405 394.715 13.3944C395.063 13.3839 395.538 13.3628 396.17 13.3417C397.467 13.3101 399.343 13.2679 401.767 13.2047C406.658 13.1098 413.731 12.9728 422.521 12.7936C440.155 12.4879 464.715 12.0769 492.489 11.6025H492.615L492.7 11.6974C495.841 15.5447 499.14 19.5922 502.502 23.703C512.431 35.8772 521.897 47.4823 530.498 58.0333C531.573 59.3509 532.638 60.6579 533.681 61.9438C534.714 63.2508 535.599 64.6738 536.295 66.1389C537.676 69.0902 538.382 72.2524 538.393 75.3091C538.424 78.3659 537.792 81.3172 536.696 83.9312C535.589 86.5136 534.524 88.9906 533.502 91.3622C529.423 100.796 526.124 108.438 523.826 113.75C522.677 116.375 521.791 118.42 521.169 119.822C520.864 120.496 520.632 121.023 520.463 121.392C520.305 121.75 520.21 121.919 520.21 121.919C520.21 121.919 520.274 121.729 520.411 121.371C520.569 120.992 520.779 120.464 521.064 119.779C521.654 118.356 522.519 116.301 523.625 113.666C525.881 108.343 529.128 100.68 533.143 91.2147C534.956 86.4504 538.15 81.4331 537.929 75.3197C537.908 72.3262 537.212 69.2378 535.852 66.3497C535.157 64.9162 534.303 63.5354 533.281 62.2495C532.226 60.9635 531.162 59.6671 530.087 58.3495C521.475 47.809 511.999 36.2145 502.06 24.0508C498.708 19.94 495.398 15.8925 492.257 12.0452L492.468 12.1401C464.694 12.5406 440.134 12.899 422.49 13.152C413.699 13.2574 406.626 13.3417 401.735 13.3944C399.322 13.4155 397.435 13.426 396.138 13.4366H394.684C394.357 13.4366 394.188 13.4155 394.188 13.4155L394.22 13.426Z" fill="#263238" stroke="black" stroke-width="1.25698" stroke-miterlimit="10"/>
<path d="M358.899 106.467C358.899 106.467 359.194 106.435 359.742 106.34C360.28 106.245 361.081 106.034 361.956 105.455C362.82 104.885 363.748 103.916 364.211 102.524C364.454 101.829 364.528 101.059 364.496 100.206C364.475 99.3834 364.264 98.5085 363.842 97.6969C362.999 96.0842 361.165 94.735 358.983 94.735C356.759 94.735 354.377 94.7456 351.879 94.7561C346.862 94.7561 341.37 94.7666 335.594 94.7772C334.213 94.7772 332.864 95.3147 331.884 96.2212C330.893 97.1277 330.26 98.382 330.123 99.668C329.986 100.996 330.166 102.293 330.798 103.389C331.409 104.485 332.4 105.318 333.496 105.781C334.603 106.277 335.805 106.203 337.006 106.214C338.187 106.214 339.346 106.214 340.453 106.224C342.677 106.235 344.743 106.245 346.651 106.256C350.393 106.287 353.449 106.319 355.621 106.34C356.643 106.361 357.455 106.382 358.056 106.393C358.614 106.414 358.909 106.424 358.909 106.445C358.909 106.467 358.614 106.488 358.056 106.498C357.444 106.509 356.633 106.53 355.621 106.551C353.449 106.572 350.393 106.604 346.651 106.635C344.754 106.635 342.677 106.656 340.453 106.667C339.336 106.667 338.187 106.667 337.006 106.677C336.406 106.677 335.826 106.698 335.183 106.667C334.55 106.625 333.907 106.488 333.307 106.235C332.105 105.729 331.019 104.833 330.345 103.631C329.649 102.44 329.449 100.975 329.596 99.5942C329.744 98.1712 330.44 96.7904 331.525 95.7996C332.611 94.7983 334.087 94.208 335.604 94.208C341.381 94.208 346.883 94.2185 351.889 94.2291C354.388 94.2396 356.77 94.2502 359.004 94.2607C361.355 94.2818 363.326 95.7575 364.19 97.4966C364.633 98.3715 364.844 99.299 364.844 100.174C364.865 101.028 364.77 101.881 364.496 102.598C363.979 104.063 362.978 105.054 362.072 105.613C361.144 106.182 360.311 106.361 359.753 106.424C359.194 106.488 358.899 106.435 358.899 106.435V106.467Z" fill="#263238" stroke="black" stroke-width="1.25698" stroke-miterlimit="10"/>
<path d="M218.246 77.1008L379.231 74.1389L484.003 72.2206L518.555 52.278C521.348 50.6653 522.096 46.9551 520.146 44.3832L498.644 16.1242C496.399 13.1729 492.92 11.4337 489.22 11.4021L372.032 10.4534C372.032 10.4534 327.899 7.8921 293.136 27.3603C256.54 47.851 218.246 77.1114 218.246 77.1114V77.1008Z" fill="#263238" stroke="black" stroke-width="1.25698" stroke-miterlimit="10"/>
<path d="M292.03 13.3628C292.03 13.3628 300.104 17.0414 294.844 20.4565C289.595 23.8611 208.033 75.288 208.033 75.288L189.281 66.803C222.494 48.2939 256.045 30.333 292.03 13.3733V13.3628Z" fill="#455A64" stroke="black" stroke-width="1.25698" stroke-miterlimit="10"/>
<path d="M210.668 76.5633C210.668 76.5633 210.5 76.616 210.163 76.6897L208.676 77.0165C207.348 77.2906 205.419 77.6911 202.953 78.197C197.978 79.1878 190.768 80.5792 181.83 82.1075C163.953 85.1854 139.12 88.7691 111.535 91.1618C104.642 91.7626 97.896 92.258 91.382 92.6796C84.868 93.1118 78.5859 93.5018 72.62 94.0499C60.6882 95.0934 49.9896 96.8326 41.3042 99.415C32.5978 101.913 25.9362 105.117 21.5619 107.647C19.3168 108.828 17.7252 109.987 16.5868 110.683C16.0387 111.031 15.6171 111.305 15.3009 111.494C15.0058 111.674 14.8477 111.758 14.8477 111.758C14.8477 111.758 14.9847 111.642 15.2587 111.452C15.5644 111.241 15.9755 110.957 16.5131 110.588C17.6303 109.861 19.2114 108.67 21.446 107.457C25.7992 104.864 32.4608 101.586 41.1883 99.0356C49.8947 96.3899 60.6144 94.6085 72.5673 93.544C78.5437 92.9853 84.8258 92.5742 91.3398 92.1421C97.8538 91.7099 104.589 91.2145 111.483 90.6137C139.057 88.2316 163.879 84.711 181.766 81.7281C190.715 80.2419 197.925 78.9138 202.921 77.9862C205.398 77.5225 207.327 77.1535 208.666 76.9006C209.309 76.7846 209.804 76.7003 210.163 76.6265C210.5 76.5738 210.679 76.5527 210.679 76.5527L210.668 76.5633Z" fill="#263238" stroke="black" stroke-width="1.25698" stroke-miterlimit="10"/>
<path d="M467.729 176.034C467.729 176.181 407.163 176.308 332.463 176.308C257.763 176.308 197.187 176.181 197.187 176.034C197.187 175.886 257.742 175.76 332.463 175.76C407.184 175.76 467.729 175.886 467.729 176.034Z" fill="#263238" stroke="black" stroke-width="1.25698" stroke-miterlimit="10"/>
<path d="M43.6437 149.556C43.6437 149.703 35.0743 149.83 24.5128 149.83C13.9512 149.83 5.38184 149.703 5.38184 149.556C5.38184 149.408 13.9407 149.282 24.5128 149.282C35.0849 149.282 43.6437 149.408 43.6437 149.556Z" fill="#263238" stroke="black" stroke-width="1.25698" stroke-miterlimit="10"/>
<path d="M398.984 17.5366L394.22 69.0163L479.513 66.5814L513.886 46.5967L491.635 17.5366H398.984Z" fill="#455A64" stroke="black" stroke-width="1.25698" stroke-miterlimit="10"/>
<path d="M238.441 71.6519C238.441 71.6519 289.9 34.4862 310.201 27.1078C329.796 19.9825 340.009 18.1906 358.413 17.6741C376.005 17.1787 386.725 17.6636 386.725 17.6636L373.128 69.997L238.441 71.6729V71.6519Z" fill="#455A64" stroke="black" stroke-width="1.25698" stroke-miterlimit="10"/>
<path d="M230.917 71.82C230.917 68.563 232.677 65.559 235.513 63.9568L247.328 57.3163C250.701 55.419 254.496 54.4282 258.364 54.4282C260.768 54.4282 263.139 54.8077 265.384 55.5455C270.433 57.2004 273.796 61.9963 274.006 67.3087C274.291 74.687 268.378 80.8321 260.989 80.8321H239.929C234.954 80.8321 230.917 76.7951 230.917 71.82Z" fill="#8969D3" stroke="black" stroke-width="1.25698" stroke-miterlimit="10"/>
<path d="M230.917 71.82C230.917 71.82 230.948 72.2206 231.054 72.9584C231.149 73.6962 231.423 74.7924 232.087 76.0468C232.783 77.28 233.942 78.6503 235.713 79.6094C236.598 80.0732 237.631 80.4211 238.748 80.5686C239.866 80.7057 241.099 80.6213 242.385 80.6319C247.529 80.6108 253.642 80.6002 260.42 80.5686C262.106 80.5686 263.803 80.3684 265.437 79.7465C267.071 79.1351 268.599 78.1759 269.896 76.9111C271.181 75.6462 272.246 74.0968 272.9 72.3471C273.564 70.5973 273.827 68.679 273.69 66.7711C273.395 62.9344 271.35 59.3928 268.367 57.3374C266.891 56.2834 265.194 55.6826 263.487 55.282C261.779 54.871 260.061 54.6812 258.385 54.6812C255.023 54.6812 251.85 55.4296 249.131 56.6628C247.771 57.2742 246.527 58.0436 245.294 58.7077C244.071 59.3928 242.891 60.0463 241.774 60.6682C239.528 61.912 237.505 63.0293 235.713 64.0306C233.931 64.9898 232.772 66.3706 232.097 67.6038C231.412 68.8476 231.159 69.9544 231.054 70.6922C230.948 71.4406 230.959 71.8306 230.927 71.8306C230.927 71.8306 230.875 71.43 230.948 70.6711C231.022 69.9228 231.244 68.7949 231.918 67.4984C232.582 66.223 233.763 64.7685 235.576 63.7566C237.357 62.7447 239.37 61.5958 241.594 60.3309C242.712 59.6985 243.882 59.0344 245.094 58.3388C246.316 57.6642 247.56 56.8842 248.952 56.2518C251.713 54.9764 254.96 54.1858 258.396 54.1753C260.114 54.1753 261.874 54.365 263.624 54.7761C265.363 55.1766 267.155 55.7985 268.694 56.9053C271.803 59.045 273.954 62.7447 274.249 66.7395C274.396 68.7317 274.122 70.7344 273.427 72.5579C272.741 74.3814 271.635 76.0046 270.286 77.3116C268.936 78.6292 267.334 79.6305 265.637 80.2524C263.94 80.8954 262.138 81.1062 260.43 81.0851C253.653 81.064 247.55 81.0429 242.395 81.0219C241.109 81.0008 239.897 81.064 238.717 80.9165C237.547 80.7584 236.482 80.3789 235.576 79.8835C233.752 78.8611 232.593 77.417 231.908 76.1522C231.254 74.8557 231.012 73.7279 230.948 72.9795C230.885 72.2206 230.927 71.82 230.927 71.82H230.917Z" fill="#263238" stroke="black" stroke-width="1.25698" stroke-miterlimit="10"/>
<path d="M370.873 77.101C370.873 77.101 370.789 77.1221 370.63 77.1326C370.441 77.1326 370.198 77.1537 369.914 77.1643C369.239 77.1748 368.322 77.1959 367.163 77.2275C364.728 77.2697 361.281 77.3329 357.054 77.4067C348.517 77.5648 336.732 77.881 323.704 78.2394C310.676 78.5977 298.882 78.8507 290.344 78.9034C286.075 78.935 282.618 78.935 280.225 78.9034C279.065 78.8823 278.148 78.8718 277.474 78.8613L276.757 78.8402C276.599 78.8402 276.515 78.8191 276.515 78.8086C276.515 78.798 276.599 78.7875 276.757 78.7769C276.947 78.7769 277.189 78.7559 277.474 78.7453C278.148 78.7348 279.065 78.7137 280.225 78.6821C282.66 78.6399 286.106 78.5767 290.333 78.5029C298.871 78.3448 310.666 78.0286 323.694 77.6702C336.722 77.3118 348.517 77.0588 357.054 77.0061C361.323 76.9745 364.781 76.9745 367.173 77.0061C368.333 77.0272 369.25 77.0378 369.924 77.0483C370.209 77.0483 370.441 77.0694 370.641 77.0694C370.799 77.0694 370.883 77.0905 370.883 77.101H370.873Z" fill="white" stroke="black" stroke-width="1.25698" stroke-miterlimit="10"/>
<path d="M356.896 92.943C356.896 93.0906 352.764 93.2171 347.662 93.2171C342.561 93.2171 338.429 93.0906 338.429 92.943C338.429 92.7954 342.561 92.6689 347.662 92.6689C352.764 92.6689 356.896 92.7954 356.896 92.943Z" fill="white" stroke="black" stroke-width="1.25698" stroke-miterlimit="10"/>
<path d="M360.291 36.5411C360.343 36.6781 348.886 41.453 334.688 47.1975C320.49 52.9421 308.938 57.485 308.874 57.348C308.811 57.211 320.279 52.4361 334.477 46.6916C348.675 40.947 360.227 36.4041 360.28 36.5411H360.291Z" fill="white" stroke="black" stroke-width="1.25698" stroke-miterlimit="10"/>
<path d="M337.059 40.1353C337.122 40.2723 326.202 45.0788 312.679 50.876C299.156 56.6733 288.141 61.2479 288.088 61.1108C288.025 60.9738 298.945 56.1674 312.468 50.3701C325.992 44.5834 337.006 39.9983 337.059 40.1353Z" fill="white" stroke="black" stroke-width="1.25698" stroke-miterlimit="10"/>
<path d="M461.141 38.1431C461.204 38.2802 450.285 43.0866 436.761 48.8839C423.238 54.6811 412.223 59.2557 412.17 59.1187C412.107 58.9816 423.027 54.1752 436.55 48.3779C450.074 42.5912 461.088 38.0061 461.141 38.1431Z" fill="white" stroke="black" stroke-width="1.25698" stroke-miterlimit="10"/>
<path d="M486.617 77.0901C486.617 77.2377 463.818 77.5012 435.696 77.6698C407.564 77.8385 384.775 77.849 384.775 77.7015C384.775 77.5539 407.564 77.2904 435.696 77.1217C463.818 76.9531 486.617 76.9425 486.617 77.0901Z" fill="white" stroke="black" stroke-width="1.25698" stroke-miterlimit="10"/>
<path d="M73.5784 83.5242L73.6851 83.0352C70.1296 83.2632 73.3081 82.2538 73.2976 83.7151C72.8233 83.7573 72.233 83.7994 71.4952 83.8521C70.7152 83.9048 69.7665 83.9891 68.6598 84.1472C67.5636 84.2843 66.2987 84.4213 64.9179 84.6743C62.1458 85.1064 58.8782 85.7916 55.2839 86.7191C51.7002 87.6783 47.8107 88.9115 43.8159 90.461C39.8316 92.0315 36.1319 93.7812 32.8538 95.5099C29.5968 97.2701 26.7298 98.9882 24.4004 100.559C23.2198 101.318 22.1974 102.077 21.2909 102.72C20.3739 103.363 19.615 103.942 19.0036 104.438C18.4239 104.901 17.9601 105.27 17.5912 105.565C17.275 105.829 17.1169 105.977 17.1274 105.987C17.138 105.998 17.3277 105.882 17.665 105.65C18.0445 105.376 18.5293 105.028 19.1301 104.606C19.752 104.143 20.532 103.584 21.4596 102.973C22.3766 102.351 23.4096 101.613 24.6006 100.886C26.9512 99.3571 29.8182 97.6812 33.0857 95.9526C36.3638 94.2556 40.0424 92.5375 44.0056 90.9669C47.9689 89.428 51.8477 88.1948 55.3999 87.204C58.9731 86.2554 62.2196 85.528 64.9706 85.0537C66.3409 84.7797 67.5952 84.6216 68.6914 84.4424C69.7876 84.2632 70.7363 84.1367 71.5163 84.0524" stroke="black" stroke-width="1.25698" stroke-miterlimit="10"/>
<path d="M263.55 59.4035C263.55 59.4035 263.233 58.9924 262.538 58.4232C261.842 57.8646 260.651 57.2216 259.059 57.0213C257.457 56.8105 255.528 57.0846 253.441 57.6327C251.344 58.1597 249.088 58.8976 246.801 59.8884C242.216 61.8594 238.484 64.484 236.007 66.6026C233.499 68.7107 232.181 70.2602 232.097 70.1864C232.065 70.1653 232.381 69.7648 232.982 69.0691C233.594 68.384 234.511 67.4142 235.744 66.318C238.179 64.1045 241.931 61.3956 246.579 59.393C248.898 58.3916 251.186 57.6538 253.315 57.1478C255.423 56.6208 257.436 56.3784 259.112 56.6419C260.788 56.9054 262 57.6327 262.685 58.2757C263.033 58.5919 263.255 58.887 263.392 59.0873C263.518 59.2981 263.581 59.414 263.56 59.4246L263.55 59.4035Z" fill="white" stroke="black" stroke-width="1.25698" stroke-miterlimit="10"/>
</svg>
