<svg width="243" height="308" viewBox="0 0 243 308" fill="none" xmlns="http://www.w3.org/2000/svg">
<path d="M1.6913 25.0459L1.69141 25.0454C5.17622 7.70095 22.5246 -2.31148 38.8346 2.37022C54.7944 6.95715 63.9708 24.4015 58.6699 40.0999L59.6984 40.4472L58.6699 40.0999C56.8919 45.3655 53.7656 49.7955 49.8106 53.1438L49.8098 53.1445C49.6966 53.2405 49.5811 53.3274 49.4469 53.4189L49.4074 53.4452L49.4074 53.4451L49.3978 53.4517C42.4225 58.1998 33.9739 60.496 25.6545 59.411C22.851 59.0452 20.191 58.3463 17.8825 57.247L17.8806 57.2461C5.84134 51.5419 -0.933893 38.0801 1.6913 25.0459Z" fill="white" stroke="#16110D" stroke-width="2.17118"/>
<mask id="path-2-inside-1_788_11183" fill="white">
<path d="M0.626422 24.8312C0.626422 24.8312 0.611617 25.0011 0.567203 25.3261C0.522788 25.6659 0.448764 26.1387 0.359935 26.7592C0.189679 28.0223 0.0638383 29.8985 0.167472 32.314C0.34513 34.7221 0.789276 37.6694 1.96626 40.8974C3.14324 44.1033 4.98645 47.6342 7.86599 50.8548C8.59883 51.6452 9.33907 52.4651 10.1978 53.2038C11.0046 53.9942 11.9447 54.6664 12.8774 55.3903C13.3512 55.7448 13.8694 56.0403 14.3653 56.3727L15.1278 56.8602C15.3868 57.0154 15.6607 57.1483 15.9346 57.2961C16.475 57.5768 17.0228 57.8648 17.578 58.1529C18.1405 58.4188 18.7179 58.6552 19.3175 58.8768C24.0921 60.5906 29.6735 61.0633 35.2994 60.14C38.1123 59.6598 40.94 58.8399 43.6789 57.6432C45.0483 57.0523 46.403 56.3653 47.7132 55.5897C48.372 55.213 49.016 54.7919 49.66 54.3709C50.3041 53.9646 50.8592 53.4402 51.4366 52.9157C55.9817 48.7126 59.372 42.8845 60.5268 36.4063C61.193 33.1856 61.1782 29.8911 60.7415 26.737C60.5786 25.1415 60.1271 23.6124 59.7421 22.0907C59.4831 21.3447 59.2166 20.606 58.9575 19.8747C58.8391 19.498 58.6762 19.1508 58.5059 18.7962L58.0174 17.7399C56.6701 14.9551 54.9972 12.3697 52.9467 10.198L52.2065 9.36332L51.3922 8.60987C50.8444 8.12234 50.3337 7.59049 49.7563 7.1399C48.5867 6.26088 47.4689 5.3523 46.2105 4.66533C41.3397 1.63676 35.8545 0.37362 30.7987 0.336686C29.5255 0.255432 28.2893 0.447488 27.0679 0.528742C26.4535 0.550903 25.8613 0.713412 25.2691 0.80944C24.6769 0.920241 24.0921 1.03104 23.5147 1.14184C22.3895 1.48164 21.2644 1.76972 20.2058 2.15383C19.6803 2.36805 19.1621 2.58226 18.6513 2.78909C18.1405 3.00331 17.6224 3.18798 17.156 3.46129C13.2772 5.37446 10.2052 7.89335 7.903 10.4344C6.82225 11.764 5.7711 12.9754 5.02346 14.246C4.82359 14.5562 4.63113 14.8591 4.43867 15.1545C4.2388 15.4426 4.06114 15.7381 3.9205 16.041C3.617 16.6393 3.32831 17.2081 3.05442 17.7473C2.92117 18.0206 2.78053 18.2791 2.66209 18.5377C2.55845 18.8036 2.46222 19.0621 2.36599 19.3133C2.17353 19.8156 1.99587 20.281 1.83302 20.7168C1.4629 21.5736 1.30744 22.3493 1.13719 22.9624C0.974336 23.5681 0.848495 24.0334 0.759666 24.3585C0.670837 24.6761 0.61902 24.8312 0.61902 24.8312C0.61902 24.8312 0.648629 24.6687 0.722654 24.3511C0.80408 24.0187 0.915117 23.5533 1.06316 22.9402C1.22602 22.3197 1.36666 21.5441 1.72938 20.6798C1.89224 20.244 2.06249 19.7713 2.24755 19.2616C2.34378 19.0104 2.44002 18.7519 2.53625 18.4786C2.65469 18.2201 2.78793 17.9541 2.92117 17.6808C3.18766 17.1342 3.47635 16.5654 3.77245 15.9597C3.9131 15.6495 4.08335 15.354 4.28322 15.0585C4.47568 14.763 4.66814 14.4528 4.86801 14.1426C5.60825 12.8573 6.65939 11.6311 7.74015 10.2867C10.0423 7.71607 13.1291 5.16763 17.0376 3.21753C17.5039 2.93683 18.0295 2.75216 18.5403 2.53056C19.0584 2.31634 19.5766 2.10212 20.1022 1.88791C21.1755 1.49641 22.3007 1.20094 23.4407 0.85376C24.0255 0.742959 24.6177 0.62477 25.2099 0.513969C25.8095 0.410554 26.4016 0.248045 27.0234 0.225885C28.2597 0.137244 29.5107 -0.062199 30.7913 0.0190555C35.8989 0.0486025 41.4434 1.30435 46.3734 4.3477C47.6466 5.04206 48.7792 5.95802 49.9635 6.84443C50.5483 7.29502 51.0591 7.83426 51.6217 8.32917L52.4434 9.09001L53.1984 9.9321C55.2785 12.126 56.9736 14.7409 58.3357 17.5552L58.8316 18.6263C59.0019 18.9809 59.1722 19.3428 59.2832 19.7196C59.5497 20.4656 59.8088 21.2117 60.0753 21.9651C60.4676 23.509 60.9191 25.0602 61.0894 26.6705C61.5409 29.869 61.5483 33.2078 60.8747 36.4654C59.7051 43.0248 56.2704 48.9268 51.6661 53.1816C51.0961 53.7061 50.5113 54.2527 49.8451 54.6738C49.1937 55.1022 48.5497 55.5232 47.8761 55.9C46.551 56.683 45.189 57.3699 43.8047 57.9683C41.0362 59.1797 38.1789 59.9996 35.3364 60.4798C29.6439 61.4031 24.0181 60.9082 19.1843 59.1649C18.5847 58.9433 17.9925 58.6995 17.4225 58.4262C16.8673 58.1308 16.3121 57.8427 15.7644 57.5546C15.4905 57.4069 15.2166 57.2739 14.9501 57.1114L14.1803 56.6165C13.6769 56.2767 13.1513 55.9812 12.6776 55.6193C11.7375 54.888 10.7899 54.2084 9.97568 53.4032C9.10959 52.6572 8.36935 51.8298 7.62911 51.0247C4.73477 47.7597 2.89156 44.1993 1.72938 40.9639C0.596813 37.7063 0.167472 34.7369 0.0194238 32.3214C-0.0546004 29.8911 0.093448 28.0075 0.285911 26.7518C0.389545 26.1313 0.470971 25.6585 0.530191 25.3187C0.58941 24.9937 0.626422 24.8312 0.626422 24.8312Z"/>
</mask>
<path d="M0.626422 24.8312C0.626422 24.8312 0.611617 25.0011 0.567203 25.3261C0.522788 25.6659 0.448764 26.1387 0.359935 26.7592C0.189679 28.0223 0.0638383 29.8985 0.167472 32.314C0.34513 34.7221 0.789276 37.6694 1.96626 40.8974C3.14324 44.1033 4.98645 47.6342 7.86599 50.8548C8.59883 51.6452 9.33907 52.4651 10.1978 53.2038C11.0046 53.9942 11.9447 54.6664 12.8774 55.3903C13.3512 55.7448 13.8694 56.0403 14.3653 56.3727L15.1278 56.8602C15.3868 57.0154 15.6607 57.1483 15.9346 57.2961C16.475 57.5768 17.0228 57.8648 17.578 58.1529C18.1405 58.4188 18.7179 58.6552 19.3175 58.8768C24.0921 60.5906 29.6735 61.0633 35.2994 60.14C38.1123 59.6598 40.94 58.8399 43.6789 57.6432C45.0483 57.0523 46.403 56.3653 47.7132 55.5897C48.372 55.213 49.016 54.7919 49.66 54.3709C50.3041 53.9646 50.8592 53.4402 51.4366 52.9157C55.9817 48.7126 59.372 42.8845 60.5268 36.4063C61.193 33.1856 61.1782 29.8911 60.7415 26.737C60.5786 25.1415 60.1271 23.6124 59.7421 22.0907C59.4831 21.3447 59.2166 20.606 58.9575 19.8747C58.8391 19.498 58.6762 19.1508 58.5059 18.7962L58.0174 17.7399C56.6701 14.9551 54.9972 12.3697 52.9467 10.198L52.2065 9.36332L51.3922 8.60987C50.8444 8.12234 50.3337 7.59049 49.7563 7.1399C48.5867 6.26088 47.4689 5.3523 46.2105 4.66533C41.3397 1.63676 35.8545 0.37362 30.7987 0.336686C29.5255 0.255432 28.2893 0.447488 27.0679 0.528742C26.4535 0.550903 25.8613 0.713412 25.2691 0.80944C24.6769 0.920241 24.0921 1.03104 23.5147 1.14184C22.3895 1.48164 21.2644 1.76972 20.2058 2.15383C19.6803 2.36805 19.1621 2.58226 18.6513 2.78909C18.1405 3.00331 17.6224 3.18798 17.156 3.46129C13.2772 5.37446 10.2052 7.89335 7.903 10.4344C6.82225 11.764 5.7711 12.9754 5.02346 14.246C4.82359 14.5562 4.63113 14.8591 4.43867 15.1545C4.2388 15.4426 4.06114 15.7381 3.9205 16.041C3.617 16.6393 3.32831 17.2081 3.05442 17.7473C2.92117 18.0206 2.78053 18.2791 2.66209 18.5377C2.55845 18.8036 2.46222 19.0621 2.36599 19.3133C2.17353 19.8156 1.99587 20.281 1.83302 20.7168C1.4629 21.5736 1.30744 22.3493 1.13719 22.9624C0.974336 23.5681 0.848495 24.0334 0.759666 24.3585C0.670837 24.6761 0.61902 24.8312 0.61902 24.8312C0.61902 24.8312 0.648629 24.6687 0.722654 24.3511C0.80408 24.0187 0.915117 23.5533 1.06316 22.9402C1.22602 22.3197 1.36666 21.5441 1.72938 20.6798C1.89224 20.244 2.06249 19.7713 2.24755 19.2616C2.34378 19.0104 2.44002 18.7519 2.53625 18.4786C2.65469 18.2201 2.78793 17.9541 2.92117 17.6808C3.18766 17.1342 3.47635 16.5654 3.77245 15.9597C3.9131 15.6495 4.08335 15.354 4.28322 15.0585C4.47568 14.763 4.66814 14.4528 4.86801 14.1426C5.60825 12.8573 6.65939 11.6311 7.74015 10.2867C10.0423 7.71607 13.1291 5.16763 17.0376 3.21753C17.5039 2.93683 18.0295 2.75216 18.5403 2.53056C19.0584 2.31634 19.5766 2.10212 20.1022 1.88791C21.1755 1.49641 22.3007 1.20094 23.4407 0.85376C24.0255 0.742959 24.6177 0.62477 25.2099 0.513969C25.8095 0.410554 26.4016 0.248045 27.0234 0.225885C28.2597 0.137244 29.5107 -0.062199 30.7913 0.0190555C35.8989 0.0486025 41.4434 1.30435 46.3734 4.3477C47.6466 5.04206 48.7792 5.95802 49.9635 6.84443C50.5483 7.29502 51.0591 7.83426 51.6217 8.32917L52.4434 9.09001L53.1984 9.9321C55.2785 12.126 56.9736 14.7409 58.3357 17.5552L58.8316 18.6263C59.0019 18.9809 59.1722 19.3428 59.2832 19.7196C59.5497 20.4656 59.8088 21.2117 60.0753 21.9651C60.4676 23.509 60.9191 25.0602 61.0894 26.6705C61.5409 29.869 61.5483 33.2078 60.8747 36.4654C59.7051 43.0248 56.2704 48.9268 51.6661 53.1816C51.0961 53.7061 50.5113 54.2527 49.8451 54.6738C49.1937 55.1022 48.5497 55.5232 47.8761 55.9C46.551 56.683 45.189 57.3699 43.8047 57.9683C41.0362 59.1797 38.1789 59.9996 35.3364 60.4798C29.6439 61.4031 24.0181 60.9082 19.1843 59.1649C18.5847 58.9433 17.9925 58.6995 17.4225 58.4262C16.8673 58.1308 16.3121 57.8427 15.7644 57.5546C15.4905 57.4069 15.2166 57.2739 14.9501 57.1114L14.1803 56.6165C13.6769 56.2767 13.1513 55.9812 12.6776 55.6193C11.7375 54.888 10.7899 54.2084 9.97568 53.4032C9.10959 52.6572 8.36935 51.8298 7.62911 51.0247C4.73477 47.7597 2.89156 44.1993 1.72938 40.9639C0.596813 37.7063 0.167472 34.7369 0.0194238 32.3214C-0.0546004 29.8911 0.093448 28.0075 0.285911 26.7518C0.389545 26.1313 0.470971 25.6585 0.530191 25.3187C0.58941 24.9937 0.626422 24.8312 0.626422 24.8312Z" fill="white"/>
<path d="M0.567203 25.3261L-1.58402 25.0322L-1.58566 25.0447L0.567203 25.3261ZM0.359935 26.7592L-1.78933 26.4515L-1.79059 26.4603L-1.79178 26.4691L0.359935 26.7592ZM0.167472 32.314L-2.00171 32.4071L-2.00028 32.4404L-1.99782 32.4738L0.167472 32.314ZM1.96626 40.8974L-0.0735587 41.6412L-0.0718954 41.6457L1.96626 40.8974ZM7.86599 50.8548L6.24742 52.3019L6.26052 52.3166L6.27387 52.331L7.86599 50.8548ZM10.1978 53.2038L11.7171 51.6528L11.6669 51.6036L11.6137 51.5578L10.1978 53.2038ZM12.8774 55.3903L11.5462 57.1055L11.5612 57.1171L11.5765 57.1285L12.8774 55.3903ZM14.3653 56.3727L13.1565 58.1763L13.176 58.1893L13.1957 58.2019L14.3653 56.3727ZM15.1278 56.8602L13.9581 58.6894L13.985 58.7066L14.0124 58.723L15.1278 56.8602ZM15.9346 57.2961L14.9039 59.207L14.9188 59.215L14.9338 59.2228L15.9346 57.2961ZM17.578 58.1529L16.578 60.0801L16.6137 60.0986L16.6501 60.1159L17.578 58.1529ZM19.3175 58.8768L18.5649 60.9134L18.5744 60.9169L18.584 60.9204L19.3175 58.8768ZM35.2994 60.14L35.651 62.2825L35.6647 62.2802L35.2994 60.14ZM43.6789 57.6432L42.8187 55.6497L42.8096 55.6537L43.6789 57.6432ZM47.7132 55.5897L46.6354 53.7049L46.6213 53.713L46.6072 53.7214L47.7132 55.5897ZM49.66 54.3709L48.5016 52.5346L48.4867 52.544L48.4719 52.5536L49.66 54.3709ZM51.4366 52.9157L52.8965 54.5229L52.9036 54.5163L52.9107 54.5098L51.4366 52.9157ZM60.5268 36.4063L58.4006 35.9665L58.3946 35.9958L58.3893 36.0253L60.5268 36.4063ZM60.7415 26.737L58.5815 26.9575L58.5855 26.9962L58.5908 27.0348L60.7415 26.737ZM59.7421 22.0907L61.847 21.5583L61.824 21.4672L61.7932 21.3785L59.7421 22.0907ZM58.9575 19.8747L56.8863 20.5259L56.8979 20.563L56.911 20.5997L58.9575 19.8747ZM58.5059 18.7962L56.5353 19.7077L56.5419 19.7219L56.5487 19.736L58.5059 18.7962ZM58.0174 17.7399L59.988 16.8285L59.9801 16.8114L59.9718 16.7944L58.0174 17.7399ZM52.9467 10.198L51.3223 11.6386L51.3448 11.6639L51.368 11.6886L52.9467 10.198ZM52.2065 9.36332L53.8309 7.92274L53.7598 7.84252L53.6811 7.76971L52.2065 9.36332ZM51.3922 8.60987L52.8668 7.01626L52.8514 7.00198L52.8357 6.98801L51.3922 8.60987ZM49.7563 7.1399L51.092 5.42825L51.0765 5.41612L51.0607 5.40427L49.7563 7.1399ZM46.2105 4.66533L45.0641 6.50915L45.1163 6.54159L45.1702 6.57104L46.2105 4.66533ZM30.7987 0.336686L30.6604 2.50345L30.7216 2.50736L30.7828 2.5078L30.7987 0.336686ZM27.0679 0.528742L27.1461 2.69851L27.1791 2.69732L27.212 2.69513L27.0679 0.528742ZM25.2691 0.80944L24.9215 -1.33374L24.8956 -1.32953L24.8698 -1.3247L25.2691 0.80944ZM23.5147 1.14184L23.1055 -0.990424L22.9949 -0.969192L22.887 -0.936621L23.5147 1.14184ZM20.2058 2.15383L19.4652 0.112872L19.4255 0.127293L19.3863 0.143249L20.2058 2.15383ZM18.6513 2.78909L17.8364 0.776654L17.824 0.781691L17.8116 0.786881L18.6513 2.78909ZM17.156 3.46129L18.1164 5.40849L18.1865 5.37396L18.2538 5.33448L17.156 3.46129ZM7.903 10.4344L6.29398 8.97665L6.2549 9.01978L6.21819 9.06494L7.903 10.4344ZM5.02346 14.246L6.84867 15.4218L6.87244 15.3849L6.89469 15.3471L5.02346 14.246ZM4.43867 15.1545L6.22257 16.3922L6.24063 16.3661L6.25793 16.3396L4.43867 15.1545ZM3.9205 16.041L5.85681 17.0231L5.87384 16.9896L5.88969 16.9554L3.9205 16.041ZM3.05442 17.7473L1.11863 16.7641L1.11059 16.7799L1.10281 16.7959L3.05442 17.7473ZM2.66209 18.5377L0.688183 17.6334L0.661964 17.6906L0.639106 17.7493L2.66209 18.5377ZM2.36599 19.3133L4.39343 20.0901L2.36599 19.3133ZM1.83302 20.7168L3.8262 21.5777L3.84778 21.5278L3.86684 21.4768L1.83302 20.7168ZM1.13719 22.9624L-0.954821 22.3814L-0.957209 22.39L-0.959526 22.3986L1.13719 22.9624ZM0.759666 24.3585L2.85065 24.9432L2.85403 24.9309L0.759666 24.3585ZM0.61902 24.8312L-1.51699 24.442L2.67834 25.5191L0.61902 24.8312ZM0.722654 24.3511L-1.38617 23.8345L-1.38908 23.8464L-1.39186 23.8583L0.722654 24.3511ZM1.06316 22.9402L-1.03688 22.389L-1.04232 22.4097L-1.04735 22.4306L1.06316 22.9402ZM1.72938 20.6798L3.73139 21.5201L3.74809 21.4803L3.7632 21.4398L1.72938 20.6798ZM2.24755 19.2616L0.220111 18.4847L0.213265 18.5026L0.206736 18.5206L2.24755 19.2616ZM2.53625 18.4786L0.562342 17.5743L0.521152 17.6642L0.488307 17.7575L2.53625 18.4786ZM3.77245 15.9597L5.72304 16.9132L5.73689 16.8849L5.74991 16.8562L3.77245 15.9597ZM4.28322 15.0585L6.0816 16.275L6.09218 16.2594L6.10248 16.2435L4.28322 15.0585ZM4.86801 14.1426L6.69322 15.3184L6.72249 15.273L6.74946 15.2261L4.86801 14.1426ZM7.74015 10.2867L6.12277 8.83819L6.08419 8.88126L6.04797 8.92632L7.74015 10.2867ZM17.0376 3.21753L18.0069 5.16031L18.0837 5.12199L18.1572 5.07773L17.0376 3.21753ZM18.5403 2.53056L17.7108 0.524083L17.6934 0.531275L17.6761 0.538768L18.5403 2.53056ZM20.1022 1.88791L19.3582 -0.151821L19.3202 -0.137952L19.2827 -0.122675L20.1022 1.88791ZM23.4407 0.85376L23.0365 -1.27946L22.9208 -1.25754L22.8081 -1.22323L23.4407 0.85376ZM25.2099 0.513969L24.8408 -1.62562L24.8257 -1.623L24.8106 -1.62017L25.2099 0.513969ZM27.0234 0.225885L27.1008 2.39568L27.1398 2.39429L27.1787 2.3915L27.0234 0.225885ZM30.7913 0.0190555L30.6538 2.18587L30.7162 2.18983L30.7787 2.19019L30.7913 0.0190555ZM46.3734 4.3477L45.2329 6.19521L45.2826 6.22589L45.3338 6.25385L46.3734 4.3477ZM49.9635 6.84443L51.2887 5.12458L51.2767 5.11529L51.2645 5.10617L49.9635 6.84443ZM51.6217 8.32917L53.0968 6.73608L53.0765 6.71728L53.0558 6.69901L51.6217 8.32917ZM52.4434 9.09001L54.0599 7.64057L53.9925 7.56546L53.9185 7.49692L52.4434 9.09001ZM53.1984 9.9321L51.5819 11.3815L51.6021 11.404L51.6228 11.4259L53.1984 9.9321ZM58.3357 17.5552L60.3059 16.6429L60.2981 16.6261L60.29 16.6094L58.3357 17.5552ZM58.8316 18.6263L56.8614 19.5386L56.8678 19.5524L56.8744 19.5661L58.8316 18.6263ZM59.2832 19.7196L57.2006 20.3334L57.2179 20.3922L57.2385 20.4499L59.2832 19.7196ZM60.0753 21.9651L62.1795 21.4304L62.1552 21.3345L62.1222 21.2412L60.0753 21.9651ZM61.0894 26.6705L58.9302 26.8988L58.9342 26.9365L58.9395 26.974L61.0894 26.6705ZM60.8747 36.4654L58.7485 36.0257L58.7425 36.0549L58.7372 36.0843L60.8747 36.4654ZM51.6661 53.1816L53.1362 54.7794L53.1396 54.7762L51.6661 53.1816ZM49.8451 54.6738L48.6852 52.8384L48.6685 52.8489L48.652 52.8598L49.8451 54.6738ZM47.8761 55.9L46.8163 54.005L46.7937 54.0176L46.7715 54.0308L47.8761 55.9ZM43.8047 57.9683L42.9433 55.9753L42.9344 55.9792L43.8047 57.9683ZM35.3364 60.4798L35.684 62.6229L35.691 62.6218L35.698 62.6206L35.3364 60.4798ZM19.1843 59.1649L18.4316 61.2014L18.4396 61.2044L18.4477 61.2073L19.1843 59.1649ZM17.4225 58.4262L16.4025 60.3429L16.4427 60.3643L16.4838 60.384L17.4225 58.4262ZM15.7644 57.5546L14.7336 59.4655L14.7437 59.4709L14.7538 59.4762L15.7644 57.5546ZM14.9501 57.1114L13.776 58.9377L13.7977 58.9517L13.8197 58.9651L14.9501 57.1114ZM14.1803 56.6165L12.9655 58.416L12.9857 58.4296L13.0062 58.4428L14.1803 56.6165ZM12.6776 55.6193L11.3445 57.333L11.3519 57.3388L11.3594 57.3445L12.6776 55.6193ZM9.97568 53.4032L11.5023 51.8594L11.4492 51.8069L11.3927 51.7582L9.97568 53.4032ZM7.62911 51.0247L6.00442 52.465L6.01747 52.4797L6.03078 52.4942L7.62911 51.0247ZM1.72938 40.9639L-0.321382 41.6769L-0.317727 41.6874L-0.313964 41.6979L1.72938 40.9639ZM0.0194238 32.3214L-2.15074 32.3875L-2.14973 32.4209L-2.14768 32.4542L0.0194238 32.3214ZM0.285911 26.7518L-1.8556 26.3941L-1.858 26.4085L-1.8602 26.4228L0.285911 26.7518ZM0.530191 25.3187L-1.60582 24.9295L-1.60731 24.9377L-1.60874 24.946L0.530191 25.3187ZM0.626422 24.8312C-1.53656 24.6427 -1.53655 24.6426 -1.53654 24.6425C-1.53654 24.6425 -1.53653 24.6424 -1.53652 24.6423C-1.53651 24.6422 -1.5365 24.6421 -1.53649 24.642C-1.53647 24.6417 -1.53645 24.6415 -1.53643 24.6413C-1.53639 24.6408 -1.53635 24.6404 -1.53632 24.64C-1.53626 24.6393 -1.53621 24.6387 -1.53617 24.6383C-1.5361 24.6375 -1.53608 24.6374 -1.53613 24.6379C-1.53622 24.6389 -1.53656 24.6425 -1.53717 24.6487C-1.5384 24.6611 -1.54072 24.6838 -1.54437 24.7165C-1.55167 24.782 -1.56426 24.8879 -1.58398 25.0322L2.71839 25.6201C2.74308 25.4394 2.7601 25.2977 2.77131 25.1971C2.77691 25.1467 2.78107 25.1066 2.784 25.077C2.78547 25.0622 2.78664 25.0499 2.78753 25.0404C2.78797 25.0356 2.78835 25.0315 2.78866 25.028C2.78881 25.0263 2.78895 25.0248 2.78908 25.0234C2.78914 25.0227 2.7892 25.022 2.78925 25.0214C2.78928 25.0211 2.7893 25.0208 2.78933 25.0205C2.78934 25.0204 2.78935 25.0202 2.78937 25.0201C2.78937 25.02 2.78938 25.0199 2.78938 25.0199C2.78939 25.0198 2.7894 25.0197 0.626422 24.8312ZM-1.58566 25.0447C-1.62836 25.3714 -1.69379 25.7841 -1.78933 26.4515L2.5092 27.0668C2.59132 26.4932 2.67394 25.9604 2.72006 25.6075L-1.58566 25.0447ZM-1.79178 26.4691C-1.9802 27.867 -2.11048 29.8717 -2.00171 32.4071L2.33665 32.2209C2.23816 29.9253 2.35955 28.1776 2.51165 27.0492L-1.79178 26.4691ZM-1.99782 32.4738C-1.80993 35.0205 -1.33724 38.1754 -0.0735536 41.6412L4.00607 40.1537C2.91579 37.1635 2.50019 34.4237 2.33276 32.1543L-1.99782 32.4738ZM-0.0718954 41.6457C1.17867 45.052 3.14866 48.8361 6.24742 52.3019L9.48456 49.4076C6.82424 46.4322 5.10782 43.1546 4.00442 40.1492L-0.0718954 41.6457ZM6.27387 52.331C6.97455 53.0867 7.80894 54.0128 8.78183 54.8497L11.6137 51.5578C10.8692 50.9174 10.2231 50.2037 9.4581 49.3786L6.27387 52.331ZM8.67842 54.7548C9.60311 55.6606 10.7081 56.4549 11.5462 57.1055L14.2086 53.6751C13.1814 52.8778 12.4061 52.3277 11.7171 51.6528L8.67842 54.7548ZM11.5765 57.1285C12.0864 57.5102 12.86 57.9775 13.1565 58.1763L15.5741 54.5691C14.8787 54.1031 14.6159 53.9795 14.1784 53.652L11.5765 57.1285ZM13.1957 58.2019L13.9581 58.6894L16.2974 55.031L15.5349 54.5435L13.1957 58.2019ZM14.0124 58.723C14.3214 58.908 14.7451 59.1213 14.9039 59.207L16.9654 55.3851C16.5764 55.1753 16.4523 55.1227 16.2431 54.9974L14.0124 58.723ZM14.9338 59.2228C15.4257 59.4783 16.0576 59.8101 16.578 60.0801L18.578 56.2258C17.9879 55.9196 17.5243 55.6752 16.9355 55.3693L14.9338 59.2228ZM16.6501 60.1159C17.2821 60.4146 17.9198 60.675 18.5649 60.9134L20.0702 56.8403C19.516 56.6355 18.999 56.4231 18.5058 56.19L16.6501 60.1159ZM18.584 60.9204C23.7353 62.7693 29.6929 63.2603 35.651 62.2825L34.9477 57.9975C29.6541 58.8663 24.4488 58.4118 20.051 56.8333L18.584 60.9204ZM35.6647 62.2802C38.643 61.7718 41.6407 60.9031 44.5482 59.6328L42.8096 55.6537C40.2393 56.7767 37.5815 57.5478 34.934 57.9997L35.6647 62.2802ZM44.5391 59.6367C45.9918 59.0099 47.4286 58.2813 48.8192 57.4581L46.6072 53.7214C45.3774 54.4494 44.1049 55.0947 42.8187 55.6497L44.5391 59.6367ZM48.791 57.4745C49.5155 57.0602 50.2137 56.6029 50.8481 56.1882L48.4719 52.5536C47.8183 52.981 47.2285 53.3658 46.6354 53.7049L48.791 57.4745ZM50.8185 56.2072C51.661 55.6757 52.3767 54.9949 52.8965 54.5229L49.9768 51.3086C49.3417 51.8854 48.9471 52.2535 48.5016 52.5346L50.8185 56.2072ZM52.9107 54.5098C57.7826 50.0045 61.4217 43.7582 62.6643 36.7873L58.3893 36.0253C57.3224 42.0107 54.1808 47.4208 49.9625 51.3216L52.9107 54.5098ZM62.653 36.8461C63.3794 33.3343 63.3553 29.7844 62.8921 26.4392L58.5908 27.0348C59.0011 29.9979 59.0066 33.037 58.4006 35.9665L62.653 36.8461ZM62.9014 26.5165C62.7176 24.716 62.2028 22.9646 61.847 21.5583L57.6373 22.6232C58.0514 24.2602 58.4396 25.5669 58.5815 26.9575L62.9014 26.5165ZM61.7932 21.3785C61.5314 20.6246 61.2573 19.8646 61.004 19.1496L56.911 20.5997C57.1758 21.3474 57.4347 22.0647 57.6911 22.803L61.7932 21.3785ZM61.0287 19.2235C60.8582 18.6811 60.6313 18.2065 60.4632 17.8564L56.5487 19.736C56.7211 20.095 56.8199 20.3148 56.8863 20.5259L61.0287 19.2235ZM60.4765 17.8848L59.988 16.8285L56.0468 18.6514L56.5353 19.7077L60.4765 17.8848ZM59.9718 16.7944C58.5497 13.8546 56.7591 11.0732 54.5254 8.70747L51.368 11.6886C53.2353 13.6662 54.7906 16.0556 56.0629 18.6854L59.9718 16.7944ZM54.5711 8.75744L53.8309 7.92274L50.5821 10.8039L51.3223 11.6386L54.5711 8.75744ZM53.6811 7.76971L52.8668 7.01626L49.9176 10.2035L50.7319 10.9569L53.6811 7.76971ZM52.8357 6.98801C52.4762 6.66808 51.7241 5.92151 51.092 5.42825L48.4205 8.85155C48.9432 9.25948 49.2127 9.5766 49.9488 10.2317L52.8357 6.98801ZM51.0607 5.40427C49.9853 4.59601 48.6885 3.54446 47.2509 2.75963L45.1702 6.57104C46.2493 7.16014 47.1881 7.92574 48.4518 8.87553L51.0607 5.40427ZM47.357 2.82152C42.0966 -0.449295 36.2069 -1.79504 30.8145 -1.83443L30.7828 2.5078C35.5022 2.54228 40.5829 3.72281 45.0641 6.50915L47.357 2.82152ZM30.937 -1.83008C29.478 -1.92319 27.8922 -1.70207 26.9237 -1.63764L27.212 2.69513C28.6863 2.59705 29.5729 2.43405 30.6604 2.50345L30.937 -1.83008ZM26.9896 -1.64102C26.2064 -1.61277 25.195 -1.37809 24.9215 -1.33374L25.6166 2.95262C26.5275 2.80491 26.7005 2.71458 27.1461 2.69851L26.9896 -1.64102ZM24.8698 -1.3247C24.2744 -1.2133 23.6863 -1.10187 23.1055 -0.990424L23.9239 3.27411C24.4979 3.16396 25.0794 3.05378 25.6684 2.94358L24.8698 -1.3247ZM22.887 -0.936621C21.8859 -0.634281 20.5951 -0.297132 19.4652 0.112872L20.9464 4.19479C21.9336 3.83657 22.8932 3.59755 24.1424 3.22031L22.887 -0.936621ZM19.3863 0.143249C18.8429 0.364739 18.3485 0.569268 17.8364 0.776654L19.4662 4.80153C19.9756 4.59526 20.5176 4.37136 21.0253 4.16441L19.3863 0.143249ZM17.8116 0.786881C17.4512 0.938028 16.6904 1.21762 16.0582 1.5881L18.2538 5.33448C18.5544 5.15834 18.8299 5.06859 19.491 4.79131L17.8116 0.786881ZM16.1956 1.51409C12.0464 3.56061 8.75968 6.25507 6.29398 8.97665L9.51202 11.8922C11.6506 9.53163 14.5079 7.18832 18.1164 5.40849L16.1956 1.51409ZM6.21819 9.06494C5.21174 10.3031 4.0073 11.6917 3.15223 13.1448L6.89469 15.3471C7.5349 14.2591 8.43276 13.2249 9.58781 11.8039L6.21819 9.06494ZM3.19825 13.0701C2.98755 13.3972 2.80896 13.6785 2.61941 13.9695L6.25793 16.3396C6.4533 16.0396 6.65964 15.7152 6.84867 15.4218L3.19825 13.0701ZM2.65477 13.9169C2.40423 14.278 2.15743 14.6826 1.95131 15.1265L5.88969 16.9554C5.96486 16.7936 6.07337 16.6072 6.22257 16.3922L2.65477 13.9169ZM1.98418 15.0588C1.68084 15.6568 1.39233 16.2252 1.11863 16.7641L4.9902 18.7305C5.26428 18.1909 5.55316 17.6218 5.85681 17.0231L1.98418 15.0588ZM1.10281 16.7959C1.04108 16.9225 0.807437 17.3731 0.688183 17.6334L4.63599 19.442C4.75362 19.1852 4.80127 19.1187 5.00602 18.6987L1.10281 16.7959ZM0.639106 17.7493C0.534496 18.0177 0.422987 18.3161 0.338549 18.5365L4.39343 20.0901C4.50146 19.8082 4.58241 19.5895 4.68507 19.3261L0.639106 17.7493ZM0.338549 18.5365C0.145927 19.0392 -0.0345336 19.5118 -0.200805 19.9568L3.86684 21.4768C4.02627 21.0501 4.20113 20.592 4.39343 20.0901L0.338549 18.5365ZM-0.160163 19.8558C-0.608846 20.8946 -0.831885 21.9387 -0.954821 22.3814L3.2292 23.5433C3.44677 22.7598 3.53464 22.2527 3.8262 21.5777L-0.160163 19.8558ZM-0.959526 22.3986C-1.12214 23.0035 -1.24706 23.4654 -1.3347 23.7861L2.85403 24.9309C2.94405 24.6015 3.07081 24.1327 3.2339 23.5261L-0.959526 22.3986ZM-1.33128 23.7737C-1.37089 23.9153 -1.40102 24.0163 -1.41981 24.0776C-1.4292 24.1083 -1.43576 24.129 -1.43925 24.1399C-1.441 24.1454 -1.44198 24.1484 -1.44216 24.1489C-1.44226 24.1492 -1.44215 24.1489 -1.44184 24.1479C-1.44168 24.1475 -1.44148 24.1469 -1.44122 24.1461C-1.44109 24.1457 -1.44095 24.1453 -1.4408 24.1448C-1.44072 24.1446 -1.44064 24.1443 -1.44056 24.1441C-1.44052 24.144 -1.44048 24.1438 -1.44043 24.1437C-1.44041 24.1436 -1.44038 24.1435 -1.44037 24.1435C-1.44033 24.1434 -1.4403 24.1433 0.61902 24.8312C2.67834 25.5191 2.67837 25.519 2.67841 25.5189C2.67842 25.5189 2.67845 25.5188 2.67848 25.5187C2.67852 25.5186 2.67857 25.5184 2.67862 25.5183C2.67871 25.518 2.67881 25.5177 2.67892 25.5174C2.67912 25.5168 2.67934 25.5161 2.67957 25.5154C2.68002 25.514 2.68053 25.5125 2.68109 25.5108C2.6822 25.5075 2.6835 25.5035 2.685 25.4989C2.688 25.4898 2.69176 25.4782 2.69626 25.4641C2.70526 25.436 2.71721 25.3981 2.73187 25.3503C2.7612 25.2546 2.8014 25.1192 2.85061 24.9432L-1.33128 23.7737ZM0.61902 24.8312C2.75503 25.2204 2.75501 25.2205 2.75499 25.2206C2.75499 25.2206 2.75497 25.2207 2.75496 25.2208C2.75493 25.2209 2.75491 25.2211 2.75489 25.2212C2.75484 25.2214 2.7548 25.2217 2.75476 25.2219C2.75467 25.2223 2.7546 25.2228 2.75453 25.2231C2.75439 25.2239 2.75428 25.2245 2.7542 25.2249C2.75404 25.2258 2.75399 25.226 2.75406 25.2257C2.75421 25.2249 2.75483 25.2216 2.75596 25.2158C2.75822 25.2042 2.7625 25.1826 2.76904 25.151C2.78211 25.088 2.80421 24.9853 2.83717 24.8439L-1.39186 23.8583C-1.43292 24.0345 -1.46265 24.1719 -1.48288 24.2695C-1.493 24.3183 -1.50075 24.3571 -1.50635 24.3859C-1.50916 24.4003 -1.51143 24.4122 -1.51319 24.4216C-1.51407 24.4262 -1.51482 24.4303 -1.51546 24.4337C-1.51577 24.4354 -1.51606 24.4369 -1.51631 24.4383C-1.51644 24.439 -1.51656 24.4397 -1.51667 24.4403C-1.51673 24.4406 -1.51678 24.4409 -1.51684 24.4412C-1.51686 24.4413 -1.51689 24.4415 -1.51691 24.4416C-1.51693 24.4417 -1.51695 24.4418 -1.51695 24.4418C-1.51697 24.4419 -1.51699 24.442 0.61902 24.8312ZM2.83148 24.8677C2.91392 24.5311 3.02791 24.0535 3.17368 23.4498L-1.04735 22.4306C-1.19768 23.0531 -1.30576 23.5062 -1.38617 23.8345L2.83148 24.8677ZM3.16321 23.4914C3.37335 22.6907 3.44753 22.1964 3.73139 21.5201L-0.272623 19.8396C-0.714205 20.8918 -0.921317 21.9487 -1.03688 22.389L3.16321 23.4914ZM3.7632 21.4398C3.9307 20.9916 4.10631 20.504 4.28837 20.0026L0.206736 18.5206C0.0186777 19.0385 -0.146229 19.4965 -0.304439 19.9199L3.7632 21.4398ZM4.27499 20.0384C4.37635 19.7739 4.47977 19.4962 4.58419 19.1997L0.488307 17.7575C0.400256 18.0076 0.311222 18.247 0.220111 18.4847L4.27499 20.0384ZM4.51015 19.3829C4.61411 19.1559 4.72506 18.9353 4.87278 18.6323L0.969568 16.7294C0.850802 16.973 0.695265 17.2842 0.562342 17.5743L4.51015 19.3829ZM4.87278 18.6323C5.20072 17.9596 5.34562 17.6853 5.72304 16.9132L1.82186 15.0062C1.60709 15.4455 1.1746 16.3088 0.969568 16.7294L4.87278 18.6323ZM5.74991 16.8562C5.83171 16.6757 5.93811 16.4871 6.0816 16.275L2.48484 13.842C2.2286 14.2208 1.99448 14.6232 1.79499 15.0632L5.74991 16.8562ZM6.10248 16.2435C6.28201 15.9679 6.53714 15.5607 6.69322 15.3184L3.04279 12.9667C2.79915 13.3449 2.66935 13.5582 2.46396 13.8735L6.10248 16.2435ZM6.74946 15.2261C7.38145 14.1288 8.27802 13.0829 9.43233 11.647L6.04797 8.92632C5.04077 10.1792 3.83505 11.5857 2.98656 13.059L6.74946 15.2261ZM9.35753 11.7351C11.4943 9.34923 14.3661 6.97686 18.0069 5.16031L16.0683 1.27475C11.8921 3.35841 8.59032 6.0829 6.12277 8.83819L9.35753 11.7351ZM18.1572 5.07773C18.4593 4.89592 18.6989 4.82847 19.4044 4.52235L17.6761 0.538768C17.3602 0.675848 16.5486 0.97774 15.9179 1.35732L18.1572 5.07773ZM19.3698 4.53703C19.8887 4.32249 20.4019 4.11033 20.9217 3.89849L19.2827 -0.122675C18.7513 0.0939175 18.2282 0.310192 17.7108 0.524083L19.3698 4.53703ZM20.8462 3.92764C21.8478 3.5623 22.8225 3.31166 24.0732 2.93075L22.8081 -1.22323C21.7789 -0.909783 20.5033 -0.569485 19.3582 -0.151821L20.8462 3.92764ZM23.8449 2.98698C24.4806 2.86652 24.9971 2.76264 25.6092 2.64811L24.8106 -1.62017C24.2383 -1.5131 23.5703 -1.38061 23.0365 -1.27946L23.8449 2.98698ZM25.5789 2.65355C26.4578 2.50196 26.6704 2.41102 27.1008 2.39568L26.9461 -1.94391C26.1329 -1.91493 25.1611 -1.68085 24.8408 -1.62562L25.5789 2.65355ZM27.1787 2.3915C28.6649 2.28493 29.5666 2.11689 30.6538 2.18587L30.9288 -2.14776C29.4547 -2.24129 27.8544 -2.01045 26.8682 -1.93973L27.1787 2.3915ZM30.7787 2.19019C35.5533 2.21781 40.6937 3.39314 45.2329 6.19521L47.5139 2.50019C42.193 -0.784434 36.2446 -2.12061 30.8038 -2.15208L30.7787 2.19019ZM45.3338 6.25385C46.4298 6.8515 47.3851 7.62658 48.6626 8.58269L51.2645 5.10617C50.1732 4.28945 48.8634 3.23261 47.4129 2.44156L45.3338 6.25385ZM48.6384 8.56428C48.8468 8.72489 49.06 8.91526 49.3196 9.15755C49.5571 9.37917 49.8744 9.68383 50.1876 9.95933L53.0558 6.69901C52.8063 6.47959 52.587 6.26718 52.2822 5.98281C51.9997 5.7191 51.6651 5.41456 51.2887 5.12458L48.6384 8.56428ZM50.1465 9.92226L50.9682 10.6831L53.9185 7.49692L53.0968 6.73608L50.1465 9.92226ZM50.8268 10.5394L51.5819 11.3815L54.8149 8.48267L54.0599 7.64057L50.8268 10.5394ZM51.6228 11.4259C53.5181 13.4249 55.0948 15.8426 56.3813 18.5011L60.29 16.6094C58.8525 13.6392 57.0388 10.827 54.774 8.43825L51.6228 11.4259ZM56.3655 18.4676L56.8614 19.5386L60.8018 17.714L60.3059 16.6429L56.3655 18.4676ZM56.8744 19.5661C57.0508 19.9334 57.1458 20.1474 57.2006 20.3334L61.3658 19.1057C61.1985 18.5382 60.9531 18.0284 60.7889 17.6865L56.8744 19.5661ZM57.2385 20.4499C57.5048 21.1955 57.755 21.9164 58.0283 22.6891L62.1222 21.2412C61.8625 20.507 61.5945 19.7358 61.3278 18.9892L57.2385 20.4499ZM57.971 22.4999C58.3895 24.1471 58.7811 25.4884 58.9302 26.8988L63.2485 26.4422C63.0571 24.632 62.5456 22.8709 62.1795 21.4304L57.971 22.4999ZM58.9395 26.974C59.3631 29.9741 59.3625 33.0567 58.7485 36.0257L63.0009 36.905C63.7342 33.3589 63.7188 29.7639 63.2392 26.367L58.9395 26.974ZM58.7372 36.0843C57.6556 42.1507 54.4698 47.6345 50.1926 51.587L53.1396 54.7762C58.071 50.2192 61.7547 43.8989 63.0122 36.8465L58.7372 36.0843ZM50.196 51.5839C49.5879 52.1434 49.153 52.5427 48.6852 52.8384L51.005 56.5091C51.8696 55.9627 52.6043 55.2688 53.1362 54.7794L50.196 51.5839ZM48.652 52.8598C47.9945 53.2922 47.4122 53.6717 46.8163 54.005L48.9358 57.7949C49.6871 57.3747 50.3929 56.9122 51.0382 56.4878L48.652 52.8598ZM46.7715 54.0308C45.5286 54.7652 44.2481 55.4113 42.9433 55.9753L44.6662 59.9612C46.1298 59.3286 47.5734 58.6007 48.9806 57.7692L46.7715 54.0308ZM42.9344 55.9792C40.3387 57.115 37.6533 57.8865 34.9748 58.3389L35.698 62.6206C38.7045 62.1128 41.7338 61.2444 44.6751 59.9573L42.9344 55.9792ZM34.9887 58.3366C29.631 59.2056 24.3808 58.7309 19.9209 57.1225L18.4477 61.2073C23.6554 63.0854 29.6568 63.6006 35.684 62.6229L34.9887 58.3366ZM19.937 57.1284C19.3857 56.9246 18.8577 56.7065 18.3613 56.4685L16.4838 60.384C17.1273 60.6926 17.7837 60.962 18.4316 61.2014L19.937 57.1284ZM18.4426 56.5096C17.8823 56.2114 17.3075 55.913 16.775 55.633L14.7538 59.4762C15.3168 59.7724 15.8524 60.0501 16.4025 60.3429L18.4426 56.5096ZM16.7951 55.6437C16.4116 55.4368 16.2843 55.382 16.0805 55.2577L13.8197 58.9651C14.1488 59.1658 14.5693 59.3769 14.7336 59.4655L16.7951 55.6437ZM16.1242 55.285L15.3543 54.7901L13.0062 58.4428L13.776 58.9377L16.1242 55.285ZM15.395 54.8169C14.6664 54.3251 14.4293 54.2252 13.9957 53.894L11.3594 57.3445C11.8734 57.7372 12.6873 58.2283 12.9655 58.416L15.395 54.8169ZM14.0106 53.9055C12.977 53.1015 12.1959 52.5452 11.5023 51.8594L8.44908 54.9471C9.38402 55.8716 10.4979 56.6745 11.3445 57.333L14.0106 53.9055ZM11.3927 51.7582C10.6443 51.1135 10.0003 50.3958 9.22744 49.5552L6.03078 52.4942C6.73842 53.2639 7.57494 54.2008 8.55864 55.0482L11.3927 51.7582ZM9.2538 49.5844C6.57653 46.5643 4.86052 43.2582 3.77273 40.2299L-0.313964 41.6979C0.922603 45.1404 2.893 48.9551 6.00442 52.465L9.2538 49.5844ZM3.78015 40.2509C2.72688 37.2214 2.32543 34.4547 2.18653 32.1886L-2.14768 32.4542C-1.99048 35.019 -1.53325 38.1913 -0.321382 41.6769L3.78015 40.2509ZM2.18959 32.2553C2.11911 29.9415 2.26184 28.1911 2.43203 27.0807L-1.8602 26.4228C-2.07494 27.8239 -2.22832 29.8408 -2.15074 32.3875L2.18959 32.2553ZM2.42742 27.1094C2.5301 26.4947 2.61065 26.027 2.66912 25.6915L-1.60874 24.946C-1.66871 25.2901 -1.75101 25.7679 -1.8556 26.3941L2.42742 27.1094ZM2.6662 25.7079C2.69295 25.5611 2.71399 25.4548 2.72747 25.3891C2.7342 25.3562 2.73905 25.3334 2.74179 25.3208C2.74315 25.3145 2.74399 25.3107 2.74426 25.3095C2.7444 25.3089 2.7444 25.3089 2.74425 25.3095C2.74418 25.3098 2.74407 25.3103 2.74393 25.311C2.74386 25.3113 2.74377 25.3116 2.74368 25.312C2.74364 25.3122 2.74359 25.3125 2.74354 25.3127C2.74352 25.3128 2.74349 25.3129 2.74347 25.313C2.74345 25.3131 2.74343 25.3132 2.74343 25.3132C2.74341 25.3133 2.74339 25.3134 0.626422 24.8312C-1.49054 24.3491 -1.49056 24.3492 -1.49058 24.3492C-1.49059 24.3493 -1.49061 24.3494 -1.49062 24.3494C-1.49065 24.3496 -1.49068 24.3497 -1.49071 24.3498C-1.49077 24.3501 -1.49083 24.3503 -1.49089 24.3506C-1.49102 24.3512 -1.49116 24.3518 -1.4913 24.3524C-1.49159 24.3537 -1.49191 24.3551 -1.49227 24.3567C-1.49299 24.3599 -1.49384 24.3637 -1.49483 24.3682C-1.49681 24.3771 -1.49933 24.3885 -1.50236 24.4025C-1.50842 24.4305 -1.51652 24.4687 -1.52644 24.5171C-1.54627 24.6139 -1.57335 24.7513 -1.60582 24.9295L2.6662 25.7079Z" fill="#16110D" mask="url(#path-2-inside-1_788_11183)"/>
<path d="M54.008 61.5498C53.9862 61.4253 53.9707 61.3104 53.9598 61.2057V61.5508C53.9761 61.5508 53.9922 61.5505 54.008 61.5498ZM53.9598 59.3796C53.9759 59.3796 53.9918 59.38 54.0075 59.3806C53.9868 59.4954 53.9711 59.602 53.9598 59.7V59.3796ZM52.9867 58.9472C52.8882 59.4067 52.8432 59.8164 52.852 60.1493C52.8522 60.2596 52.8541 60.366 52.86 60.4545C52.8602 60.4582 52.8605 60.4622 52.8608 60.4665C52.8605 60.4714 52.8602 60.4758 52.8599 60.4799C52.8538 60.5725 52.852 60.6841 52.852 60.7976C52.852 61.0917 52.8815 61.4924 52.9867 61.9832C53.1982 62.9897 53.8181 64.4436 55.267 65.5837C56.704 66.7434 59.0744 67.4183 61.4127 66.5784C62.5722 66.1763 63.6696 65.3987 64.4539 64.3266C65.2743 63.2428 65.717 61.872 65.7344 60.4788L65.7345 60.4686L65.7345 60.4584C65.7257 59.0646 65.2725 57.6861 64.4552 56.6055C63.6663 55.519 62.5582 54.7521 61.4139 54.3524C59.0811 53.514 56.7011 54.1748 55.2642 55.349C53.8172 56.4888 53.198 57.9414 52.9867 58.9472Z" fill="white" stroke="#16110D" stroke-width="2.17118"/>
<path d="M24.2756 30.4674C24.2756 32.0038 23.0246 33.2448 21.4923 33.2448C19.96 33.2448 18.709 31.9964 18.709 30.4674C18.709 28.9383 19.96 27.6899 21.4923 27.6899C23.0246 27.6899 24.2756 28.9383 24.2756 30.4674Z" fill="#263238"/>
<path d="M33.4328 30.4674C33.4328 32.0038 32.1818 33.2448 30.6495 33.2448C29.1172 33.2448 27.8662 31.9964 27.8662 30.4674C27.8662 28.9383 29.1172 27.6899 30.6495 27.6899C32.1818 27.6899 33.4328 28.9383 33.4328 30.4674Z" fill="#263238"/>
<path d="M42.5901 30.4674C42.5901 32.0038 41.339 33.2448 39.8067 33.2448C38.2744 33.2448 37.0234 31.9964 37.0234 30.4674C37.0234 28.9383 38.2744 27.6899 39.8067 27.6899C41.339 27.6899 42.5901 28.9383 42.5901 30.4674Z" fill="#263238"/>
<path d="M91.0166 123.105C93.0005 121.406 95.806 120.933 97.8194 119.279C99.8329 117.624 100.795 114.957 100.921 112.357C101.047 109.757 100.44 107.186 99.7885 104.667L121.322 131.644C119.612 134.613 117.769 137.612 115.089 139.755C112.41 141.897 108.694 143.057 105.466 141.889C102.239 140.722 100.048 136.741 101.528 133.653C98.6337 136.335 93.6075 136.386 90.7872 133.624C87.9668 130.861 88.0186 125.675 91.0166 123.105Z" fill="#263238"/>
<path d="M153.248 44.3105C158.467 48.1147 159.326 51.9115 159.533 53.9429C159.592 54.5412 159.496 55.2947 158.926 55.4793C158.652 55.568 158.349 55.4793 158.067 55.3981C152.242 53.6326 146.423 51.8672 140.598 50.1018" fill="#263238"/>
<path d="M104.976 112.313C101.045 105.281 97.1367 98.182 94.4718 90.581C91.8143 82.98 90.4449 74.7807 91.7403 66.8325C91.9402 65.6285 94.0128 57.3922 95.2342 57.2814C96.1077 57.2002 95.2935 64.6534 95.8708 65.3108C101.386 71.56 104.176 79.8332 105.131 88.1064C106.079 96.3796 105.827 104.04 104.976 112.32" fill="#263238"/>
<path d="M104.976 112.313C101.045 105.281 97.1367 98.182 94.4718 90.581C91.8143 82.98 90.4449 74.7807 91.7403 66.8325C91.9402 65.6285 94.0128 57.3922 95.2342 57.2814C96.1077 57.2002 95.2935 64.6534 95.8708 65.3108C101.386 71.56 104.176 79.8332 105.131 88.1064C106.079 96.3796 105.827 104.04 104.976 112.32" stroke="#020302" stroke-width="0.723725" stroke-miterlimit="10"/>
<path d="M113.275 155.053L98.2484 82.3228C93.6959 62.6444 101.38 43.6013 121.218 39.6051L123.076 39.3392C141.745 36.6947 159.318 48.7942 163.456 67.1503C167.306 84.2286 171.34 103.146 172.546 112.431C175.034 131.652 156.232 137.354 156.232 137.354C156.187 137.362 159.755 156.752 160.799 162.344L131.737 166.03L124.742 166.658L113.283 155.053H113.275Z" fill="white" stroke="#020302" stroke-width="2.17118" stroke-miterlimit="10"/>
<path d="M156.225 137.361C156.225 137.361 144.203 139.784 130.139 133.52C130.139 133.52 137.289 141.801 156.225 137.361Z" fill="white" stroke="#020302" stroke-width="2.17118" stroke-miterlimit="10"/>
<path d="M159.917 85.8686C160.176 87.3091 159.162 88.7125 157.659 89.008C156.164 89.3035 154.735 88.3801 154.476 86.9397C154.217 85.4993 155.231 84.0958 156.726 83.8003C158.229 83.5049 159.65 84.4356 159.909 85.8686H159.917Z" fill="#263238" stroke="#020302" stroke-width="0.723725" stroke-miterlimit="10"/>
<path d="M160.568 76.2057C160.28 76.612 157.978 75.371 155.024 75.7921C152.071 76.1762 150.116 78.0007 149.746 77.6831C149.568 77.5427 149.82 76.8484 150.664 76.0285C151.493 75.2159 152.988 74.3221 154.832 74.071C156.675 73.8198 158.318 74.2778 159.303 74.8466C160.309 75.4154 160.709 76.0137 160.561 76.1984L160.568 76.2057Z" fill="#263238" stroke="#020302" stroke-width="0.723725" stroke-miterlimit="10"/>
<path d="M134.453 89.4433C134.712 90.8838 133.698 92.2872 132.195 92.5827C130.7 92.8782 129.271 91.9548 129.012 90.5144C128.753 89.074 129.767 87.6705 131.262 87.375C132.765 87.0796 134.186 88.0103 134.445 89.4433H134.453Z" fill="#263238" stroke="#020302" stroke-width="0.723725" stroke-miterlimit="10"/>
<path d="M131.706 80.9854C131.417 81.3917 129.115 80.1507 126.162 80.5791C123.208 80.9632 121.254 82.7878 120.884 82.4701C120.706 82.3298 120.958 81.6428 121.809 80.8229C122.638 80.0103 124.133 79.1165 125.977 78.8654C127.82 78.6142 129.463 79.0722 130.455 79.641C131.462 80.2098 131.862 80.8081 131.721 80.9928L131.706 80.9854Z" fill="#263238" stroke="#020302" stroke-width="0.723725" stroke-miterlimit="10"/>
<path d="M145.52 102.142C145.483 101.979 147.275 101.396 150.199 100.598C150.939 100.413 151.635 100.162 151.686 99.6304C151.79 99.0617 151.353 98.2934 150.865 97.4735C149.895 95.7524 148.881 93.95 147.822 92.059C143.566 84.3324 140.368 77.9429 140.679 77.773C140.99 77.6031 144.699 83.7267 148.955 91.4533C149.984 93.3591 150.976 95.1762 151.909 96.9195C152.316 97.732 152.945 98.6332 152.723 99.8225C152.597 100.413 152.101 100.901 151.642 101.1C151.176 101.315 150.754 101.388 150.384 101.462C147.415 102.046 145.557 102.327 145.52 102.157V102.142Z" fill="#263238" stroke="#020302" stroke-width="0.723725" stroke-miterlimit="10"/>
<path d="M131.351 71.627C131.055 72.4396 128.079 72.0481 124.578 72.4691C121.069 72.8163 118.241 73.8357 117.782 73.1118C117.575 72.7646 118.071 72.0038 119.211 71.2208C120.344 70.4378 122.15 69.6991 124.252 69.4627C126.354 69.2337 128.279 69.5661 129.552 70.0906C130.84 70.6077 131.484 71.2429 131.358 71.627H131.351Z" fill="#263238" stroke="#020302" stroke-width="0.723725" stroke-miterlimit="10"/>
<path d="M160.272 71.3679C159.761 72.1287 157.252 71.8111 154.365 72.2321C151.463 72.5645 149.102 73.5174 148.436 72.9043C148.139 72.6015 148.413 71.8776 149.383 71.0724C150.338 70.2746 152.018 69.4843 154.01 69.2257C156.001 68.9672 157.814 69.307 158.925 69.8314C160.05 70.3559 160.494 70.9912 160.279 71.3605L160.272 71.3679Z" fill="#263238" stroke="#020302" stroke-width="0.723725" stroke-miterlimit="10"/>
<path d="M101.838 96.3066C101.49 96.2106 88.0696 94.2753 90.3569 107.335C92.6443 120.395 105.31 115.409 105.265 115.032C105.221 114.655 101.838 96.3066 101.838 96.3066Z" fill="white" stroke="#020302" stroke-width="0.723725" stroke-miterlimit="10"/>
<path d="M100.402 110.784C100.335 110.754 100.202 110.983 99.8465 111.227C99.4986 111.463 98.8768 111.692 98.1514 111.559C96.6783 111.293 95.1312 109.306 94.6574 106.965C94.4132 105.783 94.465 104.608 94.7241 103.596C94.9535 102.57 95.4569 101.794 96.1305 101.55C96.7967 101.27 97.3593 101.602 97.5814 101.942C97.8183 102.274 97.7813 102.555 97.8553 102.562C97.8997 102.592 98.0996 102.296 97.8997 101.772C97.8035 101.521 97.5962 101.24 97.2409 101.041C96.8856 100.841 96.397 100.789 95.9233 100.93C94.9239 101.174 94.1837 102.259 93.895 103.367C93.5545 104.49 93.4731 105.82 93.7395 107.142C94.2799 109.757 96.0639 111.988 98.0478 112.202C99.0101 112.283 99.7281 111.87 100.069 111.493C100.417 111.101 100.439 110.799 100.387 110.784H100.402Z" fill="white" stroke="#020302" stroke-width="0.723725" stroke-miterlimit="10"/>
<path d="M151.027 47.1026C152.93 45.5514 145.328 39.8784 139.694 38.4823C131.189 36.3697 118.79 36.377 111.928 39.7528C103.667 43.8155 97.2192 49.4738 94.2953 58.1902C91.3787 66.9066 91.4305 76.4355 93.3477 85.4326C93.9325 88.1731 94.7468 91.0022 96.6566 93.0631C99.0106 95.6115 101.883 96.557 103.422 100.79C103.926 102.178 104.318 103.641 105.51 104.52C108.367 106.618 110.854 103.7 111.758 101.063C113.69 95.4269 112.89 89.2737 112.061 83.379C111.476 79.1908 110.862 74.9064 108.952 71.1318C107.916 69.0783 106.509 67.2094 105.584 65.1042C104.659 62.9916 104.266 60.4801 105.31 58.4265C105.48 58.0941 105.784 57.6583 106.176 57.1634C109.278 53.2484 114.282 51.3352 119.219 52.1182C127.051 53.3666 140.331 54.94 143.159 51.8523C147.223 47.4055 147.918 44.8571 147.918 44.8571L151.02 47.1174L151.027 47.1026Z" fill="#263238" stroke="#020302" stroke-width="0.723725" stroke-miterlimit="10"/>
<path d="M136.645 105.65C137.089 105.54 137.659 108.531 140.627 110.171C143.588 111.818 146.719 110.88 146.823 111.294C146.897 111.471 146.223 112.01 144.876 112.299C143.558 112.594 141.552 112.535 139.731 111.53C137.918 110.526 136.918 108.915 136.585 107.704C136.237 106.478 136.43 105.673 136.637 105.65H136.645Z" fill="#263238" stroke="#020302" stroke-width="0.723725" stroke-miterlimit="10"/>
<path d="M92.6673 97.421C92.3786 97.2437 92.0011 97.2659 91.7272 97.0886C73.6061 85.255 83.2663 68.9081 82.6667 64.5277C81.8376 58.4558 76.0415 67.3938 73.6505 59.6303C70.4823 49.3479 80.8901 42.8032 93.8813 35.7563C99.3221 32.8016 113.416 29.6252 126.348 29.9503C137.889 30.2383 146.742 36.7609 152.057 42.0424C152.057 42.0424 154.877 42.8254 155.714 43.8595C158.327 47.1171 157.712 48.757 157.712 48.757C157.712 48.757 130.827 40.5207 113.327 61.0116C95.8282 81.5025 102.194 95.2493 96.7979 96.4164L92.6747 97.4136L92.6673 97.421Z" fill="#455A64" stroke="#040504" stroke-width="2.17118" stroke-miterlimit="10"/>
<path d="M101.172 43.4249C101.172 43.4249 101.238 43.4176 99.0476 44.5169C98.7145 44.709 98.3222 44.9601 97.8706 45.2704C97.4191 45.5806 96.8935 45.9056 96.3531 46.3267C95.2428 47.1245 93.9918 48.166 92.6741 49.3996C91.3787 50.6553 90.0315 52.1179 88.7583 53.7652C87.4999 55.4272 86.4487 57.1114 85.5826 58.6995C84.7388 60.2951 84.0651 61.7798 83.5914 63.0577C83.3249 63.6856 83.1546 64.2839 82.977 64.7936C82.7919 65.3033 82.6661 65.7539 82.5624 66.1232C82.3478 66.8619 82.2219 67.2608 82.1923 67.2608C82.1701 67.2608 82.2441 66.8397 82.4144 66.0863C82.4958 65.7096 82.5995 65.2516 82.7697 64.7345C82.9326 64.21 83.088 63.6117 83.3397 62.9691C83.7838 61.669 84.4353 60.1547 85.2717 58.537C86.1304 56.9267 87.189 55.2204 88.4548 53.5362C89.7428 51.8668 91.1122 50.3968 92.4373 49.1484C93.7771 47.9148 95.0651 46.8881 96.2051 46.1125C96.7603 45.6988 97.3007 45.3886 97.7596 45.1005C98.2186 44.805 98.6331 44.576 98.9736 44.3987C99.6546 44.0368 100.032 43.8521 100.047 43.8743L101.172 43.4249Z" fill="#263238" stroke="black" stroke-width="0.723725"/>
<path d="M152.775 42.6329L153.972 42.6329L152.975 41.9698L152.971 41.9673C152.95 41.951 152.932 41.9408 152.924 41.9362C152.898 41.9219 152.875 41.913 152.865 41.9094C152.843 41.9009 152.817 41.893 152.797 41.8868C152.763 41.8767 152.718 41.8637 152.664 41.8484C152.648 41.844 152.632 41.8393 152.615 41.8344L152.615 41.8342L152.603 41.8313C152.428 41.7877 152.202 41.7295 151.918 41.6494L151.916 41.649C151.29 41.4758 150.37 41.267 149.186 41.0159L149.186 41.0158L149.177 41.0142C147.992 40.7924 146.522 40.5242 144.797 40.3453C143.074 40.1519 141.105 40.0253 138.918 40.07C134.559 40.1371 129.344 40.8967 123.92 42.9067C121.213 43.9041 118.461 45.199 115.769 46.8139L115.767 46.8148C113.082 48.445 110.464 50.4024 108.025 52.6649L108.025 52.6649L108.022 52.6676C105.608 54.9579 103.458 57.4223 101.687 60.0247L101.687 60.0253C99.9266 62.6232 98.4945 65.3027 97.3608 67.9522C95.0798 73.2559 93.9487 78.3468 93.2062 82.5997L93.2057 82.6029C92.4998 86.8739 92.2175 90.3732 92.047 92.7784L92.0469 92.7795C91.9652 93.9872 91.9206 94.9218 91.8982 95.5614H91.8982L91.8981 95.5652C91.8952 95.6837 91.8908 95.7999 91.8866 95.9087C91.8811 96.0526 91.8761 96.1836 91.8758 96.2896C91.8721 96.3751 91.872 96.4416 91.8731 96.489C91.8737 96.5134 91.8745 96.5327 91.8753 96.547L91.8765 96.5646L91.8769 96.5705L91.8771 96.5727L91.8772 96.5737L91.8773 96.5741L91.8773 96.5743L91.8773 96.5744L92.2377 96.5417L91.8773 96.5745L91.9073 96.9035H92.2377C92.4068 96.9035 92.5003 96.793 92.5194 96.7697C92.549 96.7334 92.5648 96.6996 92.5708 96.6863C92.5844 96.6561 92.5916 96.6293 92.5945 96.6181C92.6017 96.5909 92.6069 96.562 92.6107 96.5377C92.619 96.4859 92.6273 96.4162 92.635 96.3307L92.6351 96.3307L92.6353 96.328C92.6393 96.2802 92.6439 96.227 92.649 96.1686C92.6622 96.0164 92.6786 95.829 92.6947 95.6089C92.7465 94.9522 92.8204 94.03 92.9165 92.8496C93.1309 90.4518 93.4556 86.9931 94.1928 82.7698C94.9604 78.5574 96.1091 73.5581 98.3583 68.3797L98.3585 68.3793C99.4752 65.7987 100.878 63.182 102.604 60.6465C104.327 58.1226 106.418 55.7197 108.785 53.4826C111.172 51.2763 113.721 49.3635 116.342 47.7661C118.973 46.1825 121.654 44.9071 124.298 43.9251L124.298 43.9249C129.593 41.9462 134.69 41.1768 138.948 41.0742L138.949 41.0742C141.085 41.0156 143.016 41.1254 144.707 41.2942L144.71 41.2944C146.394 41.4472 147.825 41.6867 149.013 41.8854L149.031 41.8885L149.04 41.8903C150.222 42.1187 151.126 42.2935 151.736 42.4385L151.736 42.4387L151.749 42.4413C151.953 42.4821 152.127 42.5188 152.275 42.5502C152.339 42.5638 152.399 42.5763 152.454 42.5878C152.546 42.6087 152.619 42.6199 152.673 42.626C152.7 42.6291 152.722 42.6308 152.739 42.6318C152.747 42.6323 152.755 42.6325 152.761 42.6327L152.769 42.6329L152.772 42.6329L152.773 42.6329L152.774 42.6329L152.774 42.6329L152.774 42.6329C152.775 42.6329 152.775 42.6329 152.775 42.2711L152.775 42.6329Z" fill="#263238" stroke="black" stroke-width="0.723725"/>
<path d="M99.8837 89.4359C99.9281 89.5246 98.2922 90.049 96.2713 89.6501C94.2505 89.266 92.9328 88.1654 93.0069 88.0989C93.0661 87.9955 94.4207 88.9115 96.3454 89.266C98.27 89.6501 99.8615 89.3103 99.8837 89.4285V89.4359Z" fill="#263238"/>
<path d="M104.638 76.62C104.638 76.6643 104.097 76.7012 103.239 76.5682C102.38 76.4427 101.21 76.1103 100.041 75.4824C98.8711 74.8545 97.9458 74.0641 97.361 73.4289C96.7762 72.7862 96.5097 72.3208 96.5393 72.2987C96.6282 72.21 97.9236 73.9386 100.218 75.15C102.491 76.3836 104.652 76.5018 104.63 76.6273L104.638 76.62Z" fill="#263238"/>
<path d="M113.852 60.214C113.756 60.2805 112.661 58.5889 110.766 57.0524C108.878 55.4938 107.005 54.7625 107.05 54.6517C107.064 54.5631 109.063 55.1467 111.01 56.7496C112.964 58.3377 113.941 60.1697 113.852 60.2066V60.214Z" fill="#263238"/>
<path d="M124.61 52.1252C124.499 52.1622 123.966 50.4041 122.722 48.5648C121.493 46.7107 120.064 45.551 120.146 45.4624C120.19 45.3811 121.767 46.4374 123.04 48.3506C124.328 50.2564 124.706 52.1179 124.61 52.1252Z" fill="#263238"/>
<path d="M142.212 47.7153C142.087 47.7153 142.331 45.8317 141.339 43.8225C140.384 41.7911 138.755 40.8013 138.837 40.7053C138.859 40.6683 139.296 40.853 139.881 41.3331C140.465 41.8059 141.176 42.611 141.687 43.66C142.19 44.7089 142.375 45.7652 142.375 46.5186C142.375 47.2795 142.249 47.7301 142.212 47.7227V47.7153Z" fill="#263238"/>
<path d="M153.456 48.3209C153.337 48.3061 153.574 46.8879 153.226 45.1963C152.9 43.4973 152.13 42.2859 152.234 42.2268C152.301 42.1603 153.256 43.3348 153.604 45.1224C153.966 46.9026 153.544 48.3578 153.456 48.3209Z" fill="#263238"/>
<g opacity="0.3">
<path d="M86.9297 294.595C96.0939 302.344 108.086 306.155 120.041 307.389C131.996 308.623 144.047 307.455 156.009 306.296C176.662 304.287 197.736 304.848 218.389 302.839C217.804 297.683 217.286 284.83 216.701 279.674L86.9371 288.944V294.595H86.9297Z" fill="black"/>
</g>
<path d="M208.684 209.774L240.907 205.489C240.907 205.489 231.95 172.906 220.543 157.224C210.069 142.82 190.645 141.985 186.499 141.978L156.853 141.875C156.853 141.875 156.853 155.813 146.534 159.625C131.263 165.268 107.864 149.882 107.864 149.882L77.6913 167.957C76.7142 168.149 60.0809 175.824 60.192 201.404C60.2734 220.499 65.4107 238.818 65.4107 238.818L84.0055 230.08L88.1435 318.086L219.455 318.101L212.741 222.154L201.019 220.722L199.472 210.98L208.684 209.774Z" fill="#8969D3" stroke="black" stroke-width="2.17118" stroke-miterlimit="10"/>
<path d="M199.269 211.022L205.672 251.435C193.036 254.05 130.893 266.622 130.893 266.622L125.111 297.122C125.111 297.122 222.838 295.32 233.72 285.193C245.253 274.452 239.812 237.363 239.086 230.08C239.027 229.511 238.502 224.326 237.598 215.439C237.391 213.401 236.858 208.06 236.651 206.058C224.193 207.713 211.727 209.367 199.269 211.022Z" fill="white" stroke="#080908" stroke-width="2.17118" stroke-miterlimit="10"/>
<path d="M76.1725 255.83C76.1725 255.83 73.3299 254.471 71.9235 255.889C70.5096 257.307 69.5029 259.398 69.5029 259.398C69.5029 259.398 64.9356 258.031 63.0332 261.821C63.0332 261.821 59.6207 263.97 61.6489 268.196C61.6489 268.196 57.9995 273.278 60.9087 277.673C61.5675 278.67 62.1005 279.084 62.1005 279.084C62.1005 279.084 63.4699 284.38 65.2983 285.266C67.1267 286.153 73.6556 288.14 73.8777 285.156C74.0998 282.171 72.9302 282.445 72.9302 282.445C72.9302 282.445 80.6509 286.626 84.0708 289.691C87.4908 292.757 96.4773 297.314 102.022 297.307C107.566 297.292 105.197 285.392 105.197 285.392L76.1799 255.845L76.1725 255.83Z" fill="white" stroke="#080908" stroke-width="2.17118" stroke-miterlimit="10"/>
<path d="M143.855 135.685C142.589 133.979 141.367 132.206 139.961 130.426C139.184 129.584 138.14 128.956 137.007 128.668C135.904 128.358 134.787 128.048 133.654 127.73C133.091 127.575 132.521 127.412 131.951 127.25C131.367 127.087 130.752 127.006 130.138 127.006C128.909 127.006 127.658 127.361 126.6 128.04C124.734 129.281 122.832 130.552 120.907 131.844C122.047 129.503 123.202 127.124 124.386 124.694C126.437 124.265 128.509 123.822 130.619 123.379C132.455 124.11 134.387 124.664 136.423 124.783C137.444 124.834 138.51 124.753 139.495 124.339C140.486 123.933 141.264 123.047 141.597 122.027L141.641 121.88L141.508 121.806C139.006 120.358 136.474 118.888 133.913 117.403L133.869 117.374H133.817C129.953 117.44 126.03 117.507 122.062 117.573C121.137 117.588 120.211 117.603 119.36 117.617H119.271L119.219 117.691C117.828 119.42 116.429 121.097 115.2 122.914C114.193 124.664 113.201 126.386 112.239 128.055C111.047 124.982 109.87 121.953 108.774 119.124C108.76 115.63 108.752 112.196 108.737 108.82C108.737 107.136 108.523 105.363 107.627 103.885C107.183 103.154 106.532 102.519 105.725 102.186C104.925 101.847 104.022 101.824 103.208 102.039C102.801 102.142 102.401 102.29 102.031 102.482L101.89 102.548L101.824 102.585C101.824 102.585 101.787 102.585 101.727 102.659C101.705 102.689 101.683 102.718 101.668 102.755L101.653 102.8L101.631 102.881C101.616 102.94 101.609 102.984 101.594 103.036C101.55 103.243 101.52 103.442 101.491 103.642C101.372 104.439 101.283 105.237 101.194 106.028C101.024 107.608 100.884 109.182 100.765 110.733C100.55 113.835 100.343 116.864 100.491 119.833C100.521 120.203 100.55 120.572 100.624 120.949C100.698 121.318 100.795 121.658 100.876 122.02C101.046 122.729 101.224 123.423 101.394 124.118C101.735 125.506 102.075 126.88 102.401 128.225C103.067 130.921 103.704 133.529 104.326 136.04C105.562 141.063 106.709 145.717 107.753 149.942V149.957C108.538 151.981 109.285 153.894 110.04 155.681C110.41 156.575 110.832 157.432 111.217 158.252C111.587 159.079 111.876 159.914 112.083 160.734C112.513 162.374 112.616 163.955 112.653 165.402C112.72 166.85 112.616 168.172 112.535 169.354C112.357 171.725 112.165 173.55 112.039 174.784C111.98 175.397 111.928 175.862 111.898 176.187C111.869 176.497 111.861 176.66 111.861 176.66H111.876L107.457 223.418L107.279 223.1C107.294 222.968 107.301 222.849 107.316 222.746C107.353 222.377 107.368 222.185 107.353 222.185C107.338 222.185 107.301 222.377 107.242 222.739C107.227 222.805 107.22 222.886 107.205 222.968C106.643 221.985 106.087 220.995 105.525 220.013C94.0363 225.413 82.5403 230.812 71.0518 236.212C72.399 244.958 76.041 260.352 87.3593 275.377C91.7859 281.249 108.849 303.882 121.24 300.189C136.978 295.491 137.111 250.742 137.192 223.425C137.252 202.58 135.386 185.517 133.78 174.296H133.765C133.765 174.296 133.876 174.2 134.069 173.986C134.261 173.772 134.535 173.447 134.883 172.996C135.556 172.095 136.526 170.706 137.377 168.69C137.792 167.678 138.17 166.518 138.392 165.188C138.628 163.866 138.606 162.389 138.488 160.823C138.236 157.691 137.503 154.13 136.156 150.326C135.808 147.475 135.46 144.394 134.89 141.1C135.549 139.859 136.23 138.588 136.97 137.2C138.125 137.658 139.361 137.99 140.672 138.02C141.345 138.034 142.056 137.909 142.678 137.547C143.299 137.185 143.721 136.535 143.914 135.841L143.936 135.774L143.892 135.715L143.855 135.685Z" fill="white" stroke="#080908" stroke-width="2.17118" stroke-miterlimit="10"/>
<path d="M64.0798 268.847C64.0798 268.847 64.4425 268.965 65.0717 269.238C65.7602 269.548 66.6559 269.955 67.7218 270.435C68.8544 270.967 70.172 271.58 71.6303 272.259C72.0004 272.437 72.3705 272.614 72.7554 272.791C72.9479 272.88 73.1404 272.976 73.3402 273.065C73.5401 273.168 73.7844 273.279 73.925 273.574C73.9917 273.722 73.9917 273.892 73.925 274.047C73.8584 274.195 73.74 274.298 73.6289 274.372C73.3995 274.512 73.1404 274.571 72.9109 274.594C72.4445 274.66 71.9708 274.667 71.4896 274.645C69.5724 274.52 67.8699 273.907 66.2857 273.655C65.5011 273.515 64.7312 273.456 64.0724 273.641C63.4062 273.818 62.9176 274.276 62.6141 274.778C62.0071 275.805 62.0441 276.847 62.0367 277.511C62.0515 278.191 62.0738 278.575 62.0441 278.575C62.0219 278.575 61.9479 278.206 61.8887 277.519C61.8517 276.847 61.7554 275.775 62.3773 274.638C62.6808 274.084 63.2359 273.545 63.9762 273.33C64.7164 273.109 65.5307 273.168 66.3376 273.301C67.9587 273.545 69.6686 274.143 71.5044 274.261C71.9634 274.283 72.4149 274.283 72.8517 274.217C73.2662 274.195 73.703 273.958 73.5697 273.722C73.4513 273.471 72.9479 273.316 72.5926 273.124C72.2077 272.939 71.8375 272.754 71.4748 272.577C70.0388 271.868 68.7285 271.233 67.6034 270.679C66.5596 270.154 65.6861 269.711 65.0051 269.371C64.3981 269.054 64.065 268.869 64.0724 268.847H64.0798Z" fill="#080908" stroke="black" stroke-width="0.723725"/>
<path d="M76.3206 266.623C76.2836 266.675 75.61 266.231 74.47 265.603C73.3374 264.976 71.7237 264.185 69.8583 263.52C67.9929 262.863 66.2459 262.457 64.9653 262.235C63.6847 262.006 62.8852 261.917 62.8926 261.858C62.8926 261.814 63.7069 261.807 65.0097 261.969C66.3125 262.132 68.0965 262.494 69.9915 263.166C71.8792 263.838 73.5003 264.68 74.6107 265.374C75.721 266.069 76.3502 266.586 76.3206 266.623Z" fill="#080908" stroke="black" stroke-width="0.723725"/>
<path d="M75.446 262.393C75.3839 262.498 74.1299 261.77 72.5619 260.983C71.7735 260.596 71.0436 260.296 70.4942 260.133C69.9454 259.962 69.5938 259.906 69.5994 259.847C69.6036 259.803 69.9717 259.764 70.5637 259.872C71.149 259.972 71.9339 260.24 72.7356 260.643C74.3384 261.456 75.4973 262.323 75.4453 262.4L75.446 262.393Z" fill="#080908" stroke="black" stroke-width="0.723725"/>
<path d="M73.5612 282.784C73.5612 282.829 73.043 282.858 72.2213 282.733C71.3997 282.614 70.2893 282.312 69.1197 281.846C67.9501 281.381 66.936 280.871 66.2106 280.48C65.4925 280.088 65.0558 279.815 65.0854 279.77C65.1372 279.66 66.9656 280.561 69.2678 281.492C70.4225 281.95 71.4885 282.282 72.2806 282.474C73.0652 282.666 73.5686 282.733 73.5686 282.792L73.5612 282.784Z" fill="#080908" stroke="black" stroke-width="0.723725"/>
<path d="M68.4826 281.196C68.5788 281.219 68.4012 281.957 67.7349 282.578C67.0761 283.198 66.3285 283.331 66.3063 283.228C66.2693 283.124 66.8837 282.851 67.4685 282.297C68.0607 281.75 68.3716 281.16 68.4752 281.196H68.4826Z" fill="#080908" stroke="black" stroke-width="0.723725"/>
<path d="M222.817 269.947C222.735 269.969 222.439 268.514 221.529 266.32C221.299 265.774 221.04 265.175 220.707 264.562C220.411 263.934 220.011 263.299 219.611 262.627C218.767 261.305 217.731 259.916 216.502 258.594C215.251 257.279 213.934 256.163 212.668 255.233C212.016 254.789 211.409 254.354 210.802 254.014C210.21 253.645 209.633 253.349 209.1 253.083C206.968 252.034 205.525 251.643 205.554 251.561C205.554 251.539 205.917 251.628 206.568 251.82C206.894 251.909 207.286 252.034 207.723 252.211C208.167 252.389 208.685 252.566 209.218 252.839C209.766 253.091 210.358 253.379 210.965 253.741C211.595 254.073 212.216 254.501 212.875 254.945C214.171 255.868 215.518 256.998 216.784 258.328C218.035 259.672 219.071 261.09 219.915 262.442C220.315 263.129 220.699 263.779 220.996 264.422C221.321 265.05 221.566 265.663 221.788 266.217C222.025 266.771 222.173 267.295 222.321 267.746C222.476 268.196 222.572 268.595 222.639 268.928C222.787 269.585 222.854 269.947 222.831 269.947H222.817Z" fill="#16110D" stroke="black" stroke-width="0.723725"/>
<path d="M190.312 168.955C190.312 168.955 190.409 169.14 190.564 169.509C190.727 169.915 190.949 170.455 191.223 171.127C191.763 172.545 192.481 174.628 193.222 177.243C194.732 182.466 196.249 189.823 197.582 197.993C198.907 206.17 199.847 213.608 200.52 218.993C200.846 221.66 201.105 223.824 201.298 225.368C201.379 226.092 201.446 226.675 201.49 227.104C201.527 227.503 201.542 227.709 201.535 227.709C201.52 227.709 201.483 227.503 201.416 227.111C201.35 226.683 201.261 226.107 201.15 225.383C200.935 223.839 200.631 221.682 200.254 219.023C199.514 213.645 198.529 206.221 197.212 198.052C195.879 189.889 194.406 182.539 192.97 177.31C192.267 174.695 191.593 172.604 191.097 171.171C190.845 170.484 190.653 169.938 190.505 169.531C190.372 169.155 190.312 168.955 190.32 168.948L190.312 168.955Z" fill="#263238" stroke="black" stroke-width="0.723725"/>
<path d="M94.1316 187.023C94.2352 186.986 96.9149 194.358 100.12 203.488C103.325 212.618 105.842 220.041 105.746 220.078C105.642 220.115 102.963 212.743 99.7574 203.613C96.5522 194.491 94.0353 187.06 94.1316 187.023Z" fill="#263238" stroke="black" stroke-width="0.723725"/>
<path d="M141.619 132.612C139.287 131.711 136.778 130.743 134.276 130.935C133.062 131.09 131.907 131.792 130.737 132.198C129.531 132.679 128.309 133.122 127.073 133.513C129.346 132.317 131.678 130.758 134.194 130.197C136.904 130.012 139.443 131.142 141.619 132.612Z" fill="#020302"/>
</svg>
