<svg width="414" height="408" viewBox="0 0 414 408" fill="none" xmlns="http://www.w3.org/2000/svg">
    <path d="M807.64 226.375H77.8145V333.464H807.64V226.375Z" fill="#139BE8" stroke="black" stroke-width="1.0449" stroke-miterlimit="10"/>
    <g opacity="0.5">
        <path d="M807.64 226.375H77.8145V333.464H807.64V226.375Z" fill="black" stroke="black" stroke-width="1.0449" stroke-miterlimit="10"/>
    </g>
    <path d="M180.605 402.951C219.384 400.342 248.706 366.789 246.096 328.01C243.486 289.23 209.934 259.909 171.154 262.518C132.375 265.128 103.053 298.681 105.663 337.46C108.273 376.24 141.825 405.561 180.605 402.951Z" fill="#263238" stroke="black" stroke-width="1.0449" stroke-miterlimit="10"/>
    <path d="M105.53 331.544C105.53 331.544 105.53 331.662 105.53 331.728C104.964 370.586 136.022 402.551 174.879 403.103C213.737 403.669 245.702 372.612 246.268 333.754C246.268 333.688 246.268 333.635 246.268 333.57L105.556 331.544H105.53Z" fill="#263238" stroke="black" stroke-width="1.0449" stroke-miterlimit="10"/>
    <path d="M126.487 332.031C126.092 359.313 147.889 381.754 175.171 382.148C202.453 382.543 224.894 360.746 225.288 333.464C225.683 306.182 203.886 283.741 176.605 283.347C149.323 282.952 126.881 304.749 126.487 332.031Z" fill="#FAFAFA" stroke="black" stroke-width="1.0449" stroke-miterlimit="10"/>
    <path d="M176.59 283.346C149.308 282.952 126.867 304.748 126.473 332.03L225.274 333.451C225.669 306.169 203.872 283.728 176.59 283.333V283.346Z" fill="#E0E0E0" stroke="black" stroke-width="1.0449" stroke-miterlimit="10"/>
    <path d="M145.796 332.307C145.559 348.92 158.832 362.588 175.459 362.838C192.073 363.074 205.753 349.802 205.99 333.175C206.227 316.561 192.954 302.881 176.327 302.644C159.713 302.407 146.046 315.68 145.796 332.307Z" fill="#263238" stroke="black" stroke-width="1.0449" stroke-miterlimit="10"/>
    <path d="M268.131 166.128C268.131 166.128 164.502 173.771 126.092 182.387C99.0201 188.464 46.824 198.935 47.4554 231.781L51.599 255.314C51.599 255.314 32.2359 264.154 32.2359 286.727C32.2359 309.299 27.5135 344.303 72.6984 345.697C80.1437 345.934 94.2977 345.697 94.2977 345.697C94.2977 345.697 85.6159 249.448 174.052 246.619C264.014 243.752 258.042 344.816 258.042 344.816H633.491C633.491 344.816 618.088 246.356 714.93 246.225C811.771 246.08 797.038 345.461 797.038 345.461C797.038 345.461 832.66 348.539 849.235 318.6C865.809 288.66 861.494 267.35 861.494 267.35L860.942 248.421C860.758 241.976 855.601 236.78 849.169 236.53C849.169 236.53 855.641 188.872 845.709 180.624C835.778 172.377 781.359 122.627 781.359 122.627L783.95 120.996C788.291 118.273 787.541 111.722 782.687 110.052C762.022 102.948 721.165 88.8865 711.562 85.5321C710.115 85.0323 708.629 84.7166 707.103 84.5982C701.367 84.1641 685.148 83.1249 655.354 82.8092C619.061 82.4277 474.969 82.8092 474.969 82.8092C474.969 82.8092 425.378 86.887 397.754 99.0547C368.709 111.841 268.145 166.128 268.145 166.128H268.131Z" fill="#50BB76" stroke="black" stroke-width="1.0449" stroke-miterlimit="10"/>
    <g opacity="0.4">
        <path d="M58.505 284.109C54.7429 283.347 48.9813 283.268 46.1137 285.82C43.9827 287.714 43.4171 290.766 43.1014 293.607C42.6541 297.487 42.4305 301.473 43.3644 305.275C44.2852 309.076 46.5083 312.707 49.9416 314.575C53.3748 316.443 58.0972 316.14 60.7675 313.286C63.2142 310.681 63.4905 306.761 63.4247 303.183C63.3326 298.106 63.7404 293.804 62.8065 288.819C62.6223 287.872 62.1224 286.661 61.5173 285.925C60.5176 284.715 59.7547 284.202 58.5182 284.123" fill="black"/>
        <path d="M58.505 284.109C54.7429 283.347 48.9813 283.268 46.1137 285.82C43.9827 287.714 43.4171 290.766 43.1014 293.607C42.6541 297.487 42.4305 301.473 43.3644 305.275C44.2852 309.076 46.5083 312.707 49.9416 314.575C53.3748 316.443 58.0972 316.14 60.7675 313.286C63.2142 310.681 63.4905 306.761 63.4247 303.183C63.3326 298.106 63.7404 293.804 62.8065 288.819C62.6223 287.872 62.1224 286.661 61.5173 285.925C60.5176 284.715 59.7547 284.202 58.5182 284.123" stroke="black" stroke-width="1.0449" stroke-miterlimit="10"/>
    </g>
    <path d="M51.5997 255.315C62.5966 255.341 73.2779 254.71 84.2486 253.973C85.4324 253.894 86.7216 253.763 87.5897 252.96C88.6421 251.987 88.721 250.382 88.7342 248.948C88.7868 243.055 88.4974 236.346 84.0249 232.505C81.2888 230.164 77.5399 229.427 73.9619 229.085C65.1354 228.256 55.8748 228.94 47.4561 231.755L51.5997 255.288V255.315Z" fill="#FAFAFA" stroke="black" stroke-width="1.0449" stroke-miterlimit="10"/>
    <path d="M280.022 341.804C280.022 341.804 279.982 341.488 279.929 340.87C279.89 340.225 279.824 339.305 279.745 338.108C279.614 335.661 279.416 332.083 279.167 327.492C278.903 322.888 278.601 317.245 277.943 310.72C277.259 304.209 276.259 296.79 274.063 288.845C271.853 280.913 268.472 272.468 263.473 264.167C258.449 255.933 251.845 247.698 243.005 241.332C225.247 228.704 201.267 221.561 176.195 221.258C151.044 220.956 127.156 228.901 109.858 242.147C101.123 248.632 93.8886 256.209 88.3243 264.128C82.7075 272.021 78.6033 280.137 75.7225 287.845C72.8023 295.554 71.2632 302.907 70.3951 309.379C69.448 315.864 69.5927 321.533 69.7505 326.137C70.1057 330.728 70.5135 334.293 71.0396 336.661C71.2501 337.845 71.4211 338.752 71.5263 339.384C71.6316 340.002 71.671 340.318 71.671 340.318C71.671 340.318 71.5921 340.015 71.4606 339.397C71.329 338.765 71.1449 337.858 70.8949 336.687C70.3293 334.319 69.882 330.754 69.4743 326.15C69.277 321.546 69.0928 315.851 70.0004 309.339C70.8423 302.828 72.3419 295.448 75.249 287.687C78.1298 279.939 82.2208 271.757 87.8508 263.812C93.4282 255.841 100.689 248.198 109.476 241.661C126.866 228.309 150.912 220.285 176.208 220.587C201.425 220.903 225.51 228.085 243.387 240.832C252.305 247.277 258.935 255.591 263.973 263.878C268.985 272.231 272.366 280.742 274.549 288.713C276.733 296.711 277.693 304.156 278.338 310.681C278.969 317.219 279.232 322.862 279.443 327.479C279.64 332.083 279.785 335.648 279.89 338.108C279.943 339.305 279.982 340.225 280.008 340.87C280.035 341.488 280.022 341.817 280.022 341.817V341.804Z" fill="white" stroke="black" stroke-width="1.0449" stroke-miterlimit="10"/>
    <path d="M284.009 343.434C284.009 343.434 283.983 343.171 283.97 342.645L283.891 340.317C283.825 338.252 283.733 335.2 283.615 331.227C283.391 323.256 283.049 311.575 282.628 296.737C282.22 281.886 281.734 263.851 281.168 243.199C281.023 238.029 280.879 232.702 280.734 227.216C280.55 224.48 280.839 221.678 281.089 218.863C281.287 217.456 281.484 216.048 281.694 214.628C281.984 213.22 282.273 211.813 282.562 210.379C283.891 204.723 285.825 199.053 288.416 193.528C291.021 188.017 294.112 182.571 298.058 177.52L298.085 177.48L298.124 177.454C318.211 164.799 340.047 151.04 363.146 136.491C368.92 132.848 374.774 129.164 380.707 125.429C386.521 121.482 392.808 118.115 399.293 115.05C405.792 111.998 412.54 109.328 419.472 106.986C422.932 105.776 426.47 104.776 430.009 103.724C433.587 102.816 437.151 101.804 440.808 101.067C454.805 97.9625 468.906 96.4234 482.718 95.7789C496.543 95.1343 510.105 95.1738 523.286 95.9104L523.667 95.9367L523.588 96.3182C517.366 124.153 511.499 150.409 506.119 174.468V174.52L506.08 174.573C502.804 179.966 500.187 185.636 498.24 191.358C496.372 197.093 495.162 202.986 495.583 208.735C496.03 214.509 496.188 220.166 496.333 225.638C496.438 231.123 496.543 236.451 496.648 241.607C496.951 262.259 497.03 280.268 497.082 295.119C497.096 309.957 497.109 321.611 497.122 329.583C497.109 333.555 497.096 336.594 497.082 338.673C497.082 339.699 497.069 340.462 497.056 341.001C497.056 341.527 497.03 341.79 497.03 341.79C497.03 341.79 497.017 341.527 497.003 341.001C497.003 340.462 496.99 339.685 496.977 338.673C496.977 336.607 496.951 333.555 496.925 329.583C496.872 321.611 496.806 309.944 496.727 295.119C496.622 280.281 496.49 262.259 496.148 241.62C496.043 236.464 495.925 231.136 495.806 225.651C495.649 220.166 495.478 214.536 495.03 208.774C494.596 202.92 495.806 196.962 497.687 191.174C499.647 185.399 502.252 179.703 505.567 174.244L505.527 174.336C510.881 150.264 516.735 124.008 522.93 96.1735L523.233 96.5813C510.092 95.8446 496.53 95.8183 482.744 96.4629C468.959 97.1074 454.91 98.6465 440.953 101.738C437.309 102.461 433.758 103.487 430.193 104.382C426.668 105.434 423.142 106.421 419.696 107.631C412.79 109.959 406.055 112.616 399.583 115.655C393.124 118.707 386.863 122.061 381.088 125.968C375.155 129.704 369.302 133.387 363.527 137.018C340.402 151.553 318.553 165.299 298.453 177.927L298.519 177.862C294.625 182.834 291.534 188.267 288.942 193.739C286.351 199.224 284.43 204.854 283.102 210.471C280.142 221.744 281.629 232.873 281.655 243.173C282.168 263.825 282.615 281.859 282.983 296.71C283.339 311.548 283.615 323.229 283.799 331.201C283.878 335.173 283.944 338.225 283.996 340.29C284.009 341.317 284.023 342.093 284.036 342.619C284.036 343.145 284.036 343.408 284.036 343.408L284.009 343.434Z" fill="#263238" stroke="black" stroke-width="1.0449" stroke-miterlimit="10"/>
    <path d="M303.215 177.612L504.12 173.916L634.874 171.522L677.993 146.634C681.479 144.621 682.413 139.991 679.98 136.781L653.145 101.515C650.343 97.8313 646.002 95.6609 641.385 95.6214L495.136 94.4375C495.136 94.4375 440.059 91.2411 396.676 115.537C351.004 141.109 303.215 177.625 303.215 177.625V177.612Z" fill="#263238" stroke="black" stroke-width="1.0449" stroke-miterlimit="10"/>
    <path d="M395.293 98.0684C395.293 98.0684 405.369 102.659 398.805 106.921C392.255 111.17 290.467 175.35 290.467 175.35L267.065 164.761C308.515 141.662 350.385 119.247 395.293 98.0815V98.0684Z" fill="#455A64" stroke="black" stroke-width="1.0449" stroke-miterlimit="10"/>
    <path d="M293.755 176.941C293.755 176.941 293.545 177.007 293.124 177.099L291.269 177.507C289.612 177.849 287.204 178.348 284.126 178.98C277.917 180.216 268.92 181.953 257.765 183.86C235.455 187.701 204.464 192.174 170.039 195.16C161.436 195.909 153.018 196.528 144.888 197.054C136.759 197.593 128.919 198.08 121.474 198.764C106.583 200.066 93.2314 202.237 82.3922 205.459C71.5268 208.577 63.2133 212.576 57.7543 215.733C54.9524 217.206 52.9661 218.653 51.5455 219.521C50.8614 219.955 50.3353 220.297 49.9406 220.534C49.5723 220.758 49.375 220.863 49.375 220.863C49.375 220.863 49.546 220.718 49.888 220.482C50.2695 220.218 50.7825 219.863 51.4534 219.403C52.8477 218.495 54.8209 217.009 57.6096 215.496C63.0423 212.26 71.3558 208.169 82.2475 204.986C93.113 201.684 106.491 199.461 121.408 198.132C128.866 197.435 136.706 196.922 144.836 196.383C152.965 195.844 161.37 195.225 169.973 194.476C204.385 191.503 235.363 187.109 257.686 183.386C268.854 181.532 277.852 179.874 284.087 178.717C287.178 178.138 289.585 177.678 291.256 177.362C292.058 177.217 292.676 177.112 293.124 177.02C293.545 176.954 293.768 176.928 293.768 176.928L293.755 176.941Z" fill="#263238" stroke="black" stroke-width="1.0449" stroke-miterlimit="10"/>
    <path d="M614.564 301.078C614.564 301.262 538.98 301.42 445.756 301.42C352.531 301.42 276.934 301.262 276.934 301.078C276.934 300.894 352.505 300.736 445.756 300.736C539.006 300.736 614.564 300.894 614.564 301.078Z" fill="#263238" stroke="black" stroke-width="1.0449" stroke-miterlimit="10"/>
    <path d="M85.3125 268.034C85.3125 268.218 74.6181 268.376 61.4375 268.376C48.2569 268.376 37.5625 268.218 37.5625 268.034C37.5625 267.85 48.2438 267.692 61.4375 267.692C74.6312 267.692 85.3125 267.85 85.3125 268.034Z" fill="#263238" stroke="black" stroke-width="1.0449" stroke-miterlimit="10"/>
    <path d="M328.417 170.812C328.417 170.812 392.636 124.43 417.971 115.222C442.425 106.329 455.172 104.093 478.139 103.449C500.093 102.83 513.471 103.435 513.471 103.435L496.502 168.746L328.417 170.838V170.812Z" fill="#455A64" stroke="black" stroke-width="1.0449" stroke-miterlimit="10"/>
    <path d="M319.026 171.022C319.026 166.957 321.223 163.208 324.762 161.209L339.508 152.922C343.717 150.554 348.452 149.317 353.28 149.317C356.279 149.317 359.239 149.791 362.041 150.712C368.342 152.777 372.538 158.762 372.801 165.392C373.156 174.6 365.777 182.269 356.556 182.269H330.273C324.064 182.269 319.026 177.231 319.026 171.022Z" fill="#50BB76" stroke="black" stroke-width="1.0449" stroke-miterlimit="10"/>
    <path d="M319.026 171.022C319.026 171.022 319.066 171.522 319.197 172.442C319.316 173.363 319.658 174.731 320.486 176.297C321.354 177.836 322.801 179.546 325.011 180.743C326.116 181.322 327.405 181.756 328.8 181.94C330.194 182.111 331.733 182.006 333.338 182.019C339.757 181.992 347.387 181.979 355.845 181.94C357.95 181.94 360.068 181.69 362.106 180.914C364.145 180.151 366.053 178.954 367.671 177.375C369.276 175.797 370.604 173.863 371.42 171.679C372.248 169.496 372.577 167.102 372.406 164.721C372.038 159.933 369.486 155.513 365.763 152.948C363.922 151.632 361.804 150.883 359.673 150.383C357.542 149.87 355.398 149.633 353.306 149.633C349.11 149.633 345.151 150.567 341.757 152.106C340.06 152.869 338.508 153.829 336.969 154.658C335.443 155.513 333.969 156.328 332.575 157.104C329.773 158.657 327.248 160.051 325.011 161.301C322.788 162.498 321.341 164.221 320.499 165.76C319.644 167.312 319.329 168.693 319.197 169.614C319.066 170.548 319.079 171.035 319.039 171.035C319.039 171.035 318.974 170.535 319.066 169.588C319.158 168.654 319.434 167.246 320.276 165.628C321.105 164.037 322.578 162.222 324.84 160.959C327.063 159.696 329.576 158.262 332.351 156.684C333.746 155.894 335.206 155.066 336.719 154.197C338.245 153.356 339.797 152.382 341.533 151.593C344.98 150.001 349.031 149.015 353.319 149.001C355.464 149.001 357.66 149.238 359.844 149.751C362.014 150.251 364.251 151.027 366.171 152.408C370.052 155.079 372.735 159.696 373.103 164.681C373.288 167.168 372.946 169.667 372.077 171.943C371.222 174.218 369.841 176.244 368.157 177.875C366.474 179.519 364.474 180.769 362.356 181.545C360.239 182.348 357.989 182.611 355.858 182.584C347.4 182.558 339.784 182.532 333.351 182.505C331.746 182.479 330.234 182.558 328.76 182.374C327.3 182.177 325.972 181.703 324.84 181.085C322.565 179.809 321.118 178.007 320.263 176.428C319.447 174.81 319.145 173.403 319.066 172.469C318.987 171.522 319.039 171.022 319.039 171.022H319.026Z" fill="#263238" stroke="black" stroke-width="1.0449" stroke-miterlimit="10"/>
    <path d="M493.688 177.612C493.688 177.612 493.582 177.638 493.385 177.651C493.148 177.651 492.846 177.678 492.491 177.691C491.649 177.704 490.504 177.73 489.057 177.77C486.019 177.822 481.717 177.901 476.442 177.993C465.788 178.191 451.081 178.585 434.822 179.033C418.564 179.48 403.844 179.795 393.189 179.861C387.862 179.901 383.547 179.901 380.561 179.861C379.114 179.835 377.97 179.822 377.128 179.809L376.233 179.782C376.036 179.782 375.931 179.756 375.931 179.743C375.931 179.73 376.036 179.717 376.233 179.703C376.47 179.703 376.773 179.677 377.128 179.664C377.97 179.651 379.114 179.624 380.561 179.585C383.6 179.532 387.901 179.453 393.176 179.361C403.831 179.164 418.551 178.769 434.809 178.322C451.068 177.875 465.788 177.559 476.442 177.493C481.77 177.454 486.085 177.454 489.071 177.493C490.518 177.52 491.662 177.533 492.504 177.546C492.859 177.546 493.148 177.572 493.398 177.572C493.596 177.572 493.701 177.599 493.701 177.612H493.688Z" fill="white" stroke="black" stroke-width="1.0449" stroke-miterlimit="10"/>
    <path d="M451.489 131.48C451.568 131.651 437.94 137.649 421.063 144.884C404.186 152.119 390.44 157.828 390.374 157.657C390.295 157.486 403.923 151.487 420.8 144.253C437.677 137.031 451.423 131.309 451.489 131.48Z" fill="white" stroke="black" stroke-width="1.0449" stroke-miterlimit="10"/>
    <path d="M122.671 185.628L122.804 185.018C118.367 185.303 122.334 184.043 122.32 185.867C121.728 185.919 120.992 185.972 120.071 186.038C119.098 186.103 117.914 186.209 116.533 186.406C115.165 186.577 113.586 186.748 111.863 187.064C108.403 187.603 104.325 188.458 99.8398 189.616C95.3673 190.813 90.5134 192.352 85.5279 194.285C80.5556 196.245 75.9385 198.429 71.8475 200.586C67.7828 202.783 64.2049 204.927 61.2978 206.887C59.8245 207.834 58.5485 208.781 57.4173 209.584C56.2728 210.386 55.3257 211.11 54.5628 211.728C53.8393 212.307 53.2605 212.767 52.8001 213.135C52.4055 213.464 52.2082 213.648 52.2213 213.662C52.2345 213.675 52.4712 213.53 52.8922 213.241C53.3657 212.899 53.9708 212.465 54.7206 211.938C55.4967 211.36 56.4702 210.662 57.6277 209.899C58.7721 209.123 60.0613 208.203 61.5477 207.295C64.4811 205.388 68.0591 203.296 72.1369 201.139C76.2279 199.021 80.8187 196.877 85.7647 194.917C90.7107 192.996 95.5515 191.457 99.9845 190.221C104.444 189.037 108.495 188.129 111.929 187.537C113.639 187.195 115.204 186.998 116.572 186.774C117.94 186.551 119.124 186.393 120.097 186.288" stroke="black" stroke-width="1.0449" stroke-miterlimit="10"/>
    <path d="M359.751 155.526C359.751 155.526 359.357 155.013 358.488 154.303C357.62 153.606 356.134 152.803 354.147 152.553C352.148 152.29 349.741 152.632 347.136 153.316C344.518 153.974 341.703 154.895 338.849 156.131C333.127 158.591 328.47 161.866 325.379 164.51C322.248 167.141 320.604 169.075 320.499 168.983C320.459 168.957 320.854 168.457 321.604 167.589C322.367 166.733 323.511 165.523 325.05 164.155C328.089 161.393 332.772 158.012 338.573 155.513C341.467 154.263 344.321 153.342 346.978 152.711C349.609 152.053 352.122 151.751 354.213 152.08C356.305 152.408 357.817 153.316 358.672 154.119C359.107 154.513 359.383 154.881 359.554 155.131C359.712 155.394 359.791 155.539 359.764 155.552L359.751 155.526Z" fill="white" stroke="black" stroke-width="1.0449" stroke-miterlimit="10"/>
    <path d="M150.375 122.601C145.126 93.819 141.588 89.3992 138.602 79.494C135.668 69.7072 130.906 63.1564 125.026 60.8939C121.054 59.368 101.27 52.2252 94.3637 54.593C86.6948 57.2238 79.9993 61.0517 75.2506 64.1956C70.6334 67.2605 67.1344 71.733 65.2796 76.9552L54.6904 106.644L73.2116 125.126L82.4986 105.395L92.5747 129.02L91.0883 152.895L148.888 168.443C154.15 160.024 153.361 138.951 150.375 122.627V122.601Z" fill="#8969D3" stroke="black" stroke-width="1.0449" stroke-miterlimit="10"/>
    <path d="M93.4944 120.232C93.4155 120.285 92.4552 118.746 90.9425 116.247C89.3245 113.603 87.2593 110.248 84.9836 106.539C82.6553 102.856 80.5374 99.5408 78.88 96.9231C77.3015 94.4632 76.3544 92.9373 76.4333 92.8847C76.4727 92.8584 76.7621 93.2004 77.262 93.8581C77.7619 94.5027 78.4459 95.463 79.2878 96.66C80.9715 99.0541 83.2077 102.408 85.5624 106.184C87.917 109.972 89.9427 113.458 91.3502 116.01C92.0606 117.286 92.613 118.338 92.9814 119.062C93.3497 119.798 93.5338 120.206 93.4944 120.232Z" fill="black"/>
    <path d="M133.826 147.107C133.826 147.107 133.353 147.331 132.472 147.62C132.024 147.765 131.485 147.936 130.827 148.081C130.183 148.225 129.446 148.423 128.617 148.541C126.973 148.844 124.987 149.028 122.764 149.067C120.554 149.067 118.107 148.896 115.595 148.449C113.082 147.975 110.741 147.278 108.662 146.489C106.61 145.673 104.808 144.792 103.374 143.924C102.638 143.529 102.019 143.082 101.467 142.714C100.915 142.358 100.454 142.003 100.099 141.714C99.3623 141.135 98.9808 140.793 99.0071 140.754C99.0861 140.648 100.704 141.924 103.611 143.503C105.058 144.305 106.847 145.121 108.886 145.897C110.938 146.634 113.24 147.304 115.713 147.765C118.186 148.199 120.58 148.383 122.764 148.423C124.947 148.423 126.907 148.291 128.538 148.041C131.814 147.581 133.774 146.962 133.813 147.094L133.826 147.107Z" fill="black"/>
    <path d="M110.635 102.264C110.53 102.777 104.321 115.142 104.321 115.142L75.0137 99.6993L72.0277 87.0712C71.5541 85.098 70.344 83.388 68.647 82.283C66.8449 81.1123 64.635 80.7439 62.5435 81.2438L53.9011 84.7823C53.1776 85.0717 52.6251 85.69 52.4804 86.4529C52.3621 87.0975 52.5199 87.7157 53.6249 87.6236C55.769 87.4526 60.2415 86.9791 60.2415 86.9791L58.2026 94.1745C57.6632 96.0555 57.8737 98.0813 58.7813 99.8176L60.0836 102.304L62.9381 106.921L62.8855 106.96C62.8855 106.96 91.3776 136.229 107.373 138.123C116.989 139.267 127.881 112.314 127.881 112.314L110.662 102.238L110.635 102.264Z" fill="white" stroke="black" stroke-width="1.0449" stroke-miterlimit="10"/>
    <path d="M59.9785 87.4787C59.9785 87.4787 60.2021 87.1762 60.6888 86.8473C61.1756 86.5316 61.9517 86.1238 62.9119 86.1633C63.8985 86.2159 64.622 86.8605 64.8719 87.4261C65.135 88.0181 64.964 88.4127 64.9245 88.3995C64.8456 88.3995 64.8982 88.0181 64.6088 87.5708C64.3326 87.1367 63.688 86.6369 62.8856 86.5974C62.07 86.5579 61.3466 86.8736 60.8335 87.1236C60.3205 87.3735 60.0048 87.5445 59.9785 87.4919V87.4787Z" fill="#AA6550" stroke="black" stroke-width="1.0449" stroke-miterlimit="10"/>
    <path d="M63.6751 91.9645C63.6751 91.9645 63.4909 91.7277 63.2015 91.3725C62.9253 91.0305 62.4649 90.5964 61.8466 90.3596C61.2284 90.1097 60.597 90.1097 60.1629 90.1755C59.7157 90.2413 59.4526 90.3333 59.4131 90.2807C59.3868 90.2413 59.6236 90.0308 60.0971 89.8729C60.5575 89.7282 61.281 89.6756 62.0045 89.9519C62.728 90.2413 63.2147 90.7674 63.4515 91.2015C63.7014 91.6356 63.7277 91.9382 63.6751 91.9645Z" fill="#AA6550" stroke="black" stroke-width="1.0449" stroke-miterlimit="10"/>
    <path d="M116.713 63.2351L108.781 100.843L129.815 113.484L137.892 90.3723C137.892 90.3723 134.55 62.3143 116.713 63.2351Z" fill="#8969D3"/>
    <path d="M129.814 113.485C129.814 113.485 129.196 113.208 128.104 112.616C126.934 111.959 125.381 111.09 123.474 110.012C119.462 107.697 113.977 104.54 107.649 100.896L107.452 100.777L107.492 100.554C108.057 97.7389 108.662 94.7265 109.281 91.6221C110.241 86.9392 111.149 82.4931 111.977 78.4284C112.411 76.4026 112.766 74.4689 113.161 72.6668C113.582 70.8647 114.108 69.1941 114.845 67.7734C116.292 64.8926 118.607 63.3273 120.278 62.788C121.133 62.5117 121.83 62.4459 122.29 62.4591C122.751 62.4591 123 62.5117 123 62.538C123 62.6301 122.001 62.4459 120.37 63.051C118.778 63.643 116.608 65.2083 115.279 67.997C114.595 69.3782 114.095 71.0094 113.714 72.7852C113.358 74.6005 112.99 76.521 112.595 78.5468C111.78 82.6114 110.885 87.0707 109.951 91.7537C109.32 94.8581 108.702 97.8704 108.136 100.685L107.978 100.343C114.253 104.066 119.699 107.302 123.671 109.67C125.539 110.814 127.065 111.735 128.21 112.432C129.262 113.09 129.828 113.458 129.801 113.498L129.814 113.485Z" fill="black"/>
    <path d="M136.247 89.2545C136.326 89.2545 136.352 90.5962 136.141 92.7667C135.931 94.924 135.471 97.8968 134.629 101.093C133.787 104.303 132.721 107.105 131.84 109.091C130.959 111.077 130.288 112.235 130.209 112.196C130.117 112.156 130.63 110.92 131.393 108.907C132.156 106.894 133.129 104.093 133.971 100.922C134.8 97.7522 135.339 94.8319 135.668 92.7009C135.997 90.5699 136.155 89.2413 136.26 89.2545H136.247Z" fill="black"/>
    <path d="M22.1316 298.434L21.8948 318.52C21.8948 318.52 1.40049 325.032 1.00586 328.741L39.9294 330.596L41.5736 299.315L22.1316 298.447V298.434Z" fill="#455A64" stroke="black" stroke-width="1.0449" stroke-miterlimit="10"/>
    <path d="M34.011 317.402C34.7607 317.639 35.2343 318.52 35.0238 319.27C34.8134 320.019 33.932 320.519 33.1822 320.296C32.4324 320.072 31.8273 319.033 32.1167 318.309C32.4061 317.586 33.4848 317.06 34.1556 317.454" fill="#E0E0E0"/>
    <path d="M34.011 317.402C34.7607 317.639 35.2343 318.52 35.0238 319.27C34.8134 320.019 33.932 320.519 33.1822 320.296C32.4324 320.072 31.8273 319.033 32.1167 318.309C32.4061 317.586 33.4848 317.06 34.1556 317.454" stroke="black" stroke-width="1.0449" stroke-miterlimit="10"/>
    <path d="M39.9305 330.582L39.97 327.425L2.63814 326.833C2.63814 326.833 0.87547 327.504 1.00701 328.741L39.9305 330.596V330.582Z" fill="#E0E0E0" stroke="black" stroke-width="1.0449" stroke-miterlimit="10"/>
    <path d="M21.2778 318.297C21.2778 318.481 22.2249 318.612 23.1325 319.27C24.0533 319.901 24.5006 320.743 24.6716 320.678C24.8426 320.651 24.619 319.494 23.514 318.731C22.4091 317.941 21.2515 318.112 21.2778 318.297Z" fill="#263238" stroke="black" stroke-width="1.0449" stroke-miterlimit="10"/>
    <path d="M17.1079 319.783C17.0553 319.967 17.8577 320.322 18.476 321.164C19.1074 321.979 19.2258 322.861 19.4231 322.861C19.5941 322.9 19.7782 321.795 19.0153 320.769C18.2523 319.743 17.1342 319.611 17.1211 319.783H17.1079Z" fill="#263238" stroke="black" stroke-width="1.0449" stroke-miterlimit="10"/>
    <path d="M14.5685 324.558C14.7395 324.61 15.0552 323.663 14.608 322.611C14.1739 321.545 13.3057 321.085 13.2136 321.243C13.0952 321.387 13.6477 321.979 13.9897 322.861C14.358 323.729 14.3712 324.531 14.5553 324.558H14.5685Z" fill="#263238" stroke="black" stroke-width="1.0449" stroke-miterlimit="10"/>
    <path d="M21.8423 313.718C21.9081 313.889 22.8025 313.679 23.868 313.797C24.9467 313.902 25.7623 314.297 25.8675 314.139C25.9859 314.007 25.1966 313.271 23.9338 313.139C22.671 313.008 21.7502 313.56 21.8423 313.718Z" fill="#263238" stroke="black" stroke-width="1.0449" stroke-miterlimit="10"/>
    <g opacity="0.3">
        <path d="M22.0927 302.418L22.04 305.996L41.1795 306.733L41.3505 303.51L22.0927 302.418Z" fill="black"/>
    </g>
    <path d="M21.9628 309.667C21.9628 309.746 22.6995 309.904 23.9097 309.746C24.5148 309.667 25.2251 309.509 25.9749 309.22C26.3564 309.075 26.7378 308.891 27.1193 308.681C27.3035 308.575 27.5271 308.47 27.7244 308.246C27.948 308.062 28.0927 307.562 27.8559 307.234C27.6718 306.931 27.3298 306.773 27.0404 306.76C26.751 306.734 26.5142 306.786 26.3037 306.826C25.8697 306.905 25.4487 307.036 25.0672 307.181C24.3043 307.483 23.686 307.878 23.2125 308.273C22.2654 309.062 21.9234 309.759 21.9891 309.799C22.0681 309.864 22.5416 309.286 23.4887 308.641C23.9623 308.325 24.5674 307.997 25.2777 307.747C25.6329 307.628 26.0143 307.523 26.409 307.457C26.8299 307.365 27.1719 307.378 27.2772 307.576C27.3166 307.641 27.3166 307.681 27.2245 307.786C27.1325 307.891 26.9615 307.997 26.7773 308.102C26.4221 308.312 26.067 308.483 25.725 308.641C25.0278 308.944 24.3701 309.141 23.8044 309.272C22.6732 309.536 21.9365 309.549 21.9365 309.654L21.9628 309.667Z" fill="black"/>
    <path d="M22.1984 309.957C22.2641 309.983 22.6719 309.325 22.8035 308.102C22.8692 307.497 22.8429 306.747 22.6325 305.958C22.5272 305.563 22.3825 305.155 22.1984 304.747C21.9879 304.353 21.738 303.827 21.0013 303.708C20.6199 303.682 20.2779 303.958 20.1595 304.208C20.0148 304.471 19.9885 304.695 19.9227 304.918C19.8306 305.366 19.8175 305.813 19.8569 306.234C19.9358 307.063 20.2515 307.773 20.5936 308.286C21.3039 309.325 22.0931 309.601 22.1063 309.536C22.1721 309.444 21.5275 309.049 20.9882 308.049C20.7251 307.562 20.5015 306.918 20.462 306.194C20.4357 305.826 20.462 305.445 20.5541 305.076C20.633 304.669 20.804 304.34 20.9619 304.392C21.1592 304.392 21.4749 304.721 21.6196 305.063C21.8037 305.418 21.9484 305.787 22.0537 306.142C22.2641 306.852 22.3431 307.536 22.3431 308.102C22.3431 309.246 22.1063 309.943 22.2115 309.983L22.1984 309.957Z" fill="black"/>
    <path d="M101.451 153.079C101.451 153.079 40.6653 127.586 21.8415 126.494C10.0421 125.81 1.11036 133.387 2.71518 145.607C3.51759 151.711 20.3156 223.23 20.3156 223.23L45.9401 211.523L33.6277 162.076L83.5614 186.346L100.942 153.677L101.451 153.079Z" fill="#263238" stroke="black" stroke-width="1.0449" stroke-miterlimit="10"/>
    <path d="M25.9597 149.566C25.7624 149.737 27.775 152.329 29.8928 155.762C32.0238 159.195 33.4445 162.155 33.6813 162.05C33.9049 161.971 32.8262 158.788 30.6558 155.289C28.4985 151.776 26.1307 149.395 25.9597 149.553V149.566Z" fill="black"/>
    <path d="M20.9865 152.408C20.8549 152.632 23.933 154.579 27.5242 157.236C31.1284 159.88 33.904 162.221 34.075 162.037C34.2328 161.866 31.7072 159.196 28.0503 156.512C24.4066 153.829 21.0917 152.198 20.9865 152.408Z" fill="black"/>
    <path d="M148.887 168.417C148.887 168.417 141.244 178.269 133.944 180.966C124.788 184.347 57.0439 216.311 57.0439 216.311C57.0439 216.311 44.7578 307.576 45.7313 303.774L17.3838 303.09L20.4619 219.021C20.8302 208.248 29.4594 195.896 38.72 190.397L101.271 153.13L148.874 168.417H148.887Z" fill="#263238" stroke="black" stroke-width="1.0449" stroke-miterlimit="10"/>
    <path d="M123.854 178.033C123.96 177.914 123.131 177.151 122.118 175.691C121.105 174.244 119.974 172.034 119.435 169.403C118.908 166.759 119.079 164.286 119.461 162.563C119.829 160.827 120.29 159.801 120.158 159.735C120.079 159.682 119.408 160.629 118.856 162.405C118.303 164.168 118.001 166.786 118.566 169.588C119.132 172.376 120.421 174.678 121.618 176.086C122.815 177.506 123.802 178.112 123.854 178.033Z" fill="black"/>
    <path d="M94.548 8.2898C92.7985 3.33064 86.9843 0.19992 81.8804 1.47588C80.7097 1.76528 79.5521 2.26514 78.3551 2.23883C76.8686 2.21252 75.5269 1.39696 74.0668 1.10756C70.9361 0.476159 67.5159 2.69923 66.8056 5.81679C64.3195 5.30378 61.5571 5.65894 59.5708 7.25061C57.5976 8.84228 56.6768 11.8283 57.887 14.0645C58.4 15.0248 59.2419 15.7877 59.7155 16.7743C60.4916 18.3923 60.1364 20.3391 60.6757 22.0492C61.4781 24.5879 64.1616 26.1533 66.8056 26.4559C69.4496 26.7584 72.0936 26.0349 74.6587 25.3246" fill="#263238"/>
    <path d="M94.548 8.2898C92.7985 3.33064 86.9843 0.19992 81.8804 1.47588C80.7097 1.76528 79.5521 2.26514 78.3551 2.23883C76.8686 2.21252 75.5269 1.39696 74.0668 1.10756C70.9361 0.476159 67.5159 2.69923 66.8056 5.81679C64.3195 5.30378 61.5571 5.65894 59.5708 7.25061C57.5976 8.84228 56.6768 11.8283 57.887 14.0645C58.4 15.0248 59.2419 15.7877 59.7155 16.7743C60.4916 18.3923 60.1364 20.3391 60.6757 22.0492C61.4781 24.5879 64.1616 26.1533 66.8056 26.4558C69.4496 26.7584 72.0936 26.0349 74.6587 25.3246" stroke="black" stroke-width="1.0449" stroke-miterlimit="10"/>
    <path d="M82.3542 60.3149C82.0253 57.7761 81.8017 55.9871 81.8017 55.9871C81.8017 55.9871 73.3303 55.9345 69.9102 45.4242C68.2133 40.202 67.0821 31.3755 66.398 24.1275C65.7798 17.603 70.7126 11.8677 77.2635 11.5257L99.7836 10.3418L100.27 13.8277L106.203 57.1315C107.111 63.735 102.467 69.8123 95.8505 70.6805C89.2602 71.5486 83.2355 66.892 82.3673 60.3149H82.3542Z" fill="white" stroke="black" stroke-width="1.0449" stroke-miterlimit="10"/>
    <path d="M69.5657 30.3493C69.6578 31.0859 70.355 31.6121 71.1179 31.5332C71.8808 31.4542 72.4333 30.7965 72.3412 30.0599C72.2492 29.3232 71.552 28.7971 70.789 28.876C70.0261 28.9549 69.4736 29.6126 69.5657 30.3493Z" fill="#263238" stroke="black" stroke-width="1.0449" stroke-miterlimit="10"/>
    <path d="M69.0142 28.402C69.2115 28.5598 70.1323 27.6127 71.6187 27.376C73.1051 27.126 74.3153 27.718 74.4469 27.5075C74.5126 27.4154 74.289 27.1129 73.7628 26.8498C73.2367 26.5736 72.3948 26.3762 71.4609 26.5209C70.5401 26.6788 69.8166 27.1392 69.4219 27.5601C69.0142 27.9811 68.9221 28.3362 69.0142 28.402Z" fill="#263238" stroke="black" stroke-width="1.0449" stroke-miterlimit="10"/>
    <path d="M83.6966 27.9557C83.7886 28.6924 84.4858 29.2185 85.2488 29.1396C86.0117 29.0607 86.5642 28.403 86.4721 27.6663C86.38 26.9297 85.6828 26.4035 84.9199 26.4824C84.157 26.5614 83.6045 27.2191 83.6966 27.9557Z" fill="#263238" stroke="black" stroke-width="1.0449" stroke-miterlimit="10"/>
    <path d="M82.3534 26.3507C82.5507 26.5086 83.4847 25.5615 84.958 25.3247C86.4444 25.0748 87.6546 25.6667 87.7861 25.4562C87.8519 25.3642 87.6283 25.0616 87.1021 24.7985C86.5759 24.5223 85.7341 24.325 84.8001 24.4697C83.8793 24.6275 83.1558 25.0879 82.7612 25.5089C82.3666 25.9298 82.2613 26.285 82.3534 26.3507Z" fill="#263238" stroke="black" stroke-width="1.0449" stroke-miterlimit="10"/>
    <path d="M80.0264 38.2288C80.0264 38.1367 79.0661 38.1367 77.5403 38.1762C77.1588 38.2025 76.7773 38.1762 76.6721 37.9263C76.5405 37.6632 76.6326 37.2291 76.751 36.7555C76.9615 35.7821 77.1851 34.7561 77.4087 33.6906C78.3164 29.3234 78.9083 25.7586 78.7241 25.7323C78.5531 25.6928 77.6718 29.205 76.7641 33.5722C76.5537 34.6509 76.3432 35.6769 76.1459 36.6503C76.067 37.1107 75.896 37.6369 76.1854 38.1762C76.3301 38.4393 76.6458 38.6103 76.8957 38.6366C77.1456 38.6761 77.3692 38.6366 77.5534 38.6366C79.0793 38.4788 80.0133 38.3341 80.0001 38.2551L80.0264 38.2288Z" fill="#263238" stroke="black" stroke-width="1.0449" stroke-miterlimit="10"/>
    <path d="M81.8018 55.9868C81.8018 55.9868 89.1287 55.3028 95.6137 49.8438C94.3904 50.8566 92.8513 51.9616 90.9703 52.9745C87.4449 54.8555 84.1564 55.6448 81.8018 55.9868Z" fill="#AA6550" stroke="black" stroke-width="1.0449" stroke-miterlimit="10"/>
    <path d="M84.5634 38.5707C84.3135 38.597 84.5634 40.2149 83.3795 41.5698C82.1825 42.9379 80.433 43.03 80.4593 43.2536C80.4593 43.3588 80.8934 43.5035 81.6169 43.4114C82.3272 43.3193 83.3401 42.9247 84.0767 42.096C84.8133 41.2541 85.0238 40.2676 84.9712 39.5967C84.9317 38.9127 84.6818 38.5443 84.5766 38.5707H84.5634Z" fill="#263238" stroke="black" stroke-width="1.0449" stroke-miterlimit="10"/>
    <path d="M82.3534 20.589C82.5639 20.9705 84.024 20.5364 85.7998 20.4706C87.5757 20.3654 89.0621 20.6548 89.2331 20.2602C89.312 20.076 89.0095 19.734 88.3781 19.4314C87.7467 19.1289 86.7996 18.9053 85.7341 18.9579C84.6686 19.0105 83.7346 19.3262 83.1427 19.6814C82.5376 20.0365 82.2745 20.4049 82.3666 20.589H82.3534Z" fill="#263238" stroke="black" stroke-width="1.0449" stroke-miterlimit="10"/>
    <path d="M100.282 24.1541C100.427 24.0488 106.175 21.0365 107.241 27.3111C108.306 33.5857 101.782 33.3621 101.742 33.1779C101.703 32.9937 100.282 24.1541 100.282 24.1541Z" fill="white" stroke="black" stroke-width="1.0449" stroke-miterlimit="10"/>
    <path d="M103.255 30.4679C103.255 30.4679 103.373 30.5205 103.571 30.5732C103.768 30.6258 104.084 30.6258 104.386 30.4548C105.005 30.0996 105.386 28.9552 105.228 27.8108C105.149 27.232 104.939 26.719 104.663 26.298C104.399 25.8771 104.044 25.6008 103.702 25.6008C103.36 25.5745 103.15 25.8245 103.11 26.0086C103.058 26.1928 103.11 26.3112 103.084 26.3375C103.071 26.3506 102.926 26.2586 102.939 25.9823C102.939 25.8508 102.992 25.6929 103.123 25.5482C103.255 25.4035 103.465 25.2983 103.702 25.2851C104.189 25.2325 104.702 25.614 105.005 26.0612C105.333 26.5216 105.583 27.1004 105.675 27.745C105.846 29.021 105.399 30.3101 104.544 30.7179C104.123 30.902 103.729 30.8362 103.518 30.7179C103.294 30.5995 103.242 30.4548 103.255 30.4416V30.4679Z" fill="black"/>
    <path d="M68.8711 24.0091C69.1868 24.2985 70.1602 23.7854 71.3835 23.575C72.6069 23.325 73.6987 23.4434 73.8828 23.0488C73.9618 22.8646 73.7381 22.5489 73.2383 22.299C72.7384 22.0491 71.9492 21.9175 71.1073 22.0754C70.2654 22.2332 69.5814 22.6542 69.2131 23.0751C68.8316 23.496 68.7395 23.8644 68.8842 24.0091H68.8711Z" fill="#263238" stroke="black" stroke-width="1.0449" stroke-miterlimit="10"/>
    <path d="M65.2673 19.4054C67.9245 20.9839 71.4235 19.537 78.0664 16.8403C84.3936 14.2753 86.6167 11.1314 89.3528 12.7757C90.7077 13.5781 91.589 18.4978 96.5219 19.3265C96.5219 19.3265 97.39 28.7976 101.113 27.982C103.757 27.4032 102.218 16.9587 101.113 10.9999C100.665 8.61893 98.6265 6.85625 96.193 6.76417C93.207 4.58057 90.6419 3.94916 88.8924 3.765C85.5249 3.40983 85.1566 4.72526 80.5263 4.69895C76.4616 4.6858 74.5148 3.67292 72.7389 5.09358C71.634 5.97492 72.0549 6.61948 70.9763 7.89544C68.3586 10.9735 64.136 9.22402 62.6101 11.4208C61.2421 13.3939 62.5575 17.7875 65.2673 19.4054Z" fill="#263238" stroke="black" stroke-width="1.0449" stroke-miterlimit="10"/>
    <path d="M37.1278 61.6963H24.1445C22.1846 61.6963 20.4219 63.9719 21.1322 65.8399L34.1944 91.2671C34.6943 92.2536 35.7203 92.8719 36.8253 92.8719L52.6499 92.8324C54.4652 92.5825 55.1229 90.5699 54.3731 89.4781L41.7713 64.577C40.9031 62.8012 39.101 61.6831 37.1278 61.6831V61.6963Z" fill="#455A64" stroke="black" stroke-width="1.0449" stroke-miterlimit="10"/>
    <path d="M36.259 63.2353H23.2757C21.6446 63.2353 20.5923 64.9454 21.342 66.3923L34.0885 91.2671C34.5884 92.2537 35.6144 92.8719 36.7194 92.8719H52.373C53.3332 92.8719 53.9515 91.8722 53.5174 91.0171L40.9156 66.1161C40.0474 64.3403 38.2453 63.2222 36.2721 63.2222L36.259 63.2353Z" fill="#263238" stroke="black" stroke-width="1.0449" stroke-miterlimit="10"/>
    <path d="M69.9879 116.405L39.4436 90.3724L39.2595 90.4118L39.7725 86.8602C39.7725 86.8602 43.6662 85.6368 43.7582 85.0449C43.8503 84.4529 43.2715 82.4535 42.6796 82.3483C42.0877 82.2562 37.9967 83.7689 37.9967 83.7689C37.9967 83.7689 42.8375 79.941 42.6928 79.3228C42.5612 78.7045 42.035 77.1392 41.0748 76.955C40.1145 76.784 32.3009 80.4541 32.3009 80.4541L31.0381 83.348L29.9331 78.7308C29.9331 78.7308 36.8654 76.784 35.1554 73.6401L27.2496 76.7972L25.5527 83.1638L29.3543 92.6349C29.3543 92.6349 39.9698 114.708 47.6519 122.798C47.6519 122.798 55.2419 132.966 67.7648 128.572C80.2877 124.179 69.9747 116.405 69.9747 116.405H69.9879Z" fill="white" stroke="black" stroke-width="1.0449" stroke-miterlimit="10"/>
    <path d="M36.1554 88.5706C36.1554 88.5706 35.9581 88.2944 35.8924 87.7814C35.8134 87.2683 35.8529 86.5317 36.1291 85.7819C36.4054 85.0321 36.8658 84.4533 37.2472 84.1113C37.6419 83.7693 37.9313 83.6509 37.9576 83.6904C38.0365 83.7825 37.0105 84.5191 36.5106 85.9266C35.9844 87.3078 36.2738 88.5443 36.1554 88.5706Z" fill="black" stroke="black" stroke-width="1.0449" stroke-miterlimit="10"/>
    <path d="M32.3926 87.1891C32.3926 87.1891 32.6294 86.413 32.7083 85.1239C32.7741 84.4793 32.8004 83.6769 33.1029 82.8351C33.2608 82.4141 33.4712 81.98 33.8264 81.6117C34.1816 81.2434 34.642 80.9935 35.1155 80.7961C37.0097 80.1121 38.7066 79.5596 39.9563 79.1519C41.2059 78.7572 41.982 78.5336 41.9952 78.5862C42.0084 78.6388 41.2717 78.9545 40.0484 79.4149C38.8382 79.8885 37.1281 80.4936 35.2734 81.1645C34.8261 81.3486 34.4183 81.5722 34.1158 81.8748C33.8132 82.1773 33.6028 82.572 33.4581 82.9534C33.1555 83.7295 33.0898 84.5056 32.9977 85.1502C32.8398 86.4656 32.4452 87.2154 32.3926 87.1891Z" fill="black" stroke="black" stroke-width="1.0449" stroke-miterlimit="10"/>
    <path d="M30.5778 85.7684C30.4726 85.7552 30.4858 85.0581 30.6304 84.2162C30.7751 83.3743 30.9725 82.7034 31.0777 82.7298C31.1829 82.7429 31.1698 83.4401 31.0251 84.282C30.8804 85.1238 30.6831 85.7947 30.5778 85.7684Z" fill="black" stroke="black" stroke-width="1.0449" stroke-miterlimit="10"/>
    <path d="M30.3672 68.0237C30.3672 68.9313 31.1038 69.6811 32.0246 69.6811C32.9454 69.6811 33.6821 68.9445 33.6821 68.0237C33.6821 67.1029 32.9454 66.3662 32.0246 66.3662C31.1038 66.3662 30.3672 67.1029 30.3672 68.0237Z" fill="#FAFAFA"/>
</svg>
