<svg width="207" height="298" viewBox="0 0 207 298" fill="none" xmlns="http://www.w3.org/2000/svg">
<path d="M141.894 49.2924C138.992 30.4938 122.186 17.0934 103.275 18.481L101.397 18.614C81.2148 21.2751 72.1858 39.9596 75.4104 60.1078L82.4477 131.615L82.7891 146.403L130.874 150.774L129.85 119.564C129.85 119.564 149.121 115.097 147.945 95.5571C147.376 86.1103 144.626 66.7795 141.932 49.2924H141.894Z" fill="white" stroke="black" stroke-width="2.99614" stroke-miterlimit="10"/>
<path d="M129.983 119.526C129.983 119.526 117.597 121.179 103.902 113.899C106.121 115.078 108.72 116.256 111.717 117.226C118.944 119.583 125.431 119.792 129.983 119.526Z" fill="#FF9A6C" stroke="black" stroke-width="2.99614" stroke-miterlimit="10"/>
<path d="M134.344 68.7752C134.496 70.2388 133.396 71.5884 131.86 71.7784C130.342 71.9685 128.976 70.9421 128.806 69.4785C128.654 68.0149 129.754 66.6654 131.272 66.4753C132.808 66.2852 134.174 67.3116 134.325 68.7752H134.344Z" fill="#263238" stroke="black" stroke-width="0.998712" stroke-miterlimit="10"/>
<path d="M138.405 59.1578C138.082 59.5379 135.863 58.1314 132.866 58.3595C129.869 58.5495 127.782 60.2412 127.441 59.8991C127.27 59.747 127.574 59.0627 128.484 58.3024C129.376 57.5421 130.931 56.7438 132.809 56.6108C134.668 56.4777 136.299 57.0669 137.248 57.6942C138.215 58.3405 138.575 58.9677 138.424 59.1388L138.405 59.1578Z" fill="#263238" stroke="black" stroke-width="0.998712" stroke-miterlimit="10"/>
<path d="M106.291 71.4559C106.442 72.9195 105.342 74.269 103.806 74.4591C102.288 74.6492 100.923 73.6228 100.752 72.1592C100.6 70.6956 101.7 69.346 103.237 69.156C104.773 68.9659 106.139 69.9923 106.291 71.4559Z" fill="#263238" stroke="black" stroke-width="0.998712" stroke-miterlimit="10"/>
<path d="M109.003 61.8751C108.68 62.2552 106.461 60.8487 103.464 61.0767C100.467 61.2668 98.3804 62.9585 98.039 62.6164C97.8683 62.4643 98.1718 61.78 99.0823 61.0197C99.9738 60.2594 101.529 59.4611 103.388 59.328C105.247 59.195 106.878 59.7842 107.827 60.4115C108.794 61.0577 109.154 61.685 109.003 61.8561V61.8751Z" fill="#263238" stroke="black" stroke-width="0.998712" stroke-miterlimit="10"/>
<path d="M121.484 83.3348C121.465 83.1638 123.286 82.7076 126.283 82.0993C127.042 81.9663 127.763 81.7572 127.839 81.225C127.972 80.6548 127.592 79.8564 127.156 78.9821C126.302 77.1764 125.411 75.2946 124.462 73.3178C120.726 65.2395 117.956 58.5678 118.279 58.4348C118.601 58.2827 121.902 64.7073 125.638 72.7856C126.549 74.7814 127.402 76.6822 128.237 78.4879C128.597 79.3432 129.167 80.2936 128.844 81.4721C128.673 82.0613 128.142 82.5175 127.668 82.6886C127.194 82.8787 126.758 82.9167 126.378 82.9737C123.362 83.3539 121.465 83.5059 121.446 83.3348H121.484Z" fill="#263238" stroke="black" stroke-width="0.998712" stroke-miterlimit="10"/>
<path d="M112.835 86.053C113.328 85.996 113.556 89.2463 116.515 91.3561C119.455 93.466 122.907 92.8577 122.964 93.3139C123.021 93.523 122.243 93.9982 120.783 94.1503C119.36 94.3023 117.216 93.9982 115.414 92.7057C113.612 91.4132 112.74 89.5694 112.531 88.2389C112.304 86.8893 112.607 86.053 112.835 86.053Z" fill="#263238" stroke="black" stroke-width="0.998712" stroke-miterlimit="10"/>
<path d="M108.928 50.0527C108.701 50.889 105.666 50.7179 102.195 51.4022C98.7045 52.0105 95.9351 53.246 95.423 52.5617C95.1954 52.2195 95.6317 51.4212 96.7128 50.5469C97.794 49.6725 99.5391 48.7982 101.645 48.399C103.731 48.0188 105.685 48.2089 107.013 48.6271C108.34 49.0453 109.042 49.6535 108.928 50.0527Z" fill="#263238" stroke="black" stroke-width="0.998712" stroke-miterlimit="10"/>
<path d="M136.678 50.5468C136.204 51.2691 134.08 50.7179 131.595 50.8509C129.11 50.908 127.042 51.6492 126.511 50.965C126.284 50.6418 126.549 49.9195 127.422 49.2163C128.275 48.513 129.755 47.8667 131.462 47.7907C133.169 47.7147 134.687 48.2279 135.616 48.8741C136.545 49.5204 136.887 50.1857 136.678 50.5468Z" fill="#263238" stroke="black" stroke-width="0.998712" stroke-miterlimit="10"/>
<path d="M79.9253 78.8868C79.5839 75.8836 76.8145 73.6978 73.8365 74.192C70.2325 74.8002 66.325 77.1571 67.1217 84.6652C68.5254 97.9896 81.5756 93.8269 81.5566 93.4467C81.5566 93.1806 80.5513 84.4371 79.9253 78.8678V78.8868Z" fill="white" stroke="black" stroke-width="2.99614" stroke-miterlimit="10"/>
<path d="M78.1424 88.7524C78.1424 88.7524 77.9338 88.9425 77.5544 89.1516C77.194 89.3607 76.5491 89.5508 75.8283 89.3607C74.3677 88.9995 72.9451 86.8897 72.6416 84.4947C72.4899 83.2782 72.6226 82.0998 72.9451 81.1114C73.2486 80.0849 73.7987 79.3436 74.5005 79.1536C75.1834 78.9255 75.7335 79.2866 75.9421 79.6478C76.1508 80.0089 76.0939 80.275 76.1697 80.294C76.2077 80.332 76.4353 80.0469 76.2646 79.4957C76.1887 79.2296 75.999 78.9445 75.6576 78.7164C75.3162 78.4883 74.823 78.4123 74.3488 78.5073C73.3245 78.6784 72.5088 79.7238 72.1484 80.8262C71.7311 81.9287 71.5604 83.2592 71.7311 84.6278C72.0915 87.3079 73.7228 89.6648 75.7145 90.026C76.6819 90.178 77.4216 89.7979 77.801 89.4557C78.1804 89.0756 78.2183 88.7715 78.1614 88.7524H78.1424Z" fill="#FF9A6C" stroke="black" stroke-width="0.998712" stroke-miterlimit="10"/>
<path d="M69.2648 65.2965C70.3649 69.1171 69.9666 75.4656 73.3809 74.5913C80.1336 72.8806 78.5213 86.7752 81.7649 85.4066C84.9706 84.0571 87.7968 80.1035 87.9865 71.569C88.2331 60.7157 83.8894 52.8845 88.1572 40.4725C91.0215 35.4925 96.105 32.0901 101.833 31.957C107.562 31.824 113.101 34.7322 116.192 39.5791C116.799 35.7966 118.639 30.0943 121.997 28.2695C125.354 26.4448 129.85 26.6539 132.752 29.1629C135.654 31.6719 136.451 36.4428 134.155 39.5221C135.692 40.0163 137.532 39.37 138.404 37.9825C138.537 39.7502 137.911 41.5559 136.716 42.8484C138.101 42.5063 139.334 41.6319 140.149 40.4535C139.808 42.0121 139.486 43.5897 139.144 45.1484C144.835 45.3004 150.411 39.7692 152.005 34.8462C154.395 27.3952 152.555 19.8681 148.401 13.2345C144.247 6.60077 136.792 1.92488 128.977 2.00091C121.162 2.07694 114.599 5.78344 111.583 13.0064C106.5 9.41391 96.2188 8.15941 90.5662 10.7445C84.9137 13.3295 80.7975 19.0508 80.1716 25.2473C76.6245 23.7457 72.3756 24.9052 69.3976 27.3382C69.151 27.5472 68.9044 27.7563 68.6768 27.9654C64.5796 31.7479 62.9104 37.5073 63.9536 42.9815C64.3709 45.1484 65.1107 47.4103 65.5659 49.14C66.8748 54.3291 69.2837 65.2585 69.2837 65.2585L69.2648 65.2965Z" fill="#263238" stroke="black" stroke-width="2.99614" stroke-miterlimit="10"/>
<path d="M139.296 37.6592C139.296 37.6592 139.466 37.5452 139.751 37.2981C140.035 37.051 140.434 36.6518 140.87 36.0626C141.761 34.9221 142.805 33.0023 143.108 30.3983C143.431 27.8512 142.843 24.4679 140.453 21.8448C138.176 19.2598 134.326 17.416 130.286 18.0053C128.294 18.2904 126.454 19.0887 124.899 20.1151C123.324 21.1605 121.996 22.415 120.934 23.7646C118.753 26.4257 117.501 29.3529 116.856 31.8429C116.211 34.3519 116.135 36.4807 116.192 37.9253C116.249 38.6476 116.287 39.1988 116.363 39.579C116.42 39.9591 116.458 40.1492 116.477 40.1492C116.647 40.1492 115.908 36.9179 117.254 31.9569C117.937 29.5239 119.208 26.6918 121.352 24.1067C123.457 21.5597 126.568 19.1457 130.38 18.5945C134.193 18.0433 137.873 19.773 140.054 22.225C142.33 24.677 142.956 27.8893 142.691 30.3603C142.444 32.8883 141.496 34.789 140.68 35.9485C139.865 37.108 139.239 37.6212 139.296 37.6782V37.6592Z" fill="#455A64" stroke="black" stroke-width="0.998712" stroke-miterlimit="10"/>
<path d="M141.914 43.6281C141.914 43.6281 142.066 43.419 142.312 42.9818C142.559 42.5446 142.919 41.8984 143.356 41.062C144.209 39.3703 145.518 36.9183 146.485 33.63C146.96 31.9953 147.32 30.1136 147.358 28.0988C147.396 26.084 147.111 23.8791 146.201 21.7692C145.309 19.6594 143.716 17.7016 141.63 16.333C139.543 14.9645 137.039 14.0901 134.403 13.9381C131.766 13.767 129.186 14.2802 126.872 15.1355C124.558 16.0099 122.491 17.2454 120.708 18.652C117.123 21.4461 114.77 25.0766 113.974 28.4409C113.139 31.8053 113.67 34.6944 114.372 36.4622C114.714 37.3555 115.112 38.0018 115.358 38.4199C115.643 38.8381 115.814 39.0472 115.833 39.0282C115.89 38.9902 115.207 38.1538 114.581 36.3861C113.974 34.6374 113.519 31.8053 114.372 28.555C115.207 25.3046 117.521 21.8072 121.03 19.0891C124.501 16.39 129.224 14.2232 134.346 14.5273C136.888 14.6794 139.296 15.5157 141.307 16.8272C143.299 18.1387 144.835 19.9825 145.689 21.9973C146.561 24.0121 146.865 26.141 146.846 28.1178C146.846 30.0946 146.504 31.9193 146.049 33.554C145.139 36.8043 143.906 39.2943 143.109 41.005L142.161 42.9818C141.952 43.438 141.838 43.6851 141.857 43.6851L141.914 43.6281Z" fill="#455A64" stroke="black" stroke-width="0.998712" stroke-miterlimit="10"/>
<path d="M73.9688 56.6672C73.9688 56.6672 72.7358 55.6598 71.1235 53.74C69.5112 51.8393 67.6523 48.798 66.8746 45.0345C66.0969 41.271 66.5901 37.7356 67.3109 35.3596C68.0317 32.9456 68.8663 31.5961 68.7525 31.5391C68.7145 31.5391 68.4869 31.8432 68.1265 32.4514C67.7661 33.0787 67.3109 34.0101 66.8936 35.2266C66.04 37.6405 65.4709 41.271 66.2676 45.1486C67.0643 49.0261 69.056 52.1434 70.7821 54.0061C71.6546 54.9565 72.4323 55.6408 73.0014 56.059C73.5704 56.4962 73.9119 56.6862 73.9308 56.6482L73.9688 56.6672Z" fill="#455A64" stroke="black" stroke-width="0.998712" stroke-miterlimit="10"/>
<path d="M86.0889 56.2869C86.0889 56.2869 85.425 55.9828 84.3627 55.2605C83.3385 54.5382 81.9158 53.2647 81.0053 51.2119L80.4363 49.9383L80.5691 51.3259C80.7398 53.2077 80.9295 55.3745 81.1381 57.7125L81.0846 57.1119C79.5102 56.0474 78.4826 54.9374 77.2306 53.1697C75.6373 50.9458 74.6699 48.4748 74.2526 46.1368C73.8543 43.7989 73.9681 41.632 74.2906 39.8643C74.9734 36.3098 76.3012 34.4091 76.1684 34.3521C76.1684 34.3521 76.0736 34.4471 75.9218 34.6752C75.7701 34.9033 75.5804 35.2454 75.3338 35.7016C74.8596 36.614 74.2716 37.9825 73.8922 39.7882C73.5129 41.575 73.3421 43.8179 73.7215 46.2319C74.1198 48.6458 75.1062 51.2119 76.7564 53.5118C78.0463 55.3175 79.6396 56.8191 81.2709 57.9026L81.7641 58.2257L81.7072 57.6365C81.4606 55.2985 81.233 53.1316 81.0243 51.2689L81.2544 51.7309C82.2597 53.8787 83.1108 54.7853 84.23 55.4696C84.7801 55.8117 85.2543 56.0208 85.5767 56.1349C85.8992 56.2489 86.0699 56.2869 86.0889 56.2679V56.2869Z" fill="#455A64" stroke="black" stroke-width="0.998712" stroke-miterlimit="10"/>
<path d="M89.7889 28.1933C89.9027 28.2693 90.4718 26.2925 92.8618 24.3347C94.0568 23.3843 95.688 22.491 97.6608 22.1108C99.6145 21.7117 101.891 21.8827 104.072 22.7001C106.253 23.5174 108.093 24.8289 109.44 26.3305C110.806 27.8131 111.716 29.4288 112.323 30.8353C113.537 33.6675 113.651 35.6443 113.784 35.6063C113.822 35.6063 113.822 35.1121 113.689 34.2567C113.556 33.3824 113.291 32.1469 112.722 30.6833C112.134 29.2197 111.242 27.547 109.857 25.9694C108.473 24.3917 106.557 23.0042 104.3 22.1488C102.023 21.3125 99.6335 21.1414 97.5849 21.5976C95.5173 22.0348 93.8291 23.0232 92.6341 24.0496C91.4391 25.095 90.6994 26.1595 90.301 26.9388C90.1114 27.3379 89.9224 27.4263 89.8655 27.6544C89.7896 27.8825 89.5097 27.9993 89.8079 28.2123L89.7889 28.1933Z" fill="#455A64" stroke="black" stroke-width="0.998712" stroke-miterlimit="10"/>
<path d="M92.8989 18.005C92.9558 18.119 94.1887 17.1306 96.5787 16.5794C98.9118 16.0092 102.459 16.1042 105.721 17.8719C108.984 19.6586 111.071 22.4908 112.19 24.6196C113.347 26.7675 113.707 28.2691 113.821 28.2501C113.859 28.2501 113.802 27.851 113.612 27.1857C113.423 26.5204 113.1 25.551 112.55 24.4296C111.488 22.2057 109.382 19.2215 105.987 17.3587C102.573 15.496 98.8549 15.496 96.4649 16.1802C95.2509 16.5224 94.3405 16.9596 93.7524 17.3397C93.1644 17.7199 92.8799 17.967 92.8989 18.005Z" fill="#455A64" stroke="black" stroke-width="0.998712" stroke-miterlimit="10"/>
<path d="M44.7401 285.31L44.9677 243.893L44.797 239.825L2.858 230.017C2.858 230.017 11.0903 202.836 18.6397 173.621C23.0024 156.761 37.5132 148.265 41.0223 146.44L41.781 146.06L82.1457 128.934C90.302 137.659 102.176 144.634 113.614 141.289C119.874 139.464 126.285 134.826 130.211 129.942L157.431 139.293C164.411 141.859 171.809 146.744 176.248 154.575C181.938 164.669 200.129 210.933 200.451 211.979L166.763 215.02C166.763 215.02 172.738 324.523 170.633 344.101C170.633 344.101 162.458 349.765 141.801 350.754C99.938 352.731 37.627 349.746 37.627 349.746C38.5943 343.417 39.6186 332.868 40.2067 327.526L44.759 285.31H44.7401Z" fill="#8969D3" stroke="black" stroke-width="2.99614" stroke-miterlimit="10"/>
<path d="M165.093 177.556C164.923 177.556 165.814 203.673 167.085 235.891C168.356 268.109 169.532 294.206 169.703 294.206C169.873 294.206 168.982 268.09 167.711 235.872C166.44 203.673 165.264 177.556 165.093 177.575V177.556Z" fill="#263238" stroke="black" stroke-width="0.998712" stroke-miterlimit="10"/>
<path d="M49.3489 181.529C49.6524 181.529 48.7988 204.718 47.452 233.287C46.1053 261.855 44.7775 285.007 44.474 285.007C44.1705 285.007 45.0241 261.817 46.3708 233.249C47.7176 204.68 49.0454 181.529 49.3489 181.548V181.529Z" fill="#263238" stroke="black" stroke-width="0.998712" stroke-miterlimit="10"/>
<path d="M2.66672 249.728C4.03244 239.445 5.17054 230.359 5.17054 230.359L38.7066 238.171L37.265 243.589L63.1947 217.206L74.5757 188.466L81.9923 181.624L96.9393 176.872L108.453 182.764C107.827 187.877 96.6738 184.418 96.6738 184.418L91.6472 187.288C91.6472 187.288 97.3756 189.341 98.5517 190.462C99.7087 191.584 98.969 194.701 98.969 194.701C98.969 194.701 99.9553 195.005 100.961 196.278C101.966 197.552 101.719 200.992 101.719 200.992L104.242 204.68C104.242 204.68 104.28 206.467 103.351 208.785C102.421 211.085 97.4325 213.499 97.4325 213.499C97.4325 213.499 95.8771 216.465 92.4249 221.939C88.9726 227.394 80.3231 231.196 80.3231 231.196C80.3231 231.196 68.9421 255.278 62.3221 264.649C53.7105 276.852 40.1861 295.442 21.654 293.883C4.5256 292.438 0.181862 268.223 2.62878 249.785L2.66672 249.728Z" fill="white" stroke="black" stroke-width="2.99614" stroke-miterlimit="10"/>
<path d="M24.4463 260.012C24.1957 259.883 26.3 255.855 29.8213 251.545C33.3195 247.222 36.8376 244.369 37.0346 244.592C37.2548 244.828 34.1146 247.992 30.675 252.241C27.2122 256.476 24.7483 260.187 24.4695 260.026L24.4463 260.012Z" fill="#020302" stroke="#040504" stroke-width="0.998712" stroke-miterlimit="10"/>
<path d="M91.3642 193.18C91.3642 193.332 93.1282 193.37 95.2337 193.826C97.3392 194.264 98.9705 194.948 99.0464 194.815C99.1033 194.701 97.5289 193.807 95.3475 193.351C93.1662 192.876 91.3642 193.066 91.3642 193.199V193.18Z" fill="#FF9A6C" stroke="black" stroke-width="0.998712" stroke-miterlimit="10"/>
<path d="M94.8164 199.642C94.8164 199.795 96.3339 199.776 98.1549 200.061C99.9758 200.327 101.417 200.783 101.455 200.65C101.512 200.536 100.109 199.852 98.2118 199.585C96.3339 199.3 94.7975 199.528 94.7975 199.642H94.8164Z" fill="#FF9A6C" stroke="black" stroke-width="0.998712" stroke-miterlimit="10"/>
<path d="M97.491 212.854C97.6238 212.854 97.5479 211.447 98.5533 210.192C99.5207 208.9 100.905 208.653 100.867 208.52C100.867 208.463 100.507 208.425 99.9569 208.596C99.4068 208.767 98.705 209.185 98.1549 209.888C97.6048 210.592 97.3583 211.371 97.3393 211.941C97.3014 212.511 97.4341 212.854 97.491 212.854Z" fill="#FF9A6C" stroke="black" stroke-width="0.998712" stroke-miterlimit="10"/>
<path d="M88.4815 203.634C88.6143 203.691 89.1075 202.418 90.4922 201.657C91.8579 200.859 93.2047 201.125 93.2236 200.973C93.2236 200.916 92.9201 200.764 92.3701 200.726C91.82 200.688 91.0233 200.802 90.2646 201.239C89.5058 201.657 88.9937 202.285 88.7281 202.779C88.4626 203.273 88.4436 203.634 88.5005 203.653L88.4815 203.634Z" fill="#FF9A6C" stroke="black" stroke-width="0.998712" stroke-miterlimit="10"/>
<path d="M83.2271 197.248C83.3599 197.305 83.8151 196.107 85.0671 195.328C86.3 194.511 87.5709 194.606 87.5898 194.454C87.5898 194.397 87.2864 194.283 86.7552 194.283C86.2241 194.283 85.4844 194.473 84.8015 194.91C84.1186 195.347 83.6444 195.936 83.4168 196.412C83.1892 196.887 83.1702 197.229 83.2271 197.229V197.248Z" fill="#FF9A6C" stroke="black" stroke-width="0.998712" stroke-miterlimit="10"/>
<path d="M79.7177 194.112C79.7177 194.112 79.7557 193.712 79.8316 193.123C79.9074 192.534 80.135 191.736 80.6662 191.013C81.1973 190.291 81.8991 189.835 82.4492 189.588C82.9993 189.341 83.3786 189.265 83.3597 189.189C83.3597 189.132 82.9424 189.075 82.3164 189.265C81.6905 189.436 80.8748 189.892 80.2678 190.709C79.6608 191.527 79.4712 192.458 79.4712 193.104C79.4712 193.75 79.6419 194.131 79.6988 194.112H79.7177Z" fill="#FF9A6C" stroke="black" stroke-width="0.998712" stroke-miterlimit="10"/>
<path d="M84.5928 186.604C84.5928 186.775 87.0018 186.813 89.904 187.27C92.8061 187.726 95.0064 188.733 95.0633 188.6C95.1203 188.505 92.9768 187.251 89.9798 186.775C88.5003 186.528 87.1346 186.49 86.1672 186.49C85.1808 186.49 84.5928 186.547 84.5928 186.604Z" fill="#FF9A6C" stroke="black" stroke-width="0.998712" stroke-miterlimit="10"/>
<g opacity="0.3">
<path d="M117.408 251.515C117.825 248.17 118.318 244.691 120.253 241.935C123.629 237.164 130.249 236.157 136.072 236.442C141.896 236.727 147.928 237.867 153.409 235.872L169.741 284.493C163.671 283.011 158.265 279.057 154.984 273.735C153.315 271.017 152.101 267.862 149.578 265.923C146.107 263.243 141.27 263.642 136.888 263.585C132.298 263.528 127.726 262.862 123.307 261.589C121.429 261.038 119.494 260.315 118.337 258.738C116.857 256.723 117.104 253.967 117.427 251.496L117.408 251.515Z" fill="black"/>
</g>
<path d="M159.498 194.586L154.414 248.701C154.13 251.704 152.973 253.795 151.076 254.936L118.317 254.233C116.99 253.016 115.529 249.157 115.814 245.033L119.436 193.237C119.645 190.12 120.821 187.877 122.225 187.839L156.728 187.04C158.492 187.002 159.858 190.728 159.498 194.586Z" fill="#263238" stroke="#020302" stroke-width="0.998712" stroke-miterlimit="10"/>
<path d="M141.023 214.773C141.308 212.454 143.524 210.733 145.274 209.055C142.182 208.245 141.82 208.196 142.085 206.372C142.351 204.547 143.944 203.216 145.481 202.209C147.662 200.764 149.976 199.529 152.404 198.54C154.358 197.742 156.426 197.077 158.55 197.115C160.674 197.153 162.856 197.951 164.165 199.624C164.392 199.909 164.525 200.194 164.81 200.764C165.682 202.456 166.137 203.939 166.384 204.965C166.593 208.158 166.725 211.523 166.763 215.02C166.801 218.841 166.725 222.49 166.555 225.949L166.763 215.02C176.153 214.184 185.542 213.328 194.931 212.492C195.614 215.647 196.676 220.589 198.08 226.634C203.334 249.481 204.814 252.009 204.965 258.89C205.098 265.01 205.364 282.459 194.742 288.162C186.092 292.8 170.728 287.705 165.587 279.342C163.975 276.643 161.756 272.708 159.441 267.785C155.951 260.372 154.187 252.085 150.83 242.068C149.502 238.114 150.678 225.379 150.678 225.379C150.716 223.802 150.982 222.243 151.627 221.065C150.413 222.547 149.123 224.087 147.359 224.828C145.595 225.55 143.186 225.132 142.332 223.421C141.516 221.787 142.408 220.334 143.674 218.78C141.436 218.171 140.72 217.111 141.004 214.792L141.023 214.773Z" fill="white"/>
<path d="M166.763 215.02C166.725 211.523 166.593 208.158 166.384 204.965C166.137 203.939 165.682 202.456 164.81 200.764C164.525 200.194 164.392 199.909 164.165 199.624C162.856 197.951 160.674 197.153 158.55 197.115C156.426 197.077 154.358 197.742 152.404 198.54C149.976 199.529 147.662 200.764 145.481 202.209C143.944 203.216 142.351 204.547 142.085 206.372C141.82 208.196 142.182 208.245 145.274 209.055C143.524 210.733 141.308 212.454 141.023 214.773L141.004 214.792C140.72 217.111 141.436 218.171 143.674 218.78C142.408 220.334 141.516 221.787 142.332 223.421C143.186 225.132 145.595 225.55 147.359 224.828C149.123 224.087 150.413 222.547 151.627 221.065C150.982 222.243 150.716 223.802 150.678 225.379C150.678 225.379 149.502 238.114 150.83 242.068C154.187 252.085 155.951 260.372 159.441 267.785C161.756 272.708 163.975 276.643 165.587 279.342C170.728 287.705 186.092 292.8 194.742 288.162C205.364 282.459 205.098 265.01 204.965 258.89C204.814 252.009 203.334 249.481 198.08 226.634C196.676 220.589 195.614 215.647 194.931 212.492C185.542 213.328 176.153 214.184 166.763 215.02ZM166.763 215.02C166.801 218.841 166.725 222.49 166.555 225.949L166.763 215.02Z" stroke="#020302" stroke-width="2.99614" stroke-miterlimit="10"/>
<path d="M144.305 218.935C144.305 218.935 145.12 218.308 146.391 217.263C147.662 216.236 149.521 214.83 151.93 214.26C153.125 213.974 154.32 213.955 155.344 214.184C156.369 214.412 157.241 214.887 157.867 215.381C159.138 216.388 159.441 217.453 159.536 217.396C159.555 217.396 159.536 217.13 159.328 216.693C159.138 216.255 158.759 215.666 158.114 215.096C157.469 214.526 156.577 213.993 155.458 213.708C154.358 213.423 153.068 213.442 151.797 213.746C149.237 214.355 147.359 215.894 146.126 216.997C144.893 218.137 144.229 218.916 144.286 218.973L144.305 218.935Z" fill="#FF9A6C" stroke="#020302" stroke-width="0.998712" stroke-miterlimit="10"/>
<path d="M144.627 209.508C144.627 209.508 145.651 209.166 147.188 208.367C147.965 207.987 148.857 207.512 149.919 207.094C150.962 206.695 152.176 206.352 153.447 206.086C154.718 205.839 155.951 205.782 157.051 205.972C158.132 206.162 159.062 206.581 159.745 207.075C161.129 208.063 161.433 209.166 161.528 209.109C161.547 209.109 161.528 208.823 161.3 208.367C161.091 207.93 160.674 207.303 159.972 206.752C159.27 206.2 158.303 205.687 157.146 205.459C155.989 205.231 154.68 205.288 153.352 205.535C152.043 205.801 150.83 206.162 149.748 206.6C148.667 207.056 147.776 207.569 147.017 207.987C145.537 208.861 144.608 209.394 144.646 209.47L144.627 209.508Z" fill="#FF9A6C" stroke="#020302" stroke-width="0.998712" stroke-miterlimit="10"/>
<path d="M197.359 273.601C196.991 273.402 198.573 270.313 197.701 264.991C197.264 262.367 196.24 259.288 194.457 256.247C192.693 253.187 190.151 250.184 187.211 247.332C184.252 244.481 181.217 241.972 178.505 239.634C175.792 237.296 173.421 235.072 171.562 233.077C169.722 231.081 168.375 229.294 167.56 228.021C166.725 226.747 166.384 225.968 166.422 225.949C166.479 225.911 166.953 226.614 167.844 227.811C168.755 229.009 170.14 230.701 172.017 232.62C173.895 234.54 176.304 236.688 179.036 238.988C181.767 241.288 184.84 243.778 187.818 246.667C190.796 249.556 193.376 252.636 195.159 255.81C196.942 258.984 197.947 262.158 198.307 264.876C198.668 267.614 198.44 269.856 198.099 271.339C197.909 272.08 197.757 272.651 197.587 273.031C197.435 273.411 197.359 273.601 197.321 273.582L197.359 273.601Z" fill="#020302" stroke="#040504" stroke-width="1.99742" stroke-miterlimit="10"/>
</svg>
